<?xml version="1.0" standalone="no"?>
<!DOCTYPE svg PUBLIC "-//W3C//DTD SVG 1.1//EN" "http://www.w3.org/Graphics/SVG/1.1/DTD/svg11.dtd" >
<svg xmlns="http://www.w3.org/2000/svg" xmlns:xlink="http://www.w3.org/1999/xlink" version="1.1">
<metadata></metadata>
<defs>
<font id="mafakanevregular" horiz-adv-x="2691" >
<font-face units-per-em="2048" ascent="1393" descent="-655" />
<missing-glyph horiz-adv-x="378" />
<glyph horiz-adv-x="0" />
<glyph horiz-adv-x="682" />
<glyph horiz-adv-x="0" />
<glyph horiz-adv-x="0" />
<glyph unicode="&#xd;" horiz-adv-x="217" />
<glyph unicode=" "  horiz-adv-x="378" />
<glyph unicode="&#x09;" horiz-adv-x="378" />
<glyph unicode="&#xa0;" horiz-adv-x="378" />
<glyph unicode="!" horiz-adv-x="802" d="M25 -283q-5 16 1.5 59.5t20.5 82.5q28 75 60 137.5t49 68.5q21 7 64.5 -18.5t46.5 -44.5q-24 -7 -67.5 -57t-83.5 -124q-22 -40 -33.5 -73t-11 -48.5t8.5 -21.5q2 -12 -23 4q-26 17 -32 35zM241 255q12 49 57 136t119.5 205.5t138.5 216t157 235.5t131 197q-9 2 -21 13.5 t-11 19.5q20 9 146 156q11 3 35.5 -29.5t28.5 -47.5q0 -20 -124 -197t-277 -394.5t-201 -303.5q37 -29 37 -42q-28 -6 -75.5 -73t-85.5 -148q-16 -2 -35 16.5t-20 39.5z" />
<glyph unicode="&#x22;" horiz-adv-x="692" d="M171 972q0 71 74 240t140 255l1 1h2q19 0 52.5 -32.5t33.5 -58.5q-61 -35 -164.5 -201.5t-103.5 -227.5q0 -23 10 -32q0 -4 -6 -4q-17 0 -28 18.5t-11 41.5zM342 968q0 65 88 235t164 255h2q16 0 51 -37.5t35 -64.5v-4q-47 -20 -122 -106.5t-130.5 -177.5t-55.5 -128 q0 -19 9 -28q0 -4 -8 -4q-16 0 -24.5 18t-8.5 42z" />
<glyph unicode="#" horiz-adv-x="3105" d="M48 131q133 45 294.5 82t275.5 56t304 47q143 21 272 35q90 156 217 358q-96 -9 -148 -16q-190 -25 -435 -84q19 -25 16 -31q-45 -10 -219 -62q-18 11 -37.5 54t-2.5 48q60 29 256.5 66.5t353.5 52.5q235 21 248 22q107 166 218 326q-30 -1 -60 6q17 13 35 28.5t31 28 t30.5 33t26.5 30.5t27 34.5t23 31t24 33.5t21 29q15 0 46.5 -44t26.5 -56q-82 -87 -331 -471q232 15 334 19q174 286 321 489q-21 19 -21 28q16 8 56.5 45.5t68.5 72.5q13 5 40.5 -29t25.5 -45q-127 -147 -377 -557q87 3 191 1q285 -4 520.5 -32.5t329.5 -68.5 q63 -27 63 -63q0 -20 -14 -37t-41 -30.5t-46.5 -21t-52 -17t-36.5 -10.5q-22 -8 -21 5q1 14 26 27q5 2 30.5 12t43 18t34.5 22.5t19 29.5q6 46 -240 84t-469 41q-143 2 -364 -5q-19 -31 -86 -144q-41 -70 -119 -210q149 6 377 6q118 0 254 -12.5t192 -34.5q31 -13 30 -36 q-1 -21 -29 -40.5t-45 -17.5q-6 4 -5 9.5t5 19t4 20.5q0 27 -146 41t-227 14q-217 0 -436 -15q-122 -224 -193 -375q71 67 136 104q6 4 15 -4.5t8 -17.5q-48 -27 -134.5 -129.5t-107.5 -174.5h-1q-18 -11 -42.5 7t-24.5 34q0 111 231 547q-194 -17 -367 -39 q-134 -226 -185 -334q-164 -332 -183 -472q-2 -16 -2 -24q0 -36 39 -36q8 0 4 -5q-29 -38 -62 -27q-22 8 -45.5 55t-19.5 77q8 63 73 217t129 280q46 91 136 254q-107 -16 -194 -30q-256 -43 -512.5 -113.5t-324.5 -120.5q-5 -3 -25 22.5t-37 55t-14 34.5zM1308 362 q168 16 357 25q73 133 144 255l59 100q-198 -10 -338 -22q-102 -159 -222 -358z" />
<glyph unicode="$" horiz-adv-x="2121" d="M-239 -226q106 30 288.5 65t440.5 81.5t416 77.5l27 50q139 258 365 625q-237 126 -336 207.5t-94 153.5q6 82 104.5 169t233.5 149.5t282 100t248 30.5q35 -3 83 -16q50 69 100 128q16 1 45.5 -22.5t32.5 -35.5q1 -1 2 -1q-45 -59 -47 -143q0 -24 6 -52q8 -30 6 -54 q-2 -16 -5 -16q-6 1 -9 17q-15 69 -72 108q-64 -81 -122 -165.5t-143.5 -220t-115.5 -180.5l-74 -115q525 -282 518 -368q-3 -44 -57 -88t-139.5 -82t-212 -77.5t-258.5 -72t-294 -67.5q-49 -92 -94 -188q-122 -253 -158 -381q-16 -61 -16 -88q0 -21 8.5 -34t17.5 -18.5 t9 -9.5q0 -8 -12 -8q-15 0 -47.5 27t-40.5 41q-10 21 -10 53q-1 89 82 264q110 233 155 320q-171 -35 -604 -117q28 -2 36 -4t24 -16t15 -19l-1 -1q-81 17 -162 0.5t-133 -41t-109.5 -52t-89.5 -32.5q-43 8 -69.5 42t-19.5 76zM999 1056q-5 -65 77 -131t273 -170l88 139 q16 25 75 116t94.5 146t89.5 135t96 139q-18 3 -54 7q-105 7 -235.5 -28t-239 -91.5t-184.5 -128.5t-80 -133zM1012 20q171 36 303 71t245.5 76t176 86.5t66.5 93.5q1 21 -52 62.5t-146.5 96.5t-233.5 129q-203 -321 -359 -615z" />
<glyph unicode="%" horiz-adv-x="2226" d="M11 -478q66 87 250.5 295t352.5 376q211 211 355 350.5t353.5 325t396.5 327.5q3 5 11 11q18 17 38 45.5t20 44.5q0 40 -63 55t-218 15q-139 0 -409 -40q75 -46 75 -107q0 -56 -66 -145t-159.5 -169.5t-204 -139t-190.5 -58.5q-47 0 -93 43.5t-46 99.5q0 88 74 194 t183 190q-62 -9 -124 -24.5t-89 -29.5q-11 11 -25 38.5t-7 35.5q603 152 1071 152q337 0 337 -106q0 -8 -6 -24q103 74 195 134q16 -9 36.5 -41.5t24.5 -60.5q-28 -16 -52 -32q-86 -62 -146.5 -122t-75.5 -92q-5 -1 -12 10.5t-13 26.5t-7 24q-245 -176 -544.5 -449 t-574.5 -554q-162 -166 -343 -370t-250 -306q-3 -4 -18.5 13t-27.5 38t-9 26zM534 816q0 -47 45 -47q89 0 239 95q128 81 215.5 191.5t87.5 164.5q0 37 -36 63.5t-84 28.5q-59 -19 -137.5 -70.5t-153 -118.5t-125.5 -150.5t-51 -156.5zM1079 137q74 97 177.5 182.5 t213.5 141.5q231 117 455 117q64 0 115.5 -30.5t51.5 -92.5q-1 -62 -63 -151t-128 -153q-42 -40 -110 -93.5t-152 -110.5t-169 -93.5t-140 -30.5q-47 5 -88.5 48t-45.5 73q-5 40 6 79t51 102q53 86 140.5 163t160.5 100q9 -2 31.5 -30t19.5 -36q-128 -98 -218 -199 q-36 -39 -64.5 -91t-32.5 -93q-2 -24 9.5 -40t38.5 -16q103 0 256.5 92.5t249.5 184.5q142 134 142 246q0 49 -52.5 73t-118.5 24q-157 0 -326 -82q-22 -10 -84 -49t-155.5 -114.5t-146.5 -144.5q-4 -4 -11 -1t-12 11.5t-1 13.5z" />
<glyph unicode="&#x26;" horiz-adv-x="2397" d="M2 -170q0 127 115.5 284.5t283.5 303.5q85 74 230 169t278 166q83 44 197 91q10 90 35.5 182.5t70.5 186t104.5 169t142.5 131.5t179 74q79 15 162 -4.5t141.5 -72.5t58.5 -125q0 -44 -55.5 -112t-151.5 -122q-5 -3 -10 2t0 10q119 90 145 211q9 40 -13.5 78t-64.5 60.5 t-96.5 31t-109.5 -9.5q-88 -28 -161.5 -97t-123 -163.5t-82 -194t-50.5 -207.5q19 -9 37.5 -31t18.5 -37q-39 -23 -71 -63q-20 -262 82 -632q239 161 454 338.5t327 294.5q45 48 106 133q-144 -18 -294 -44q-45 -7 -90 -18q16 -16 25 -33t2 -21q-40 13 -176 -3t-182 -39 q-11 11 -25 38.5t-7 35.5q237 60 429 92q201 34 356 48q54 85 73 119q10 1 51.5 -34t50.5 -61l-15 -14q147 5 289 5q46 0 93 -2t110.5 -9t110.5 -18.5t80.5 -33.5t33.5 -51q0 -32 -40.5 -68.5t-67.5 -45.5q-20 -7 -19 4q1 9 15 22q66 63 66 84q0 22 -43 38.5t-110.5 23.5 t-122 10.5t-104.5 3.5q-160 3 -337 -13q-88 -102 -195.5 -264.5t-183.5 -316.5q-149 -310 -154 -405q0 -5 -1 -19.5t-1 -20.5t0.5 -17t2.5 -16.5t5.5 -12t10 -10t15.5 -4.5q30 -5 99.5 42.5t109.5 95.5q9 11 16 7q10 -6 -21 -43q-46 -54 -105.5 -100t-93.5 -52 q-48 -9 -93 36.5t-47 92.5q-6 127 178 490q59 115 131 233q-123 -119 -308 -267t-388 -284q40 -133 88 -243q22 -51 57 -117.5t86.5 -147.5t103.5 -147t111 -110.5t107 -44.5q33 0 55 25q16 21 20 8q3 -12 -9 -33q-16 -23 -58 -37.5t-83 -14.5q-60 0 -127 49t-122 120 t-107.5 160.5t-86.5 160.5t-57 130q-31 80 -63 186q-596 -382 -951 -382q-118 0 -195 58t-77 154zM108 -203q0 -57 41.5 -90t128.5 -33q340 0 932 380q-49 176 -78.5 357.5t-30.5 326.5q-67 -26 -149 -70q-287 -153 -476 -333q-62 -58 -100 -96t-95 -102.5t-90 -114.5 t-58 -111t-25 -114z" />
<glyph unicode="'" horiz-adv-x="777" d="M366 759q121 129 257.5 343t153.5 298q16 -2 47 -40.5t30 -58.5q-5 -56 -196.5 -277.5t-274.5 -280.5z" />
<glyph unicode="(" horiz-adv-x="1446" d="M169 -203q-6 85 18 179.5t63.5 175.5t103 174t117.5 159.5t125 147.5q360 411 962 767q117 69 305.5 147t268.5 94q6 -3 6 -8q1 -10 -10.5 -26.5t-17.5 -17.5q-62 -12 -223.5 -81t-271.5 -130q-250 -140 -483 -337t-427 -426q-84 -99 -157 -202t-138 -219t-99 -232 t-27 -213q22 -309 513 -309q88 0 164 21t116 48q5 1 12 -11.5t5 -17.5q-41 -42 -135 -65.5t-200 -23.5q-56 0 -114.5 8t-124.5 25t-125 49t-108 74.5t-80.5 107t-37.5 142.5z" />
<glyph unicode=")" horiz-adv-x="1078" d="M-827 -632q156 8 342 92q218 94 419 206t388.5 253t325 290t220 322t82.5 344q0 161 -69.5 310.5t-200.5 256.5t-297 136q-10 3 -10 26q0 32 14 38q18 -3 87 -26.5t86 -26.5q2 -7 2 -25q109 -54 198.5 -121.5t160.5 -150.5t110 -185t39 -213q0 -28 -3 -58 q-13 -146 -82 -290.5t-172.5 -268t-243.5 -243t-285.5 -215.5t-310 -186t-304.5 -155t-281 -121q-30 -12 -85.5 -27t-73.5 -15q-16 0 -34.5 17.5t-21.5 35.5z" />
<glyph unicode="*" horiz-adv-x="1440" d="M270 850q4 4 54.5 34t108.5 70.5t89 74.5q3 1 9.5 -8t10 -20.5t-0.5 -22.5q53 25 86 39q92 39 133 56q-66 154 -80 211q0 11 20 36t28 23q23 -48 68.5 -100t81.5 -57q-4 -12 -33 -22t-45 -7q2 -13 18 -59q62 89 136.5 177t109.5 110q11 3 42.5 -24.5t33.5 -40.5 q-15 -12 -60.5 -58.5t-92.5 -101.5q132 48 294 88q146 34 171 34q17 0 29.5 -10t12.5 -19t-14 -9q-59 -2 -216.5 -43.5t-329.5 -103.5q-45 -57 -75 -103q39 -93 82 -167q77 -130 187 -253.5t169 -123.5q21 0 36.5 5t22.5 9.5t9 4.5q5 0 5 -5q0 -3 -6 -13q-12 -20 -37 -37 t-52 -17q-50 0 -167 129.5t-204 267.5q-38 58 -80 144q-41 -73 -73.5 -146.5t-32.5 -98.5v-5q0 -6 7 -32q1 -5 -2 -7.5t-9 -2.5q-11 0 -41.5 40.5t-30.5 55.5q0 75 135 294q-106 -46 -129 -57q-106 -49 -256 -137q-9 -5 -26 -15t-31 -18t-27 -15q-11 -2 -24.5 21.5 t-13.5 34.5z" />
<glyph unicode="+" horiz-adv-x="1662" d="M200 312q37 11 145.5 35t154.5 31q133 20 209 28q117 196 217 339q21 0 48 -27t27 -50q-77 -100 -168 -251q128 9 259 8q21 0 41.5 -1t63.5 -4.5t77.5 -9.5t70 -15.5t55.5 -25.5t20 -36q0 -16 -11 -26t-23 -10q-13 0 -13 12q0 1 1.5 3t3.5 7t2 12q0 24 -90.5 37 t-189.5 13q-133 0 -301 -22q-80 -137 -137 -255.5t-62 -166.5q-16 0 -49 33.5t-33 53.5q0 52 152 316q-49 -9 -52 -9q-68 -11 -194 -46t-200 -63q-10 5 -19 41.5t-5 48.5z" />
<glyph unicode="," horiz-adv-x="784" d="M-380 -401q0 7 5 5q18 -6 33 -6q58 0 150.5 73.5t158.5 148.5q38 43 77 92q178 220 209 347q11 10 59.5 -17t50.5 -44q0 -24 -75.5 -117t-183.5 -203q-22 -23 -61 -60t-54 -52q-59 -59 -160 -131t-162 -73q-21 0 -32 8q-16 11 -15 29z" />
<glyph unicode="-" horiz-adv-x="1313" d="M185 336q0 18 238.5 34t346.5 16q325 0 325 -68q0 -17 -19.5 -39.5t-32.5 -22.5q-5 0 -5 4q0 2 3 15.5t3 25.5q0 41 -214 41q-129 0 -327 -19q18 -18 18 -33q0 -3 -1 -5q-11 3 -37 3q-111 0 -264 -41q-13 4 -23.5 36.5t-10.5 52.5z" />
<glyph unicode="." horiz-adv-x="694" d="M128 34q13 40 70 125q15 5 44 -11t49.5 -37t15.5 -29q-75 -75 -105 -124q-19 -2 -47.5 28.5t-26.5 47.5z" />
<glyph unicode="/" horiz-adv-x="1167" d="M48 -339q53 185 397 730q152 242 404.5 590.5t438.5 566.5q17 -1 48.5 -24.5t29.5 -31.5q-197 -219 -425 -532.5t-418 -612.5q-153 -241 -253 -439q42 5 61 -5q5 -2 3 -5q-33 -7 -94.5 -110.5t-108.5 -210.5q-7 -1 -38.5 33t-44.5 51z" />
<glyph unicode="0" horiz-adv-x="1697" d="M-129 140q0 129 64.5 288.5t165.5 306t225.5 274.5t243.5 205q17 -6 41.5 -37t16.5 -45q-76 -58 -135.5 -145.5t-61.5 -135.5q-26 41 -39 76q-77 -79 -145.5 -171t-129 -197.5t-96.5 -221t-36 -220.5q0 -154 86 -246t270 -92q126 0 285.5 57.5t319.5 154.5t313.5 232 t271.5 281t190 311t72 314q0 184 -89.5 271t-239.5 87q-113 0 -237 -39.5t-224 -103t-165.5 -151t-65.5 -176.5q0 -39 10 -65.5t20.5 -37.5t10.5 -12q0 -7 -11 -7q-22 0 -48.5 48.5t-26.5 108.5q0 94 85 192t208 169t260.5 116.5t241.5 45.5q177 0 275 -90.5t98 -257.5 q0 -170 -76 -355.5t-200.5 -348.5t-287.5 -312t-333.5 -255.5t-342 -169.5t-310.5 -63q-102 0 -187 25t-150 75t-101 131t-36 186z" />
<glyph unicode="1" horiz-adv-x="1093" d="M193.5 883q-1.5 19 1 34.5t7.5 22.5q26 -42 82 -44q55 -1 159 42t190 97q157 98 278 191t239 225q32 45 41 71q7 18 16 49q7 4 25 -20.5t31.5 -53.5t10.5 -36q-56 -78 -236.5 -373t-341.5 -581q-124 -219 -232 -436q55 58 94 58q20 0 33 -7t17.5 -14t4.5 -12q-1 -1 -1 -2 v-1q-22 8 -34 7q-23 -2 -57.5 -34.5t-70.5 -85t-69 -130t-50 -159.5q-28 13 -55.5 33t-41.5 34.5t-15 19.5q214 563 818 1498q-173 -158 -394 -295q-104 -64 -218 -104.5t-161 -40.5q-33 0 -51 14t-19.5 33z" />
<glyph unicode="2" horiz-adv-x="1498" d="M-437 -247q0 15 74 41q63 29 134 68t151.5 89t149 94t159.5 108t147.5 103.5t149 108t127.5 94.5t119.5 89.5t90.5 68.5q79 59 162 125.5t193.5 165t193.5 186t142 178t59 152.5q0 113 -174 113q-127 0 -326 -72t-367 -171q-83 -48 -155.5 -101t-140 -116t-107 -131 t-39.5 -130q0 -53 42.5 -86.5t115.5 -46.5q17 -3 17 -13q0 -8 -10 -8q-95 0 -171 61t-76 147q0 64 32 129.5t82 119.5t119 106.5t134.5 91.5t137.5 75q176 87 355.5 139.5t331.5 52.5q70 0 138 -32.5t112 -87t44 -112.5q0 -63 -64 -157.5t-149 -182t-202.5 -190t-191.5 -161 t-149 -115.5q-195 -150 -461.5 -334.5t-435.5 -285.5q354 97 815 158t780 61q106 0 181 -14t111.5 -37.5t50 -51t6.5 -58.5q-9 -39 -47 -73.5t-64 -42.5q-17 -6 -16 -1q2 5 20 22q49 49 61 93q5 18 -1 34.5t-27 32t-55.5 27.5t-91 19t-129.5 7q-290 0 -721.5 -63 t-786.5 -161q-133 -37 -291.5 -93t-259.5 -104q-13 0 -21 27.5t-8 44.5z" />
<glyph unicode="3" horiz-adv-x="1545" d="M-601 -178q0 40 44 85t90 71.5t65 28.5q2 0 2 -3q0 -1 -34.5 -27t-68.5 -66.5t-34 -77.5q0 -65 230 -65q272 0 654 109t725 313q196 116 303 231t107 216q0 87 -65.5 145.5t-163 82.5t-219.5 24q-260 0 -624 -133q-23 -9 -56.5 -23t-55.5 -23.5t-45.5 -19t-39 -14 t-22.5 -4.5q-16 0 -32.5 28.5t-16.5 39.5q2 20 76 37q192 75 263 115q132 73 285 174.5t353.5 241.5t312.5 214q-143 -57 -439 -131t-523 -88q-20 0 -36.5 24t-16.5 47q0 9 2 12q286 72 359 114q6 -1 10.5 -7.5t4.5 -9.5q-10 -10 -64 -48.5t-88 -58.5q30 2 41 4 q349 41 770 189q8 0 36 -37t28 -48q-199 -168 -454 -346t-428 -269q195 67 434 67q111 0 208.5 -17t176 -50.5t124.5 -91t46 -131.5q0 -124 -133.5 -261t-363.5 -261q-315 -170 -635.5 -269t-740.5 -135q-38 -3 -83 -3q-113 0 -190.5 24.5t-77.5 80.5z" />
<glyph unicode="4" horiz-adv-x="1731" d="M-194 481q42 35 194.5 147.5t321.5 243t275 229.5q210 195 318 318q-87 -9 -161 2q-35 5 -27 13q37 0 97.5 19.5t114.5 48.5q81 45 91 62q12 3 40 -6.5t50.5 -25.5t19.5 -27q-22 -28 -45 -55t-54.5 -60.5t-47 -49.5t-57 -58t-49.5 -51q-176 -182 -449 -402t-467 -356 q729 189 1302 261q79 134 228 365t189 285q24 1 57.5 -33t39.5 -60q-50 -23 -112.5 -137t-61.5 -174q0 -16 22 -43q0 -1 -0.5 -1h-1.5q-5 -1 -12 -2t-18.5 7.5t-21.5 25.5q-11 20 -14 54q-108 -172 -166 -272q204 19 333 19q39 0 75.5 -2.5t93 -11.5t91 -32.5t34.5 -58.5 q0 -27 -24 -60t-59.5 -61.5t-65 -48.5t-51.5 -32q-21 -12 -23 -1q-1 9 14 23l9 7q8 8 16.5 15.5t21.5 20t24 24t23 26t20.5 26.5t14 24.5t5.5 21.5q0 23 -27.5 40t-67.5 24.5t-71.5 10.5t-53.5 3q-137 0 -361 -26q-152 -264 -289 -555.5t-137 -382.5q0 -33 8.5 -46t29.5 -22 q-21 -21 -44 -21q-32 1 -70.5 42t-39.5 65q-1 79 131.5 358.5t282.5 544.5q-359 -50 -747.5 -138.5t-597.5 -168.5q-14 -5 -53.5 39.5t-39.5 65.5z" />
<glyph unicode="5" horiz-adv-x="1776" d="M-466 -116q0 52 46.5 109.5t95.5 91t68 34.5q2 0 2 -4q0 -2 -24.5 -25t-53 -52t-52.5 -71.5t-24 -79.5q0 -28 28 -48.5t74 -30.5t91.5 -14.5t92.5 -4.5q414 0 1076 282q157 67 302 162.5t241 202t96 187.5q0 82 -69.5 145.5t-184.5 100t-249 55t-277 18.5 q-117 0 -236.5 -14.5t-170.5 -44.5q-9 1 -25 29t-18 40q11 29 81.5 130.5t157.5 210.5q-34 0 -51 -1q-94 -4 -150 -20q-8 3 -2 36t13 39q137 54 320 99q62 65 106 104q13 0 47.5 -24.5t39.5 -39.5q233 43 482 56q83 4 186.5 -4t197.5 -38t96 -78q2 -25 -36.5 -69t-69.5 -45 q-6 -1 -10.5 2t-4.5 7q0 3 3 6q51 37 49 82q-1 32 -49 53.5t-115.5 28t-143 9t-132.5 -2.5q-254 -14 -522 -74q-132 -135 -350 -452q183 19 330 19q119 0 242.5 -14t242 -44t211.5 -71.5t149.5 -102.5t56.5 -131q0 -63 -54.5 -139.5t-136.5 -145.5t-179.5 -134t-183 -110.5 t-146.5 -69.5q-346 -134 -638 -211.5t-562 -77.5q-54 0 -104.5 7.5t-97 23.5t-74.5 46.5t-28 71.5zM546 1328q13 -2 76 -12l42 52q-64 -19 -118 -40z" />
<glyph unicode="6" horiz-adv-x="1827" d="M-288 431q0 31 54.5 71.5t145.5 81t186.5 76t198.5 67.5q62 53 127.5 106t135.5 105t114.5 85t115 83.5t86.5 62.5q150 109 339 227t284 144q14 0 41.5 -26.5t27.5 -38.5q-28 -5 -114.5 -83.5t-119.5 -122.5q-4 -4 -6 -4q-6 0 -11.5 9t-5.5 17q0 4 1 6q16 31 62 99 q-188 -113 -360 -241q-344 -253 -477 -360q192 45 320 63t346 32q24 -1 68 1t101.5 -5.5t118.5 -16.5t119.5 -31t105 -50t75 -72.5t28.5 -99.5q0 -47 -39 -110.5t-98 -123.5t-113 -107t-99 -79q-307 -218 -652.5 -351t-673.5 -133q-182 0 -286 75.5t-104 176.5 q0 276 468 696q-187 -67 -327.5 -135.5t-159.5 -115.5q-5 -11 -17 6q-6 9 -6 16zM-122 -34q0 -199 332 -199q162 0 385.5 61.5t458 175.5t401.5 252q101 83 163 173.5t62 174.5q0 57 -26 100.5t-69 68t-99 41.5t-116.5 21.5t-121 6.5t-112.5 -4q-323 -17 -629 -88l-37 -9 q-592 -492 -592 -775z" />
<glyph unicode="7" horiz-adv-x="1620" d="M5 655q9 4 84 32.5t146.5 59.5t102.5 54q12 -3 12 -10q0 -13 -44.5 -49t-66.5 -48q249 44 724 83q73 77 140 137q44 39 140.5 127t153 137.5t140.5 119t164 124.5t163 101q-240 -50 -736.5 -110t-723.5 -64q-14 7 -34 31t-32 47t-4 26q90 -8 219 6.5t174 62.5q3 3 10 3 q13 0 13 -11q0 -26 -65 -78q97 2 185 7q617 40 1092 140q13 2 46 -28.5t34 -49.5q-43 -16 -90 -39.5t-99.5 -58t-97.5 -65t-105.5 -79.5t-99.5 -80.5t-104 -88.5t-95.5 -84t-96.5 -86.5t-86 -77.5q-4 -4 -60 -57q204 15 461.5 4t396.5 -46q145 -36 145 -93q0 -40 -60.5 -81 t-119.5 -59q-22 -7 -25 3.5t17 22.5q134 76 136 116q1 16 -25 29.5t-83 28.5q-129 35 -380 35q-217 1 -471 -23l-59 -6q-154 -162 -338 -388t-290 -384q184 190 255 190q30 0 30 -8q0 -3 -4 -4q-45 -14 -100 -62t-112 -121.5t-94 -126.5t-82 -123q-12 -22 -52 20 q-39 42 -43 71v5q1 57 114 221t266.5 349t304.5 347q-395 -40 -671 -108q-11 -2 -50 -13t-73.5 -19.5t-47.5 -8.5q-15 15 -37 52.5t-12 45.5z" />
<glyph unicode="8" horiz-adv-x="1658" d="M-319 -52q0 239 906 784l7.5 4.5t6.5 4t7 4.5q27 16 232 139q-166 173 -166 272q0 37 56 76t99 37q20 -1 41 -9t32.5 -16.5t10.5 -12.5q0 -9 -27 -7q-31 2 -44.5 2t-32.5 -2t-26.5 -9.5t-8.5 -20.5q-5 -90 158 -254q248 151 467 304q67 47 133.5 118t66.5 108 q0 32 -57 49t-135 17q-145 0 -319 -38t-255 -68q-47 -17 -93 -37.5t-118 -56.5t-116.5 -77.5t-44.5 -78.5q0 -40 52 -99q4 -4 4 -8q0 -3 -7 -3q-31 0 -65.5 34.5t-34.5 79.5q0 40 45 86t112.5 83.5t126.5 64.5t105 43q173 60 368 95t342 35q82 0 138 -8q39 -6 71.5 -32.5 t32.5 -59.5q0 -75 -318 -288q-189 -129 -466 -296q14 -13 57 -53.5t62 -58.5t60 -58.5t62 -63t55.5 -61t53 -64.5t42 -61.5t35.5 -63.5t20.5 -59t8.5 -59q0 -92 -48 -175t-128 -146t-186.5 -116t-222.5 -89t-235.5 -61t-226 -36.5t-195.5 -11.5q-130 0 -243.5 33.5t-185 98 t-71.5 146.5zM-171 -74q0 -208 405 -208q102 0 236.5 21.5t283.5 67.5t274 109.5t206.5 157.5t81.5 200q0 55 -36.5 123.5t-104.5 145.5t-127.5 137.5t-142.5 139.5q-22 20 -32 30l-235 -141q-73 -44 -143.5 -90t-170.5 -115t-181.5 -139t-155.5 -145.5t-116 -152 t-42 -141.5z" />
<glyph unicode="9" horiz-adv-x="1842" d="M-298 -81q0 53 37.5 101.5t90.5 79t104.5 49t85.5 19.5q9 -3 9 -9q0 -1 -28.5 -12.5t-69 -32.5t-81 -48.5t-69 -66.5t-28.5 -79q0 -78 100.5 -125t257.5 -47q138 0 285 33.5t296 101.5t291.5 165t275 231t243.5 291.5t199.5 354.5t140.5 414q-128 -160 -330 -324 t-408.5 -286.5t-405 -200t-322.5 -77.5q-81 0 -147.5 48t-66.5 135q0 103 96 237t247.5 259t323.5 232.5t340.5 172.5t280.5 65q81 0 126.5 -40.5t45.5 -98.5q0 -42 -23 -89t-53 -81t-59 -56.5t-42 -22.5q-8 0 -8 9q0 4 22 25t49 48t49 70.5t22 87.5q0 34 -30.5 52t-70.5 18 q-72 0 -189.5 -43t-248 -112.5t-263.5 -162t-239.5 -188t-173.5 -195t-67 -177.5q0 -69 37.5 -95t116.5 -26q112 0 323.5 97t425.5 236t404 305t262 291l3 12q8 9 56 -4.5t57 -33.5q-55 -274 -160 -515.5t-244.5 -427t-307.5 -333.5t-353 -246t-376.5 -153t-382.5 -64 q-15 -1 -42 -1q-185 0 -299.5 70.5t-114.5 162.5z" />
<glyph unicode=":" horiz-adv-x="748" d="M85 50q4 18 34.5 80t63.5 119q25 10 67.5 -23.5t34.5 -49.5q-27 -32 -72 -95.5t-64 -104.5q-20 -3 -41.5 25t-22.5 49zM307 476q7 33 98 200q25 10 67.5 -24t35.5 -50q-28 -33 -72.5 -96t-64.5 -104q-20 -3 -41.5 25t-22.5 49z" />
<glyph unicode=";" horiz-adv-x="717" d="M-415 -521q0 7 5 5q18 -6 32 -6q58 0 151 73.5t159 148.5q38 43 77 92q178 220 209 347q11 10 59.5 -16.5t50.5 -43.5q0 -24 -75.5 -117.5t-183.5 -203.5q-22 -22 -61.5 -59.5t-54.5 -52.5q-59 -59 -160 -131t-162 -73q-20 0 -31 8q-16 11 -15 29zM295 364q29 38 69 109 t55 107q11 14 58 -10.5t48 -51.5q-107 -155 -139 -180q-16 -10 -51 -2t-40 28z" />
<glyph unicode="&#x3c;" horiz-adv-x="2258" d="M111 104q-7 9 47.5 71t74.5 69q79 12 173 36.5t156.5 44.5t178.5 59q459 153 825.5 293.5t648.5 290.5q88 47 126 76q6 -9 2.5 -44t-6.5 -43q-52 -31 -114.5 -86t-92.5 -94q-6 -7 -12 11q-3 8 -3 13q-1 17 27 73q-316 -150 -485 -220q-54 -23 -193 -82t-205.5 -87 t-189.5 -77.5t-207 -80t-193 -66.5t-208 -63q319 -41 879 -155q253 -50 253 -131q0 -15 -73.5 -51t-89.5 -36q-5 0 -5 5q0 9 41 39.5t41 47.5q0 10 -10 19t-22 13q-126 50 -431 94q-137 20 -240 30.5t-171 15t-242 13.5q-215 11 -280 2z" />
<glyph unicode="=" horiz-adv-x="1532" d="M101 290q37 8 146.5 23.5t157.5 19.5q331 28 594 5q32 -3 73 -9t105 -19t104.5 -36.5t38.5 -52.5q-1 -16 -13 -25t-24 -8q-14 2 -12 14q0 1 2 3t4 6.5t3 11.5q1 16 -46.5 31.5t-108.5 25t-121 13.5q-194 15 -485 -14q-67 -6 -194.5 -32t-205.5 -49q-10 6 -16.5 43.5 t-1.5 48.5zM395.5 564.5q0.5 21.5 5.5 22.5q50 10 140 18q146 35 209 77q19 12 23 12q2 0 2 -3q0 -10 -25.5 -33.5t-51.5 -41.5q118 5 215 5q196 -2 279 -23q72 -18 72 -53q0 -26 -51.5 -65t-78.5 -39q-8 0 -8 7q0 4 20.5 17t41 32t20.5 37q0 14 -20 22.5t-61.5 12 t-74.5 4.5t-89 1q-110 0 -295 -24t-264 -47q-3 -1 -6 19.5t-2.5 42z" />
<glyph unicode="&#x3e;" horiz-adv-x="2087" d="M-188 -251q-7 28 70.5 79.5t208.5 111t290 120.5t321 114q772 253 990 287q-295 72 -928 299q-200 73 -211 99q0 11 15.5 27t28.5 22q220 -33 270 -22q7 0 5 -9q-4 -8 -15 -12q-39 -13 -143 -28q54 -24 89 -37q172 -65 429 -132t419.5 -101.5t299.5 -59.5 q18 -11 -10.5 -61.5t-47.5 -53.5q-599 -97 -1086 -246q-411 -125 -677 -243q-218 -98 -218 -148q0 -7 2.5 -13.5t8.5 -11.5t10.5 -9t14.5 -8.5t14 -6t15 -6t12 -4.5q26 -10 26 -16q0 -5 -17 -5q-56 0 -121 21.5t-65 52.5z" />
<glyph unicode="?" horiz-adv-x="1790" d="M351 925q0 61 65 136t171.5 146.5t247.5 137.5t286.5 112t296.5 67.5t271 6.5q57 -7 118.5 -30.5t112 -70.5t50.5 -104q0 -50 -31 -118t-58.5 -108.5t-53.5 -71.5q-31 -37 -70.5 -79.5t-87 -90t-90 -89.5t-98.5 -94t-93.5 -87.5t-94 -86.5t-81 -73t-73.5 -65.5t-53 -47.5 q17 0 52.5 -7.5t37.5 -16.5q0 -2 -1 -3q-43 -10 -114 -60.5t-97 -76.5q-12 8 -51 45.5t-42 47.5q8 25 110.5 115.5t234 197t292.5 250t261 252.5q160 175 160 267q0 104 -191 128q-114 14 -259.5 -8t-286.5 -68t-278.5 -110.5t-241 -133t-167 -137.5t-63.5 -121 q0 -25 24.5 -37t74.5 -18q37 -4 37 -8t-12 -10t-33 -10t-41 -1q-42 5 -91.5 50t-49.5 83zM519 -336q-2 16 13.5 57t37.5 77q42 67 86.5 122t62.5 57q22 1 59.5 -32t36.5 -51q-24 -2 -77.5 -42.5t-108.5 -105.5q-30 -35 -47.5 -64t-20 -45t4.5 -23q-2 -13 -24 9 q-21 23 -23 41z" />
<glyph unicode="@" horiz-adv-x="2704" d="M-150 -473q0 139 71 308.5t154 287.5q180 253 435 497t512 398q155 94 283 161t289 134.5t325.5 103t324.5 35.5q213 0 345 -93.5t132 -247.5q0 -79 -48.5 -181t-127.5 -202.5t-163 -189t-169 -162.5q-183 -159 -377 -276t-310 -117q-39 0 -83 45t-44 84q0 85 141 309 q-30 -27 -126 -120t-173 -165t-161 -135t-122 -64q-15 0 -52.5 43.5t-38.5 62.5q0 65 77.5 175.5t183 213t222.5 178.5t189 78q24 2 61 -29.5t45 -60.5q13 4 54.5 -29t37.5 -41q-59 -71 -152 -230.5t-93 -213.5q0 -45 51 -45q92 0 269.5 108t360.5 259q87 72 171.5 160.5 t158.5 185t120 195.5t46 176q0 82 -52 143.5t-134 91.5t-179 30q-149 0 -307 -35t-315 -100.5t-294.5 -138t-293.5 -168.5q-265 -164 -518 -401.5t-420 -487.5q-27 -40 -56 -91.5t-66 -129t-60.5 -166.5t-23.5 -167q0 -69 29 -125.5t74.5 -92t103.5 -60t112 -34.5t104 -10 q265 0 550 81.5t603 218.5q145 63 326 156.5t380.5 222t281.5 224.5q3 3 9 0t9 -9.5t0 -10.5q-29 -55 -116 -127t-191 -137t-239.5 -139t-233.5 -122.5t-200 -96.5q-285 -134 -593.5 -226.5t-553.5 -92.5q-78 0 -155 15t-149.5 47t-128 78.5t-89 114.5t-33.5 149zM953 -5v-2 q86 7 605 511q32 43 31 78q0 11 -8 17t-16 6q-60 -4 -144.5 -62t-163.5 -140.5t-149.5 -168.5t-113 -153t-41.5 -86z" />
<glyph unicode="A" d="M20 -326q10 44 97.5 145t175 181.5t102.5 80.5q7 0 11 -4.5t3.5 -8.5t-1.5 -6q-25 -20 -82 -77t-127.5 -146t-96.5 -153q91 16 203.5 67.5t243 137t254.5 177t281 215.5q156 124 478 394q-569 -86 -1075 -204q-15 9 -27 55q-10 37 -11 56q0 5 1 8q194 44 314 81 q69 21 181 77q1 1 2.5 -0.5t1.5 -3.5q0 -14 -44.5 -50.5t-72.5 -53.5l-23 -13q279 51 832 114q516 433 703 577q298 229 377 230q9 0 38.5 -29.5t33.5 -44.5q-115 -221 -277 -662h79q80 -1 157.5 -12.5t149.5 -42t95 -74.5q13 -25 -1 -54t-40 -51q9 23 9 44q0 29 -18 53 q-23 31 -65 50.5t-103 27.5t-101 10.5t-107 3.5h-72q-117 -319 -198.5 -609t-94.5 -465q80 181 185 289q6 6 9 -8q1 -6 0 -14q-22 -29 -104 -208.5t-109 -292.5q-23 2 -70 30t-49 48q-2 21 -2 45q0 148 78 442q91 342 241 740q-103 -6 -258 -20q-185 -17 -453 -53 q-491 -425 -525 -455q-345 -301 -628.5 -497t-408.5 -196q-39 0 -68 49q-25 42 -25 70q0 5 1 10zM1745 754q164 18 347 35q159 14 309 21q151 398 293 677q-94 -1 -949 -733z" />
<glyph unicode="B" horiz-adv-x="2703" d="M-247 -414q13 29 47.5 58t71.5 49.5t93 43.5t89 34.5t84 28.5q4 0 8.5 -5t4.5 -9q-304 -138 -307 -188q34 -42 158 -55q67 -7 146 -7q66 0 140 5q160 11 344 36t334.5 52.5t258.5 52.5q355 83 621.5 183t415 209t148.5 211q0 79 -102.5 155.5t-263.5 133t-348.5 96 t-366.5 54.5q-283 -388 -426 -644q129 127 200 127q21 0 38 -5.5t24 -11.5t7 -11q0 -1 -1 -2q-30 7 -36 7q-41 0 -95 -44.5t-103 -109.5t-86.5 -124t-59.5 -103q-13 12 -41 49.5t-28 50.5q0 51 146.5 291t352.5 536q-55 2 -118 2q-47 0 -99 -1q-2 -1 -6.5 12t-7 30.5 t-0.5 26.5q61 7 119 7q80 0 160 -7q185 261 333 448q-37 -14 -63.5 -14t-42.5 14q-4 4 0 4q37 0 95 36.5t121 98.5q18 17 50 53t46 49q-201 31 -422 31q-112 0 -204.5 -8.5t-168 -36t-75.5 -71.5q0 -19 11 -37t22 -27t38 -27t37 -26q1 -1 1 -2q0 -5 -14 -5q-61 15 -108 55.5 t-47 83.5q0 45 55.5 77t145.5 46.5t169.5 20.5t159.5 6q195 0 438 -35q50 65 64 87q40 -39 68 -88q-6 -8 -14 -18q118 -21 218 -48.5t182 -62.5t129 -78.5t47 -91.5q0 -51 -49.5 -100.5t-138.5 -92t-196 -80.5t-239.5 -71.5t-250.5 -59t-246 -48.5q193 -28 395 -80.5 t371 -117.5t276.5 -142t107.5 -146q0 -105 -188.5 -232t-493.5 -241.5t-658 -195.5q-198 -46 -414.5 -87t-435 -72.5t-368.5 -37.5q-29 -1 -54 -1q-107 0 -160 20q-27 16 -42 62q-8 26 -8 46q0 16 5 29zM1397 817q171 35 334 79.5t312.5 99t241 117.5t91.5 122 q0 65 -120.5 127.5t-318.5 103.5q-84 -78 -231 -255t-309 -394z" />
<glyph unicode="C" horiz-adv-x="2434" d="M33 -224q0 271 353 663q191 212 422.5 406t481.5 350q219 137 478 236.5t439 99.5q105 0 175.5 -59.5t77.5 -155.5q39 47 88 98q88 90 180.5 143.5t166.5 53.5q25 0 46 -14.5t21 -27.5q0 -7 -8 -7q-2 0 -5.5 4t-14 8.5t-29.5 4.5q-87 0 -187.5 -85.5t-182 -211 t-145.5 -262t-91 -245.5l-97 77q14 71 68 176.5t131 211.5q14 39 14 69q-1 75 -47 114.5t-111 39.5q-180 0 -440 -111t-493 -262q-244 -158 -468.5 -351t-388.5 -389q-36 -43 -79.5 -104t-99.5 -150.5t-93 -185.5t-37 -168q0 -206 284 -206q170 0 435.5 65t532.5 162.5 t505.5 200.5t397.5 188q12 6 22 2.5t9 -11.5q0 -8 -14 -17q-205 -127 -552.5 -275t-735 -259.5t-623.5 -111.5q-98 0 -186 37t-144 106t-56 153z" />
<glyph unicode="D" horiz-adv-x="2693" d="M-330 -384q9 25 30.5 50.5t56.5 50t64 42.5t77 41t70.5 33t66.5 29h4q10 0 10 -13q0 -2 -1 -3q-287 -156 -287 -211q0 -19 29 -32.5t74.5 -18.5t79 -7t63.5 -2q188 1 456.5 49t561.5 144q115 296 397.5 759.5t545.5 811.5q-454 165 -797 165h-4q50 -25 85 -69 q7 -13 2 -22t-12 -11q-36 27 -132.5 45.5t-175 26t-78.5 9.5q0 12 42.5 48t61.5 41q21 4 52 3q37 0 57 -2q268 -23 484 -64t452 -120q236 307 304 307q16 0 50 -47.5t34 -65.5q-27 -18 -88 -110.5t-90 -159.5q70 -27 142 -61.5t159.5 -87.5t153.5 -108.5t111 -126t45 -138.5 q0 -106 -98.5 -224.5t-262.5 -228t-387 -219.5t-462.5 -203t-498.5 -176q-71 -170 -71 -249q0 -11 8.5 -18t18.5 -7q27 0 48 6t32 12.5t14 6.5q8 0 8 -6q1 -15 -39 -43q-38 -27 -63 -26h-2q-26 2 -67 44.5t-41 71.5q0 61 38 172q-358 -109 -671 -172.5t-494 -63.5 q-75 0 -110 16q-26 12 -46 56q-13 29 -14 53q0 12 4 23zM1147 -190q230 81 449 175t416.5 198.5t345.5 206.5t235.5 203.5t87.5 185.5q0 282 -615 524q-232 -297 -504.5 -738t-414.5 -755zM2106 1354l82 -30q17 70 102 230q-78 -68 -184 -200z" />
<glyph unicode="E" horiz-adv-x="2243" d="M142 643q19 5 107 26t146 36t128.5 36t103.5 37q-14 -36 -38 -80q306 57 486 83q115 123 243 249q-10 -4 -12 -4q-16 7 -26.5 19.5t-10.5 19.5q52 1 147.5 91.5t133.5 147.5h3q15 0 62 -37q52 -41 52 -64q-178 -128 -435 -401q253 30 445 30q89 0 168 -6.5t151 -21.5 t114 -43.5t42 -67.5q0 -41 -43 -84q5 22 5 47q0 31 -23 54t-67 37t-89 23t-109.5 12.5t-105.5 4.5t-98 1q-163 0 -436 -35q-306 -332 -545.5 -668.5t-239.5 -453.5q0 -20 25 -39.5t59 -19.5q37 0 230 43t420.5 95t513 95t485.5 43q430 0 430 -136q0 -65 -60.5 -135.5 t-88.5 -70.5q-9 0 -9 7t22 29.5t44 53.5t22 59q0 60 -75.5 89.5t-228.5 36.5q-84 4 -127 4q-206 0 -441 -31t-428.5 -75t-359.5 -88t-279.5 -75t-142.5 -31q-36 0 -91.5 66t-55.5 111q0 97 213.5 401t548.5 666q-205 -34 -432 -81q-95 -19 -135 -28t-114.5 -30t-131.5 -46 q-9 1 -42 43t-30 56zM925 1439q0 9 4 9q3 0 11.5 -0.5t13.5 -0.5q104 0 732.5 52t907.5 52q280 0 447.5 -42.5t167.5 -130.5q0 -49 -73.5 -112t-120.5 -63q-4 0 -4 5q0 1 33.5 28t66.5 65.5t33 67.5q0 20 -15.5 38.5t-56 36.5t-103 31t-164.5 21t-232 8q-286 0 -666 -46 t-650.5 -91.5t-291.5 -45.5q-8 0 -24 45t-16 73z" />
<glyph unicode="F" horiz-adv-x="1906" d="M59 560h9q78 0 270 80q203 84 297 142q1 1 5.5 -1.5t4.5 -4.5q0 -13 -56.5 -61t-108.5 -87q347 63 718 99q269 414 527 723q-338 -29 -683 -99q25 -13 36 -24.5t3 -25.5q-34 7 -76 7q-82 0 -196 -24q-173 -36 -269 -77q-14 15 -33 49t-19 53q0 7 4 11q486 132 1219 178 q54 29 109.5 75.5t84.5 77.5q7 -1 42 -43.5t35 -59.5q-12 0 -50 -38q96 4 172 4h42h61q867 0 867 -196q0 -58 -75.5 -116t-109.5 -58q-5 0 -5 4q0 6 36 34t72.5 65t36.5 66q0 38 -66.5 68t-159.5 47t-205 28t-190.5 14.5t-128.5 3.5q-187 0 -395 -13q-105 -111 -256 -305.5 t-298 -416.5q206 16 346 16q90 0 171.5 -8.5t152 -25.5t112.5 -47.5t42 -71.5t-45 -86q6 28 6 48q0 145 -460 145q-154 0 -357 -18q-171 -272 -281 -457q-344 -582 -344 -743q0 -11 8.5 -18t18.5 -7q33 0 84 34.5t93.5 76.5t76.5 76.5t37 34.5q8 0 8 -7q0 -27 -54.5 -90.5 t-128.5 -119t-119 -55.5q-35 0 -79 41t-44 71q0 173 343 746q81 135 247 402q-511 -64 -1062 -221q-4 -1 -9.5 -3.5t-7.5 -2.5q-10 10 -20 50t-6 61z" />
<glyph unicode="G" horiz-adv-x="2552" d="M34 -78q0 323 580 851q139 127 327.5 260.5t386.5 246.5t390.5 185.5t321.5 72.5q71 0 144.5 -56t82.5 -107q17 22 46 56q102 118 205 191.5t187 73.5q26 0 46.5 -14t20.5 -28q0 -4 -5 -4q-1 0 -7.5 5t-17.5 9.5t-23 4.5h-1q-156 0 -344 -276q-83 -121 -140 -247 q-52 -117 -52 -163v-8l-98 77q6 70 104 215q30 65 30 92q0 48 -29.5 69.5t-95.5 21.5q-141 0 -335 -72.5t-385 -186.5t-364 -240.5t-304 -246.5q-62 -56 -109 -102t-120 -121.5t-126.5 -145t-105 -149.5t-79 -160t-27.5 -152q0 -48 21 -81t58 -49t77 -22q31 -4 65 -4h24 q230 8 584 149q267 107 532.5 251t578.5 337q155 96 273 181q17 20 72 88t89.5 105.5t51.5 42.5q11 0 44 -32t31 -45q-36 -29 -99 -104q-137 -160 -297 -394q-159 -231 -263.5 -403t-217.5 -396q-45 -89 -82 -175q36 17 81 22q-37 -20 -79.5 -98t-68 -156.5t-24.5 -110.5 q-3 -1 -7 -1q-18 0 -56 25q-47 29 -47 49q0 52 63.5 204t123.5 267q150 288 284 511t308 471q-61 -40 -152 -93q-33 -20 -174.5 -104t-192.5 -114t-174 -99.5t-197.5 -107t-179 -86t-198.5 -85.5q-404 -159 -605 -159q-68 0 -128.5 14.5t-111.5 44.5t-81 82.5t-30 122.5z M1341 783q251 63 428 93q238 40 410.5 54.5t404.5 14.5q61 0 122 -4t136 -14.5t122 -35t47 -60.5q0 -38 -49.5 -80t-77.5 -42q-9 0 -9 5q0 2 12.5 11.5t28 21.5t28 32t12.5 42t-43 38t-111 23.5t-121.5 10t-104.5 3.5h-26q-258 0 -595 -56q16 -16 24.5 -33t1.5 -21 q-29 5 -71 5q-167 0 -537 -82q-11 11 -25 38.5t-7 35.5z" />
<glyph unicode="H" horiz-adv-x="2511" d="M19 545q412 119 1059 191q182 279 332 483q-85 -62 -145 -88q-15 -6 -25 -6q-9 0 -13.5 3.5t-2.5 8.5q87 48 208 160t208 221q22 -3 50.5 -34t32.5 -54q-239 -269 -511 -680q60 6 199 19q489 41 784 41h14q159 250 319.5 475t235.5 293q8 1 37.5 -37.5t30.5 -53.5 q-11 -14 -39.5 -91.5t-32.5 -112.5q-11 1 -31.5 26t-21.5 37q-132 -169 -379 -538q62 -2 92 -4q407 -19 407 -131q0 -20 -8.5 -38t-17.5 -27.5t-19 -17.5l-10 -8q1 3 3.5 8l3.5 7t2.5 6t2 7t1.5 7.5t1 9t0.5 10.5t0.5 14q0 93 -353 109q-47 2 -135 4q-74 -114 -90 -141 q-142 -235 -278.5 -506t-203.5 -458q110 120 218 211t163 91q20 0 35.5 -4t22.5 -9.5t7 -10.5v-3q-18 5 -33 5q-52 0 -152 -93q-220 -202 -309 -400q-15 2 -53 39.5t-38 51.5q7 60 53 189q60 170 210.5 460.5t287.5 511.5l42 67q-299 -2 -765 -46q-133 -13 -244 -27 l-127 -197q-213 -334 -427 -756q17 -5 30.5 -16.5t15.5 -17.5v-1q-27 -2 -61 -48.5t-65 -117t-48 -113.5t-30 -80q-17 -9 -52.5 29.5t-42.5 61.5q1 74 205 449t365 628l102 160q-325 -46 -568 -110q13 1 25 1q48 0 79 -10q25 -9 29 -25q3 -12 -11 -12h-2q-26 3 -57 3 q-139 0 -375 -56q-66 -16 -92 -22q-14 5 -32.5 46t-13.5 57z" />
<glyph unicode="I" horiz-adv-x="2226" d="M-120 -387q0 11 1 15q473 162 557 229q3 3 8 3q10 0 10 -12q0 -6 -7.5 -17t-22.5 -26t-27 -26.5t-32.5 -29.5t-27.5 -25q372 77 779.5 132.5t735.5 55.5q141 0 272.5 -13t245.5 -38.5t182.5 -71t68.5 -103.5q0 -49 -88.5 -124t-121.5 -75q-10 0 -10 11q0 2 33.5 25.5 t67 58t33.5 62.5q0 94 -198 156.5t-530 62.5q-162 0 -368.5 -18.5t-456 -56.5t-532.5 -108.5t-541 -162.5q-14 5 -22.5 37t-8.5 59zM936 1345q199 59 527 98t656 54q43 44 49 52q16 0 48 -43l4 -6q144 4 193 4q314 0 549 -38q26 -5 55.5 -12.5t67 -22t61.5 -36.5t24 -48 q0 -40 -59.5 -89t-127 -80t-99.5 -31q-14 0 -14 11q0 3 37 22t81.5 42.5t81.5 57.5t37 63q0 35 -77 60t-199 36.5t-231.5 16.5t-213.5 5q-43 0 -141 -4q3 -8 4 -18q-35 -12 -85 -71.5t-86.5 -127.5t-36.5 -103q0 -17 19 -40q0 -3 -8 -3t-18.5 6t-22 27t-11.5 52q0 9 1 14 q-148 -182 -293 -397q-141 -209 -263.5 -432t-122.5 -305q0 -11 5 -21t10.5 -16t5.5 -7q-2 -6 -13 -6q-24 0 -61.5 44t-37.5 69q0 150 355 686q266 403 487 640q-324 -24 -639 -77q44 -3 63 -17q3 -3 3 -10q0 -14 -7 -14q-5 0 -20 2.5t-25 2.5q-91 0 -259 -38t-216 -65 q-14 14 -25.5 52.5t-11.5 60.5z" />
<glyph unicode="J" horiz-adv-x="2462" d="M59 -202q0 89 52 183.5t140 179.5t206 166.5t247 148.5t267 122q357 142 734 211t662 72q175 296 232 597q0 3 1 5q-600 -36 -1291 -203q-85 -22 -188 -54q-54 -25 -105.5 -42.5t-68.5 -19.5q-23 16 -57.5 49t-34.5 52q0 4 3 7q16 -4 31 -4q85 0 241.5 56.5t172.5 94.5 l4 33q7 0 15 -9.5t8 -26.5q0 -29 -21 -58q617 126 1122 162q29 29 73.5 55.5t74.5 26.5q58 0 100 -69q105 3 209 3q81 0 122 -1q36 -1 87 -4t127.5 -10.5t148 -22t135.5 -33.5t103 -49t39 -66q0 -92 -166 -161q-23 -9 -88 -30q-7 0 -7 5q0 4 50 33.5t100 72t50 78.5 q0 35 -72 64.5t-173 45.5t-182 24.5t-124 9.5q-51 1 -101 1q-119 0 -238 -5q9 -27 9 -53q-63 -280 -218 -558q177 -12 274 -60.5t97 -107.5q0 -34 -38.5 -72.5t-52.5 -38.5q-6 0 -6 5q1 4 20.5 37.5t19.5 51.5q0 52 -84 90.5t-258 44.5q-195 -330 -494.5 -614t-649.5 -479 q-212 -117 -423.5 -191.5t-380.5 -74.5q-59 0 -120.5 11.5t-122 38t-107.5 63.5t-76 93.5t-29 123.5zM138 -209q0 -60 26.5 -104t73 -68t101.5 -35t120 -11q339 0 826 276q316 180 590.5 432.5t458.5 545.5q-291 -8 -645 -78.5t-689 -206.5q-173 -70 -323.5 -154 t-273.5 -180.5t-194 -204.5t-71 -212zM2481 1523l120 6q-5 31 -33 34q-37 0 -87 -40z" />
<glyph unicode="K" horiz-adv-x="1836" d="M24 -393q19 44 44 95.5t60.5 118.5t63 118t77 137.5t75.5 132.5t85.5 146.5t80 136t86 145.5t78.5 132q43 73 274 437q-91 -75 -155 -104q-17 -7 -24 -7q-16 0 -19 17q82 48 192.5 160t186.5 221q16 -3 49 -31t34 -43q-666 -988 -954 -1575q349 449 791 829q17 48 31 119 t14 104q0 9 -1 12q3 10 46 10q42 0 52 -11q2 -4 2 -5q0 -3 -2 -11q3 -47 12 -90q346 281 759 526q159 94 363.5 178.5t303.5 84.5q133 0 133 -120q0 -45 -22 -95t-46 -79.5t-35 -29.5q-6 0 -6 7q0 8 14.5 33.5t28.5 64t14 76.5q0 86 -89 86q-94 0 -261 -72t-320 -158 q-404 -230 -790 -540l-30 -25q5 -18 10 -32q160 -462 423 -894q43 -71 79.5 -126.5t93 -130.5t106 -125t108.5 -85.5t110 -35.5q41 0 71 34t30 101q0 5 -0.5 15.5t-0.5 16.5q0 24 9 24t15.5 -32t6.5 -55q0 -43 -16.5 -77.5t-40.5 -54t-53 -33t-51 -18t-38 -4.5 q-50 0 -109 34.5t-112 87t-110 125.5t-100 139t-86 138q-237 398 -432 916q-320 -271 -594 -590q-137 -159 -228.5 -278t-185.5 -274q-21 0 -61 35t-40 48z" />
<glyph unicode="L" horiz-adv-x="1853" d="M28 -338q0 67 147 288t300 417t262 324q211 246 449 494q-24 0 -49 12.5t-25 26.5q0 3 1 5q10 -2 29 -2q54 0 109 26q137 140 283 281q5 6 23.5 32t27.5 36q19 0 63 -42t44 -55q-156 -161 -287 -242q-262 -252 -589 -647q-87 -105 -188 -237t-214 -290t-187 -293 t-74 -197q0 -11 17 -24.5t26 -13.5q165 52 349 100.5t409 96t467.5 76t454.5 28.5q532 0 532 -183q0 -33 -19 -70.5t-45 -65t-51.5 -46t-38.5 -18.5q-8 0 -8 7q0 1 25 22t49.5 54.5t24.5 65.5q0 34 -26.5 64t-84 57t-165.5 42.5t-255 15.5q-368 0 -899 -108.5t-740 -213.5 q-5 -3 -10 -3q-35 0 -86 68t-51 112z" />
<glyph unicode="M" horiz-adv-x="3072" d="M-103 -278q0 94 241 341q3 3 5 3q4 0 8 -3.5t4 -7.5q0 -1 -0.5 -1t-0.5 -1q-89 -111 -138.5 -195t-49.5 -109q0 -16 35 -16q73 0 255.5 103t421.5 277.5t489 381.5t485.5 439.5t383.5 426.5l12 27q-30 -1 -79.5 -4.5t-58.5 -3.5q-241 -19 -522 -66.5t-502.5 -116.5 t-221.5 -132q0 -21 21.5 -33.5t43 -17t21.5 -6.5q0 -9 -28 -9q-48 0 -86.5 25t-38.5 49q0 48 88.5 100t220.5 93q230 71 565.5 112.5t592.5 46.5l45 98q2 1 5 1q19 0 55.5 -35.5t40.5 -50.5l-11 -18q30 -4 43 -7q44 -13 47 -38q-41 10 -110 13q-107 -190 -260.5 -581 t-180.5 -591q86 100 238.5 258.5t347 343t380 344.5t346.5 267t237 107q36 0 62 -26t34.5 -51.5t8.5 -42.5q0 -51 -107.5 -268t-244 -466.5t-281 -534t-201.5 -435.5q88 97 179 164.5t156 67.5q23 0 34.5 -7t11.5 -15q0 -1 -1 -2q-7 2 -19 2q-46 -1 -111.5 -50 t-130.5 -123.5t-124 -156.5t-101 -156q-12 0 -42.5 33t-30.5 48q0 93 94 310t227.5 467.5t267.5 494t228 431t94 237.5q0 21 -18 21q-65 0 -226.5 -112.5t-355.5 -284.5t-388.5 -361t-348 -359t-211.5 -261l4 -4q-51 0 -94.5 41.5t-43.5 68.5q0 181 352 983 q-195 -230 -591 -597q-280 -261 -557 -485t-502 -366.5t-319 -142.5q-2 0 -5 0.5t-4 0.5q-16 2 -50.5 49t-34.5 74z" />
<glyph unicode="N" horiz-adv-x="2611" d="M104 -389q0 33 17.5 77.5t55.5 103.5t56.5 86t61.5 85q3 3 6 3q12 0 14 -9q0 -1 -0.5 -1t-0.5 -1q-70 -115 -107 -202t-37 -118q0 -18 31 -18q56 0 182 83t286.5 219.5t348.5 322t364 380.5t338.5 406t266.5 388l3 11q-151 -3 -364.5 -25.5t-432.5 -60.5t-371.5 -98.5 t-152.5 -128.5q0 -30 42.5 -60t85.5 -48t43 -20q-1 -4 -9 -7l-13 2q-13 2 -33.5 7t-45.5 11.5t-49.5 17.5t-45 24t-33.5 31.5t-13 39.5q0 68 103 129t263.5 103t351 73t369.5 45q156 12 280 11h36q3 13 24 86q2 1 5 1q19 0 59.5 -33.5t46.5 -48.5l-6 -13l11 -3l29 -44 q-5 1 -24.5 3.5t-31.5 3.5q-75 -198 -124 -615t-49 -755q0 -96 5 -184q84 151 235 380t329 467q129 173 270.5 343t284.5 325t264.5 251t184.5 96q37 0 57 -29.5t20 -69.5q0 -54 -26 -131.5t-45 -77.5q-2 0 -5 5q0 3 2 9q26 66 26 121q0 96 -52 96q-57 0 -174 -99.5 t-257.5 -258t-274.5 -325t-254 -329.5q-83 -113 -164 -228.5t-177.5 -261.5t-155.5 -261.5t-59 -166.5q0 -19 13 -31q-51 0 -98.5 39.5t-54.5 67.5q-14 62 -14 220q0 245 34 588t99 656q-158 -243 -501 -653q-244 -291 -487 -542t-448 -416.5t-299 -174.5h-9q-24 0 -65 53 t-41 78z" />
<glyph unicode="O" horiz-adv-x="2832" d="M65 225q0 90 48 194.5t116.5 193t158 178.5t158 148t130.5 104q343 255 787 419t837 164q180 0 320.5 -41t226.5 -113t130 -164t44 -200q0 -118 -45.5 -245t-125 -244t-176.5 -228t-210.5 -211.5t-215 -179t-202.5 -145.5q-97 -64 -218.5 -130t-265 -130.5t-294 -105 t-268.5 -40.5q-142 0 -250 87.5t-108 212.5q0 137 75.5 300.5t199.5 316t271.5 289t301.5 240.5q-32 -4 -57 -4q-44 0 -64 12q-12 7 -11 22q1 10 10 6q8 -4 23 -5q75 0 335 104q64 27 81 33q9 -1 26 -43.5t17 -56.5q0 -3 -2 -3q-87 -36 -187.5 -94.5t-206.5 -137.5 t-208 -170t-193 -196.5t-159.5 -212.5t-108.5 -222.5t-40 -221.5q0 -84 66 -142.5t206 -58.5t322 59.5t338 140t320 183.5q126 79 257.5 183t259.5 231.5t228 257.5t161.5 269t61.5 257q0 294 -294 405q-119 45 -301 56q-25 2 -75 2q-180 0 -391.5 -48.5t-413 -129.5 t-388.5 -184t-338 -216q-70 -52 -144.5 -119t-155.5 -154t-143.5 -173.5t-103.5 -181t-41 -172.5q0 -98 92.5 -179.5t197.5 -81.5q25 0 25 -11t-22 -11q-92 0 -184.5 43t-156 122.5t-63.5 172.5z" />
<glyph unicode="P" horiz-adv-x="2676" d="M71 18q8 38 27 68q18 27 45 32q30 2 74 2q88 0 232 -9q295 39 780 145q222 390 487 772q172 247 330 434q-259 40 -479 40q-187 0 -336.5 -33t-149.5 -82q0 -26 23.5 -50t49.5 -37t58.5 -26.5t35.5 -15.5q2 -1 -0.5 -4.5t-7.5 -6.5t-10 -3q-69 0 -136.5 50t-67.5 89 q0 34 28 61.5t76.5 45t104.5 30t121 19t117 9t101 2.5q232 0 512 -41q58 65 82 89q19 30 31 44q17 0 43.5 -38.5t35.5 -63.5q3 -10 3 -15q-21 -8 -54 -39q164 -31 301.5 -73t256 -101t185.5 -138.5t67 -171.5q0 -69 -60.5 -140.5t-158.5 -133.5t-231 -123t-270 -110.5 t-283.5 -94t-262.5 -74.5t-216 -52q-40 -9 -118.5 -25.5t-104.5 -22.5q-159 -276 -255 -490t-96 -308q0 -11 8.5 -18t18.5 -7q27 0 48 6.5t32 12.5t14 6q7 0 7 -6q1 -14 -39 -42q-38 -27 -63 -27h-2q-26 2 -67.5 48t-41.5 75q0 181 300 721q-290 -60 -556 -103 q94 -11 119 -22q13 -5 9 -29q-3 -15 -10 -8q-16 17 -86 20q-22 1 -44 1q-49 0 -102 -4q-77 -6 -143 -18q-215 -36 -299 -65q-22 -2 -13 49zM1367 287l166 37q127 29 270.5 70.5t299.5 95t297 116.5t254.5 128.5t180.5 137t67 136.5q0 63 -39.5 121t-106.5 103.5t-160.5 85.5 t-194.5 69t-217 52q-45 -57 -77.5 -119.5t-32.5 -95.5q0 -17 19 -40q0 -3 -8 -3t-18.5 6t-22 27t-11.5 52v9q-121 -147 -240 -319q-218 -314 -426 -669z" />
<glyph unicode="Q" horiz-adv-x="2816" d="M131 238q0 131 81.5 279.5t221.5 289t325.5 271t396.5 234.5q287 141 595 223t557 82q312 0 499 -129t187 -345q0 -121 -44 -249.5t-114.5 -242t-169.5 -229.5t-197 -209t-210 -184q51 -105 108 -203q37 -66 75.5 -129.5t107 -163.5t129.5 -172t132 -125.5t127 -53.5 q38 0 73 42.5t35 146.5q0 22 -4 52.5t-4 36.5q0 12 6 12q11 0 20.5 -48t9.5 -85q0 -115 -44 -193.5t-114 -78.5q-61 0 -140.5 58.5t-150.5 141t-145.5 188t-122.5 184t-83 143.5q-59 108 -94 184q-303 -232 -629.5 -376t-584.5 -144q-83 0 -162.5 31t-136.5 98.5t-57 156.5 q0 39 12 97q-63 12 -128.5 35t-131 60t-116.5 82.5t-83 106t-32 125.5zM238 193q0 -64 33.5 -120.5t90.5 -97t124.5 -69t144.5 -45.5q39 135 148.5 289.5t253 289t316.5 239t329 140.5q14 -12 19.5 -58.5t-5.5 -61.5q-114 -15 -224.5 -85t-110.5 -121q0 -10 5.5 -18 t10.5 -11.5t5 -4.5t-2 -1q-23 0 -44.5 22t-24.5 46q-191 -136 -352 -327t-220 -356q97 -12 182 -12q102 0 177 8q14 1 14 -10q0 -6 -5 -8q-56 -18 -193 -18q-95 0 -184 10q-19 -62 -19 -112q0 -104 75 -155t183 -51q240 0 568 146t625 373q-79 172 -135 349 q-11 -152 -27 -179q-9 -16 -38 -16q-22 0 -22 5q33 9 33 117q0 82 -17.5 187.5t-31.5 135.5q0 14 42.5 30.5t74.5 16.5q26 0 26 -9q0 -63 19 -168q58 -201 154 -407q697 572 697 1067q0 100 -43 177.5t-119.5 125.5t-178 72.5t-223.5 24.5q-230 0 -548 -92.5t-609 -236.5 q-270 -134 -488 -303t-352 -359.5t-134 -358.5z" />
<glyph unicode="R" horiz-adv-x="2537" d="M57 253q0 46 87 110t174.5 106t105.5 42q9 0 9 -13q0 -1 -64.5 -34.5t-129.5 -84t-65 -91.5q0 -47 65 -67t192 -20q286 0 567 40q91 155 151 252q109 180 303.5 473t346.5 507q-126 11 -239 11q-45 0 -88 -2q-245 -11 -410.5 -50.5t-171.5 -105.5q-3 -24 24.5 -48.5 t67.5 -42.5t81 -32.5t69.5 -23.5t28.5 -11q0 -12 -12 -12q-22 2 -69 15t-110 37q-62 24 -104 65q-36 35 -36 75q0 7 1 14q11 73 176 114.5t420 54.5q46 2 94 2q107 0 228 -8q43 6 106 68.5t91 100.5q10 0 47.5 -38.5t37.5 -49.5q-48 -58 -81 -100q134 -16 255 -40t239 -61.5 t203 -83.5t137.5 -109t52.5 -136q0 -79 -58 -159t-156.5 -151.5t-237.5 -142t-293 -130t-331 -114.5q21 -64 32 -91q40 -104 73 -180.5t87.5 -182.5t126.5 -209t160 -200q202 -222 327 -222q40 0 59 53q17 48 17 120v15q0 31 -6 55q-2 9 3 8q8 -1 16 -17q18 -39 17 -106v-27 q-7 -96 -44 -153t-89 -57q-154 0 -381 261q-156 179 -261.5 368.5t-194.5 405.5q-21 51 -49 127q-9 -3 -35.5 -10.5t-41.5 -11.5q-1 -7 -1 -20q0 -4 -4 -4q-6 0 -19 10q-1 2 -1 7q-243 -67 -463 -111q-160 -269 -266 -497q63 83 120.5 138.5t77.5 55.5q11 0 15 -5t-5 -13 q-56 -39 -121 -144.5t-102 -188t-58 -140.5q-11 0 -58 49t-47 57q0 59 132 320q79 157 187 344q-256 -46 -487 -63q-91 -7 -164 -7q-111 0 -178 16q-30 8 -54 52t-24 72zM1121 261q73 14 77 15q163 34 355 90q5 74 19 153.5t28 87.5q6 6 32 7.5t50 -2.5t23 -13 q0 -32 42 -173q268 89 477.5 192t339.5 218t130 217q0 73 -46.5 135t-121.5 105.5t-179 78t-209 55.5t-222 35q-251 -331 -663 -988q-46 -73 -132 -213zM1585 375q23 8 53 16q-5 14 -13 39.5t-10 31.5q-19 -44 -30 -87z" />
<glyph unicode="S" horiz-adv-x="2218" d="M-286 -351q0 26 15 52t52 53t61.5 44.5t82 45t72.5 34.5t71 31q7 3 11 5q4 0 8.5 -4t4.5 -8q0 -3 -1 -4q-86 -46 -157 -99.5t-103.5 -87.5t-32.5 -45q0 -13 26 -26.5t82.5 -23.5t130.5 -10q138 0 363.5 26.5t479 76t477.5 111t371 141.5t147 159q0 36 -52.5 81t-137 93 t-186 102t-203.5 115t-186.5 124t-137 137.5t-52.5 147.5q0 110 99 223t245 195t315 134.5t306 52.5q149 0 219.5 -57t70.5 -152v-16q104 136 216 223.5t200 87.5q25 0 47.5 -14t22.5 -29q0 -2 -3 -4.5t-5 -2.5q-1 0 -5.5 4.5t-15.5 9.5t-29 5q-88 0 -185 -89t-171.5 -216.5 t-127.5 -264t-64 -235.5q-19 0 -61 31t-42 46q11 105 106 273l27 77q24 64 24 117q0 69 -57.5 112.5t-182.5 43.5q-117 0 -262.5 -46t-270.5 -116.5t-210.5 -166t-85.5 -184.5q0 -67 53.5 -138.5t139 -134t188.5 -125t206 -119t188.5 -107.5t139 -99.5t53.5 -86.5 q0 -82 -120.5 -168t-310.5 -156t-423.5 -133t-461.5 -106t-421.5 -68t-306.5 -25q-134 0 -191 44q-21 17 -40 48.5t-19 60.5z" />
<glyph unicode="T" horiz-adv-x="1690" d="M54 1262q97 1 223 20.5t246.5 44.5t160.5 30q9 3 26.5 8.5t24.5 8.5q4 1 29 9t34.5 11.5t33 13t35.5 16t30.5 18.5t28.5 23.5t19 26.5t12 32q12 0 12 -24q0 -27 -19 -61q-16 -27 -62 -55q27 4 79 10t75 9q590 70 885 90q21 23 68 77q14 0 52 -24t42 -37l-8 -7 q127 7 291 9q67 0 142 -2.5t184.5 -10t204 -23.5t181 -39.5t137 -62t50.5 -87.5q0 -52 -58.5 -108.5t-134.5 -95.5t-142.5 -64.5t-89.5 -26.5q-2 0 -5 3t-3 6q0 6 56.5 36t125 66t125 84.5t56.5 87.5q0 58 -89 99t-231.5 59.5t-265.5 26t-245 7.5q-184 0 -341 -9 q-182 -178 -521.5 -676t-572.5 -901q261 293 336 293q20 0 36 -4.5t23 -10t7 -10.5q0 -1 -1 -2q-18 5 -33 5q-50 0 -175 -149t-238 -320t-153 -259q-15 -1 -50.5 30.5t-35.5 40.5q0 81 172 388.5t420.5 683t466.5 658.5q-16 13 -37 34.5t-21 26.5q24 -6 59 14t62.5 44 t78.5 74q21 21 32 31q-207 -16 -799 -91q-155 -19 -466 -83q-146 -46 -309 -85t-194 -41q-24 19 -43.5 57t-18.5 57z" />
<glyph unicode="U" horiz-adv-x="2288" d="M118 -89q0 249 324 762q180 282 371 501q-50 -21 -92 -21q-40 0 -71 47q-9 13 -6 12q1 0 9.5 -3t20 -4.5t34.5 1.5q105 18 286 164q51 51 79 51q9 -2 45 -35.5t39 -41.5q-90 -43 -279.5 -269t-331.5 -447q-315 -488 -315 -751q0 -54 32 -81.5t88 -27.5q103 0 319.5 111 t374.5 227q507 371 931 747q537 480 625 605q100 138 114 138q7 3 45.5 -30t37.5 -47q-50 -46 -142.5 -183t-302.5 -478q-273 -443 -405 -750q-174 -400 -174 -591q0 -43 14.5 -83t42.5 -40q22 0 82 35.5t88 71.5q7 9 14 4q12 -8 -14 -41q-36 -46 -85.5 -78t-82.5 -32 q-49 0 -108.5 59t-59.5 104q0 25 2 50.5t3.5 46t7.5 47t9 42.5t12 45.5t12.5 41.5t15.5 45t15.5 43t18 47.5t17.5 46.5q33 89 72 177.5t89 187t86.5 169t101.5 183t96.5 165.5t107.5 180t100 168q-202 -214 -423 -402q-512 -437 -925 -737q-111 -81 -232.5 -155t-271 -137 t-247.5 -63q-72 0 -143 69t-71 134z" />
<glyph unicode="V" horiz-adv-x="2293" d="M40 803q1 5 4.5 12t12 17.5t14 17.5t17.5 21.5t16 18.5q55 64 152 147q166 202 166 281v5q14 -17 22 -55q4 -18 3 -35q0 -18 -4 -34q-1 -6 -10 -25q189 132 386.5 216.5t365.5 84.5q159 0 274.5 -116.5t115.5 -284.5q0 -93 -15 -198.5t-33 -187.5t-56.5 -203.5t-62 -187 t-74.5 -202.5t-69 -188q-6 -15 -18.5 -47.5t-18.5 -48.5q130 195 305 398t362 380.5t374 331t364 276.5q283 196 542.5 327t416.5 141q10 1 19 1q67 0 106 -32q42 -34 42 -83q0 -101 -78 -189q-30 -34 -38 -20q-4 7 2 14q65 73 65 169q0 47 -50 65q-32 12 -74 12 q-25 0 -54 -5q-149 -22 -379.5 -146t-458.5 -284q-235 -165 -459 -357t-434.5 -409t-392 -460t-308.5 -483q-3 -6 -30 4.5t-53.5 30t-26.5 35.5q7 17 84 192.5t89 208.5q66 176 114 313t97 297.5t75 296t26 236.5q0 352 -278 352q-390 0 -845 -380q-27 -36 -81 -103.5 t-93 -119.5t-60 -90q-8 -7 -43 26t-35 46z" />
<glyph unicode="W" horiz-adv-x="3118" d="M96 1036q0 37 41 79.5t97.5 76.5t125.5 65q142 62 319 109.5t313 71.5q136 23 302 37q142 9 146 9q43 27 122 69q11 0 39 -38.5t25 -47.5q-38 -14 -65 -33q-51 -33 -90 -78t-39 -70q-13 2 -28 15t-20 25q-228 -168 -452 -444t-364.5 -553.5t-140.5 -453.5 q0 -170 125 -170q123 0 339.5 133t446.5 335t457 449t377 467q15 0 55 -31t40 -47q-148 -241 -267.5 -545.5t-119.5 -497.5q0 -101 37 -144.5t119 -43.5q110 0 262 88t306 228t307 319t270.5 357t191 346.5t73.5 282.5q0 84 -31 118.5t-105 34.5q-56 0 -117.5 -21.5 t-102.5 -47t-73.5 -47.5t-37.5 -22q-13 0 -13 9q1 15 59 58.5t147 84.5t156 41q79 0 128.5 -49.5t49.5 -149.5q0 -123 -75.5 -302t-197 -365t-282 -373t-323.5 -332.5t-328 -236.5t-290 -91q-101 0 -171.5 73t-70.5 208q0 138 62.5 346t160.5 418q-145 -177 -337 -368 t-395 -361.5t-397 -280.5t-318 -110q-100 0 -167 74t-67 168q0 141 67.5 318.5t178.5 351.5t249.5 344t285 310t279.5 235q-210 -17 -402 -56q-370 -76 -570 -164.5t-229 -165.5q-5 -17 -5 -27q1 -18 14 -32t31 -21t36 -11.5l30 -7.5t11 -4q-2 -8 -30 -10h-9q-46 1 -96 27 q-55 30 -55 72z" />
<glyph unicode="X" horiz-adv-x="2036" d="M-150 -291q70 118 422 434q502 454 1038 811q-41 178 -56 261q-26 -93 -37 -125q-3 -9 -23.5 -27.5t-27.5 -18.5q-2 0 -2 1q32 83 48 186q13 79 13 148q0 21 -1 41q5 9 52 25.5t54 11.5q21 -211 72 -444q157 102 277 172q105 61 222 123t264 132t282 113.5t220 43.5 q62 0 96.5 -22.5t34.5 -57.5q0 -47 -26 -99t-60 -88.5t-64 -61t-40 -24.5q-6 0 -6 8q0 6 33 45t66 96t33 108q0 27 -14.5 39t-50.5 12q-101 0 -294 -76t-345 -155.5t-309 -169.5q-160 -92 -308 -189q21 -97 71 -289q150 -572 366 -961q85 -153 139 -220q95 -120 177 -120 q36 0 101.5 77t65.5 140q0 15 6 15q5 0 10 -12t5 -26q0 -50 -26.5 -102.5t-64.5 -91t-80 -63t-74 -24.5q-45 0 -92.5 29.5t-78.5 59t-74.5 95.5t-54.5 86t-45 84q-2 2 -2.5 3.5t-1.5 3.5t-2 3.5t-2 3.5q-141 264 -242 570t-191 678q-510 -345 -994 -805q-76 -72 -198 -201 q96 45 160 48q64 4 50 -8q-7 -6 -30 -14q-80 -30 -216.5 -136.5t-159.5 -175.5q-27 1 -53.5 35t-31.5 65z" />
<glyph unicode="Y" horiz-adv-x="1803" d="M123 920q2 6 26 23q27 17 83.5 74t117.5 128q15 26 64 102t81.5 132t46.5 93q16 -5 51 -47t45 -68q-67 -84 -143 -167q-261 -386 -261 -629q0 -84 48 -128q48 -45 123 -45q41 0 89 9t89 19t100 35t94 39.5t102 50.5t93.5 50.5t98 57t86 51.5t85.5 53q317 196 695 488 q260 201 417 359q12 4 44.5 -19t32.5 -36q-28 -23 -60.5 -58.5t-89 -101t-63.5 -73.5q-189 -216 -422 -516.5t-412 -568.5q-327 -491 -516 -927q211 303 338 344q28 9 46.5 -5t18.5 -29q-1 -1 -1 -2v-2q-22 17 -39 11q-57 -19 -133 -102t-142.5 -186.5t-119.5 -204 t-74 -163.5q-1 -1 -3 -1q-16 0 -61 41q-50 44 -50 53q0 67 204 466q203 394 448 759q175 260 372 518.5t366 454.5q-495 -380 -763 -547q-99 -62 -200.5 -119t-230 -119.5t-249 -100.5t-207.5 -38q-99 0 -180 77q-79 75 -79 181v5q3 146 118 372q-38 -25 -73 -36 q-53 -16 -51 -7z" />
<glyph unicode="Z" horiz-adv-x="1990" d="M-131 -400q10 78 408 411t943 739q356 265 598.5 423.5t514.5 283.5q-387 -101 -794 -136q70 -50 70 -104q0 -30 -21 -51q1 2 1 11q0 51 -72.5 84t-182.5 33q-76 0 -176.5 -11.5t-128.5 -25.5v1q0 13 37 77.5t45 66.5q20 -6 133 -12t161 -11q19 -2 49 -13 q597 24 1085 196q9 3 17 3q25 0 43 -18q14 -15 34 -47.5t20 -42.5q0 -4 -2 -4q-1 0 -17 4.5t-29 4.5q-53 0 -106 -25q-301 -140 -569.5 -312t-631.5 -439q-403 -297 -760.5 -598.5t-518.5 -479.5q143 63 475 141q317 72 692.5 120.5t697.5 48.5q32 0 57 -0.5t83 -2 t104.5 -6.5t107.5 -12.5t106 -21t86 -30.5t63 -43t22 -57q0 -46 -42.5 -94.5t-98.5 -81.5t-105.5 -54.5t-67.5 -21.5q-12 0 -12 6q0 1 24.5 13.5t59 33.5t69.5 47.5t59 61.5t24 69q0 26 -19.5 47t-56.5 35.5t-77.5 25.5t-96 17t-96.5 10t-95.5 5t-76.5 1.5t-55 0.5 q-297 0 -661.5 -46.5t-678.5 -124.5q-143 -36 -230.5 -60.5t-187.5 -64t-145 -78.5q-19 1 -48.5 44.5t-29.5 63.5z" />
<glyph unicode="[" horiz-adv-x="1354" d="M-202.5 -320q-13.5 49 5.5 65q332 44 724 44q175 0 324.5 -13.5t231.5 -34t82 -42.5q0 -7 -6.5 -15.5t-12.5 -2.5q-59 59 -481 59q-194 0 -467 -28q16 -19 13 -31q-66 13 -191 -12t-186 -46q-23 8 -36.5 57zM165 -75q0 61 110 269.5t221 380.5q227 348 428 599 q92 116 148 176q-58 -9 -153 -26q-14 3 -19 34.5t1 46.5q41 18 193 38t331 32q281 21 522 21q223 0 293 -51q25 -18 25 -42t-12 -24q-2 0 -3.5 0.5t-3.5 5t-2 13.5q0 20 -38 33.5t-94.5 18.5t-90.5 6.5t-56 1.5q-212 3 -540 -29q-111 -10 -260 -31q15 -15 30 -38t17 -32 q-88 -82 -169 -172.5t-161.5 -198t-135.5 -186.5t-141 -208q-91 -138 -223.5 -387t-132.5 -301q0 -17 10 -27.5t10 -11.5q0 -7 -7 -12.5t-17 -5.5q-16 0 -47 42.5t-33 64.5z" />
<glyph unicode="\" horiz-adv-x="1372" d="M357 1566q2 11 37.5 36t43.5 23q37 -39 191.5 -469t295.5 -884.5t141 -547.5q-19 -24 -93 -61v13q0 168 -189.5 756t-343.5 964q0 -9 -27.5 -29t-38.5 -19q5 35 -2.5 117t-14.5 101z" />
<glyph unicode="]" horiz-adv-x="1307" d="M-655 -329q1 13 47 25.5t133.5 39t159.5 65.5q2 1 4.5 -2t4.5 -8.5t3.5 -12.5t2 -14t-1.5 -14q231 41 496 60t462 11q222 -8 257 -58q14 -20 -16.5 -55.5t-61.5 -48.5q-31 -14 -38 -4q-2 3 1 4q27 19 45 41t10 38q-19 37 -182 41q-175 6 -420 -13t-468 -60 q-77 -14 -175 -38q-44 -20 -129 -47t-104 -30q-13 1 -22 33.5t-8 46.5zM220 1406q226 51 428 80q267 40 517 38q83 -1 144 -6.5t117 -20t80.5 -43t14.5 -70.5q-52 -41 -200 -231q-160 -209 -366.5 -522.5t-331.5 -534.5q77 2 77 -5q-56 -35 -105 -130t-48 -119 q-11 -7 -62.5 32.5t-51.5 48.5q0 27 97.5 209t202.5 344q210 324 415.5 603.5t297.5 360.5q-63 40 -244 40q-304 0 -621 -69q17 -16 27.5 -35t2.5 -23q-39 14 -176 2t-182 -34q-10 10 -25 44t-8 41z" />
<glyph unicode="^" horiz-adv-x="0" d="M-2588 -525q166 42 497 100q609 107 1312 170.5t1324 63.5h63.5t95 -1t127.5 -3.5t138 -6t150 -11t139.5 -17t132 -24t101.5 -32t73 -41.5t24 -52q0 -41 -44.5 -77.5t-92.5 -54.5t-81 -21q-21 -1 -21 8.5t16 17.5q47 26 92 65.5t45 74.5t-108 62t-282 41.5t-363.5 22 t-381.5 7.5q-515 0 -1261 -82.5t-1229 -187.5q22 -7 54.5 -26t32.5 -26q-78 5 -206.5 -11t-258.5 -67q-19 0 -57 45t-31 63z" />
<glyph unicode="_" horiz-adv-x="1469" d="M-171 0l3 2q4 1 13 3.5t14.5 4t18.5 4.5q303 75 360 111q4 0 4 -7q0 -11 -15 -50q209 20 450 20q90 0 121 -1q42 -1 110.5 -5.5t169.5 -19.5t134 -36q2 -1 2 -4q0 -5 -7 -10.5t-13 -5.5q-9 0 -30.5 5.5t-55 12.5t-128.5 12.5t-231 5.5q-31 0 -119 -5t-232 -17t-288.5 -41 t-225.5 -69v1q-10 1 -32.5 40.5t-22.5 48.5z" />
<glyph unicode="`" horiz-adv-x="897" d="M291 1171q1 3 15.5 10.5t43.5 16.5t61 12q-5 -5 -5 -35q1 -78 75 -168.5t176 -154.5t189 -81q1 -4 -4 -12t-11 -10q-70 13 -166.5 58.5t-184 104.5t-143.5 130.5t-46 128.5z" />
<glyph unicode="a" horiz-adv-x="891" d="M-169 65q0 64 76 172t179.5 206t218.5 170.5t186 72.5q29 0 69.5 -27t60.5 -59q134 102 150 108q7 0 53 -58q-43 -54 -120 -171t-136 -228q-32 -61 -50 -114.5t-18 -72.5t15 -19q43 0 148.5 84t186 163.5t99.5 103.5q5 8 14 8q5 0 9 -4.5t4 -9.5q0 -16 -102.5 -121.5 t-229.5 -210.5t-180 -115h-3q-26 0 -57 39t-31 66q0 48 73 185q81 151 145 241q-29 -4 -37 -1q-516 -490 -656 -490q-23 0 -45 35t-22 47zM-45 65q37 0 221 142.5t335 292.5q31 34 31 85q0 39 -33 39t-123.5 -68t-185 -157.5t-169 -186.5t-76.5 -147z" />
<glyph unicode="b" horiz-adv-x="818" d="M-158 29q0 53 228 415.5t400 600.5q-26 -8 -43 -7.5t-24 7.5q-3 3 -1 5q27 14 107.5 86t119.5 124q9 5 32.5 -5t41.5 -23.5t15 -18.5q-5 -10 -27.5 -38.5t-49 -60t-31.5 -37.5q-36 -44 -123 -163q-93 -126 -259 -388.5t-215 -370.5q165 184 392 374.5t307 190.5 q31 0 68.5 -39t37.5 -66q0 -62 -42.5 -149t-112.5 -172t-152 -158q-81 -74 -169 -119q-82 -42 -147 -42h-9q-37 1 -67.5 22.5t-47.5 50.5q-17 24 -20 58q-86 -97 -134 -173q-19 0 -47 35t-28 61zM67 125q5 -14 9 -22t14.5 -22t28 -21.5t42.5 -7.5q72 0 200 105t234 245.5 t120 233.5q3 18 -3 23q-57 0 -267 -173.5t-378 -360.5z" />
<glyph unicode="c" horiz-adv-x="689" d="M-111 104q0 8 1 12q16 106 132 249.5t263.5 247t246.5 103.5q61 0 102 -43q63 71 126 117t109 46q23 0 33.5 -13.5t10.5 -26.5q0 -3 -4 -3q-1 0 -4 4.5t-9 8.5t-15 4q-45 0 -105.5 -56.5t-116.5 -140.5q-1 -52 -40 -133t-56 -87q-12 0 -39.5 27t-27.5 40q0 20 29 68 t75 105q-5 25 -37 25q-48 0 -141 -66t-183 -155t-158 -189t-68 -160q0 -25 16.5 -38t43.5 -13h7q83 0 227 73t268.5 163.5t192.5 159.5q11 13 29 13q7 0 7 -5q0 -8 -15 -26q-75 -90 -221.5 -197t-297 -181.5t-229.5 -74.5q-57 0 -104.5 45.5t-47.5 96.5z" />
<glyph unicode="d" horiz-adv-x="946" d="M-152 77q0 41 51 129t144 186q113 120 251.5 213.5t215.5 93.5q30 0 68.5 -17t69.5 -45q158 162 299 330q139 202 261 351q11 0 34.5 -37.5t23.5 -48.5q-256 -305 -438 -604q-120 -198 -198.5 -362t-78.5 -209q0 -12 6 -12q43 0 148.5 84t186 163.5t99.5 103.5q5 8 14 8 q12 0 12 -14q0 -16 -108.5 -126t-236 -215.5t-169.5 -105.5q-26 0 -52.5 38.5t-26.5 66.5q0 43 108 248q63 113 96 227q9 34 7 42q-162 -169 -273 -266q-358 -316 -441 -316q-17 0 -45 30t-28 64zM-37 63q22 0 147 95.5t201 163.5q168 147 303 282q-21 18 -52 18 q-53 0 -162 -67.5t-203 -161.5q-94 -93 -164 -194.5t-70 -135.5zM676 608q15 -22 19 -30q9 14 99 158q-42 -46 -118 -128z" />
<glyph unicode="e" horiz-adv-x="640" d="M-134 133q20 108 124.5 223.5t240.5 216.5q31 23 69.5 47.5t102 53t105.5 28.5q11 0 29 -4q21 -7 50.5 -33t29.5 -47q0 -28 -19 -57.5t-53.5 -57.5t-61.5 -46.5t-64 -40.5q-211 -128 -352 -159q-78 -103 -78 -186q0 -22 9.5 -31t33.5 -9q83 0 226.5 74.5t267 166 t192.5 161.5q11 13 30 13q6 0 6 -5q0 -9 -14 -26q-106 -128 -345 -284.5t-364 -168.5q-7 -1 -13 -1q-58 0 -109 48q-45 43 -45 98q0 13 2 26zM118 314q145 52 287 146q73 48 115.5 99t42.5 81q-14 0 -74 -29q-91 -46 -203 -134t-168 -163z" />
<glyph unicode="f" horiz-adv-x="614" d="M-588 -929q0 105 54.5 274t139.5 338q177 353 415 733q-61 -17 -126 -29q-1 1 -1 8q0 20 12.5 53.5t27.5 39.5q33 9 157 36q142 220 276 405q6 9 34.5 49t49.5 69.5t54 75t57.5 78t49 64.5t40.5 48.5t21 16.5q8 0 45.5 -51.5t37.5 -60.5l-4 -2q-35 -14 -83.5 -72.5 t-83 -124.5t-34.5 -100q0 -16 19 -39q0 -3 -8 -3t-18.5 6t-21.5 26t-11 49v3q-6 -8 -55 -79q-102 -147 -221 -330q294 53 449 53t155 -55q0 -14 -10 -31q-10 33 -35 43t-78 10q-100 0 -255.5 -31.5t-265.5 -65.5q149 -53 250 -185.5t101 -302.5q0 -193 -181 -454t-437 -460 q-230 -177 -359 -177q-60 0 -108.5 60t-48.5 115zM-504 -939q0 -97 80 -97q121 0 295 131q100 75 205 180t201 227.5t157.5 256t61.5 241.5q0 79 -32 158.5t-81 138t-107 98.5t-110 48q-272 -432 -458 -799q-45 -89 -74 -149.5t-65 -146.5t-54.5 -158t-18.5 -129z" />
<glyph unicode="g" horiz-adv-x="856" d="M-1237 -823q3 108 90 217.5t227.5 200t318.5 171.5t366.5 139.5t368 97t326.5 50.5q4 9 8.5 19t10 22t8.5 19q37 83 141 355q-25 0 -28 2q-526 -471 -672 -471h-4q-24 1 -46 38.5t-22 49.5q0 62 78 166.5t184.5 201t225.5 167.5t193 71q24 0 57.5 -21t56.5 -49 q1 -2 11 -14.5t15 -19.5q20 48 46 100.5t32 57.5q17 0 51 -36q6 -6 21.5 -24.5t25.5 -28t19 -14.5q8 -5 -4 -12q-7 -4 -14 -4q-19 0 -38 7q-32 -62 -109 -262t-114 -284l-14 -30q50 2 86 2q23 0 40 -1q27 -1 41 -8t12 -16q0 -11 -24 -9h-7q-30 0 -163 -5h-1 q-89 -191 -191.5 -356t-232 -312.5t-271.5 -254t-312 -173.5t-352 -78q-15 -1 -30 -1q-95 0 -184 39q-104 44 -167 124q-60 75 -60 159v8zM-1173 -836v-6q0 -89 83 -151q85 -64 179 -66h11q179 0 352 63q178 65 320 170t272.5 249.5t224.5 288.5t171 300 q-133 -15 -284 -47.5t-305.5 -80.5t-302 -107.5t-277 -131.5t-227.5 -148.5t-156 -162.5t-61 -170zM-27 75h1q40 0 232 138q194 140 350 286q46 46 47 86q0 18 -15 30t-33 13h-2q-46 0 -183 -104q-141 -107 -267.5 -244t-129.5 -205z" />
<glyph unicode="h" horiz-adv-x="869" d="M-170 60q0 9 10.5 31t31.5 55.5t38 60t44 67.5t35 54q177 276 358 534q22 31 98.5 142t128.5 182t107 137q15 0 45 -42t30 -64q-34 -12 -82.5 -69t-84 -123t-37.5 -103q0 -17 18 -42q0 -1 -1 -2q-2 -1 -7 -1q-19 0 -31.5 18t-17.5 41l-85 -120q-172 -240 -315 -471 t-143 -265q23 2 242.5 207.5t385.5 385.5q3 2 7 2q17 1 53 -29q46 -36 45 -54q0 -2 -1 -3q-53 -60 -132 -242t-79 -250q0 -12 3.5 -15t11.5 -3q62 0 213.5 132.5t193.5 184.5q5 8 14 8q12 0 12 -14q0 -16 -95.5 -113t-215.5 -194t-173 -107h-3q-26 0 -57 39.5t-31 66.5 q0 58 72 240t96 214q-488 -494 -598 -567q-26 -17 -48 -17q-16 0 -36 35.5t-20 72.5z" />
<glyph unicode="i" horiz-adv-x="426" d="M-129 75q0 37 46 119t90 144t122 166q121 160 166 190q12 -2 41 -25t29 -32q0 -1 -27.5 -39t-47.5 -74.5t-20 -58.5q-11 -4 -32 8q-79 -95 -170 -233t-91 -179q0 -17 16 -17q47 0 216 129.5t260 219.5q17 17 29.5 7.5t-5.5 -26.5q-260 -250 -396 -344q-99 -69 -147 -69 q-6 0 -24 14t-36.5 42t-18.5 58zM369 833q21 66 91.5 176.5t131.5 167.5q12 4 51 -32t36 -57q-55 -21 -154 -131.5t-115 -164.5q-6 -22 5 -33q0 -3 -6 -3q-24 2 -35.5 28t-4.5 49z" />
<glyph unicode="j" horiz-adv-x="330" d="M-1784 -914q0 104 79 209.5t210.5 193t301.5 166t352 134.5t362 91.5t331 44.5q57 108 91 187q37 84 83 192q-68 -46 -96 -46q-6 0 -8 1q42 31 98.5 115.5t115 187t79.5 131.5q18 0 47.5 -33.5t29.5 -41.5q-17 -26 -37.5 -66t-49 -102t-48 -105.5t-57.5 -131.5t-54 -124 q-56 -124 -75 -162q55 -2 108.5 -11t106.5 -26.5t85 -49.5t32 -74q0 -29 -45 -70.5t-80 -41.5q-10 0 -10 7q0 9 18 21q28 18 46.5 41.5t18.5 41.5q0 40 -58 69t-124 40t-120 11q-296 -572 -698 -854q-145 -103 -322 -171.5t-327 -68.5q-151 0 -268.5 86t-117.5 209z M-1720 -916q0 -95 81 -150t181 -55q157 0 317.5 60.5t296.5 159t264.5 231t227 269t179.5 281.5q-156 -12 -332.5 -49.5t-348 -93.5t-328.5 -131t-276.5 -157.5t-190.5 -177.5t-71 -187zM256 829q16 68 77 183.5t118 177.5q11 4 52.5 -28.5t40.5 -53.5q-53 -25 -142 -143 t-102 -174q-4 -22 8 -32q0 -3 -6 -3q-24 0 -38 25t-8 48z" />
<glyph unicode="k" horiz-adv-x="766" d="M-159 -14q0 50 99.5 225.5t265.5 424.5q168 253 272 391q-35 2 -59 8q15 11 30 23.5t30 28t25.5 26t26.5 29.5t23 27t23.5 30.5t20 27t21 29.5t18.5 26h1q14 0 48 -44q31 -40 32 -53q0 -2 -1 -3l-21 -23q-79 -88 -166.5 -209.5t-210.5 -307.5q-187 -281 -301 -499 q105 118 231 244q20 32 43 87t32 82q8 6 37.5 14.5t34.5 4.5q1 -16 5 -48q280 242 407 242q35 0 49 -33q4 -11 5 -24q0 -18 -8 -40q-13 -40 -36 -60q-26 -24 -35 -16q-2 2 0 4q29 40 29 73q0 10 -3 19q-4 16 -31 16q-52 0 -159.5 -74.5t-209.5 -167.5q28 -184 105 -359 q68 -154 151 -272t131 -118q39 0 75.5 40t36.5 115q0 5 9 6.5t10 -3.5q3 -18 3 -36q0 -64 -40 -122q-51 -74 -117 -74q-79 0 -177 129.5t-175 312.5q-65 155 -93 304q-231 -234 -417 -468q-4 -5 -21 8t-33 31.5t-16 25.5z" />
<glyph unicode="l" horiz-adv-x="475" d="M-126 79q0 53 131.5 280.5t303.5 483.5q133 194 138 201q-33 -15 -72 -15q-17 0 -17 6q0 3 8.5 5.5t32 15.5t52.5 38q65 54 132.5 132.5t80.5 117.5q19 -4 50 -40.5t31 -51.5q-21 -1 -142.5 -163.5t-210.5 -295.5q-161 -242 -278 -448t-117 -268q0 -18 10 -18 q52 0 233 128t330 253q10 8 19 3q5 -3 5 -10t-5 -12q-18 -15 -125 -108.5t-156 -133.5q-96 -78 -203.5 -149.5t-146.5 -71.5q-17 0 -50.5 42.5t-33.5 78.5z" />
<glyph unicode="m" horiz-adv-x="1254" d="M-132 67q84 223 391 636q95 128 111 128q12 0 47 -29.5t30 -42.5q-26 -35 -40.5 -73t-15.5 -54q-19 4 -29 18q-56 -60 -135 -170t-145 -224q-65 -115 -66 -136q-2 -15 10 -15q10 0 57 40.5t119.5 111.5t132.5 131t134.5 135.5t88.5 89.5q14 8 55.5 -25t39.5 -45 q-6 -11 -29.5 -52.5t-32 -57t-28.5 -53t-30.5 -61t-25.5 -58t-26 -67.5t-20 -68q19 0 137 115.5t252 256t151 156.5q3 1 6 1q17 0 49 -33q38 -40 38 -58q-33 -52 -77.5 -129.5t-94.5 -189.5t-50 -166q0 -21 14 -21q36 0 120 65q81 63 176 155t116 118q5 8 14 8q5 0 9 -4.5 t4 -9.5q0 -15 -96.5 -114t-201.5 -190q-118 -102 -156 -102q-43 0 -79.5 42t-36.5 75q0 101 179 425q-121 -136 -295 -313t-208 -177q-15 0 -49 32q-35 33 -35 56q0 38 44 148q47 116 89 201q-78 -89 -292 -298t-247 -209q-15 0 -44.5 37.5t-28.5 63.5z" />
<glyph unicode="n" horiz-adv-x="879" d="M-152 65q0 33 82 159q30 44 149.5 212t171.5 253q-8 -2 -16.5 -2.5t-16 0.5t-14 2.5t-9.5 3.5t-3 4q33 7 126 113q10 9 50.5 -21t40.5 -43q0 -25 -180 -276q-10 -14 -66.5 -91.5t-77.5 -108t-58 -86.5t-61 -99q156 149 398 350.5t296 201.5q8 -2 37 -31t26 -34 q-26 -50 -76.5 -141t-77.5 -148q-43 -89 -64 -159q-10 -34 -10 -55q0 -23 12 -30q19 0 99 58q83 62 188.5 166.5t127.5 132.5q5 8 14 8q12 0 12 -14q0 -17 -112.5 -134.5t-217.5 -205.5q-91 -76 -128 -80h-4q-28 0 -72 36q-48 38 -47 74q0 59 78.5 220t133.5 242 q-337 -251 -568 -489q-27 -29 -87 -82q-10 -8 -40 30q-36 46 -36 64z" />
<glyph unicode="o" horiz-adv-x="736" d="M-109 102q0 64 73 166t148 178q53 55 156 132q5 25 48.5 67t64.5 42q113 0 186 -22q128 27 230 31h11q70 0 120 -22q54 -24 55 -74q0 -28 -22.5 -56t-42.5 -29q-5 0 -5 3l7 13q8 13 16 30.5t8 29.5q0 35 -44 51q-37 13 -97 13h-23q-63 -3 -146 -20q61 -39 61 -103 q0 -60 -70.5 -157.5t-170.5 -187t-221.5 -155t-212.5 -65.5q-32 0 -80.5 46t-48.5 89zM0 66q0 -32 41 -32q62 0 119 24t137 74q137 87 240.5 215t103.5 185q0 28 -21.5 51.5t-55.5 36.5q-72 -18 -121 -33q-100 -67 -237 -204q-93 -93 -149.5 -182.5t-56.5 -134.5z" />
<glyph unicode="p" horiz-adv-x="834" d="M-705 -923q0 95 231 493q14 24 80.5 137.5t83.5 142t70.5 117t84 135t79 117.5t96.5 138q126 171 174 230q-39 20 -33 35q7 -2 27.5 10.5t48.5 34.5t52.5 41.5t49.5 40.5t28 24q6 3 10 3q19 0 44.5 -20.5t27.5 -36.5q0 -6 -2 -8q-13 -13 -19 -17q-145 -138 -329 -385 q-157 -210 -326 -493q123 166 284 343q211 232 406 395.5t261 163.5q31 0 69.5 -38.5t38.5 -65.5q0 -78 -66 -192.5t-160.5 -216t-207 -174.5t-196.5 -73q-37 0 -72 24.5t-49 54.5q-11 22 -11 64q-273 -297 -492 -627q-36 -69 -106 -221q20 6 33 7q31 2 49 -6 q-62 -35 -114.5 -114t-75.5 -144q-17 0 -43 31t-26 50zM93 126q4 -34 20.5 -59.5t42.5 -25.5q56 0 152.5 70.5t186 166.5t156 203t67.5 173h-1q-56 0 -237 -153.5t-385 -372.5z" />
<glyph unicode="q" horiz-adv-x="848" d="M-587 -424q249 63 429 93q232 39 407 52q41 68 134.5 221.5t135.5 224.5q7 13 22.5 38t23.5 38.5t21 35.5t20.5 35.5l17.5 31.5t15.5 30t11 24.5t8 21t2.5 14.5q0 11 -11 11q-16 0 -72.5 -38.5t-138 -101t-97.5 -73.5q-168 -119 -276.5 -186.5t-151.5 -67.5q-41 0 -69 48 q-19 33 -19 61q0 13 4 25q41 124 260 330q108 101 240.5 182.5t178.5 81.5q29 0 59 -27t28 -46q-15 -27 -18.5 -51t-0.5 -49.5t3 -30.5q-13 -10 -33 21q-3 4 -45 90q-62 -30 -156 -99.5t-180 -152.5q-87 -85 -163 -187q-61 -83 -61 -111q0 -7 3 -10q26 0 133.5 64.5 t231.5 152.5q26 18 76 54.5t86 61.5t76 52t67.5 41.5t40.5 14.5q17 0 65 -40q40 -32 40 -52q0 -4 -2 -8q-47 -97 -107.5 -201.5t-154 -255t-130.5 -211.5q113 4 280 4q46 0 93 -2t110.5 -9t110.5 -18.5t80.5 -33.5t33.5 -51q0 -32 -40.5 -68.5t-67.5 -45.5q-7 -2 -11 -2.5 t-6 1.5t-1 5q0 9 14 22q66 63 66 84q0 22 -43 38.5t-110.5 23.5t-122 10.5t-104.5 3.5q-30 1 -61 1q-123 0 -250 -10v-3q-3 -6 -34 -58.5t-42.5 -73t-44 -77.5t-49.5 -87.5t-47 -86t-48 -91t-41.5 -84.5t-38.5 -84.5t-28 -72.5t-20 -65l-8 -33q-3 -8 -11 -8q-13 0 -34 13.5 t-28 23.5q8 35 8 77q0 29 -4 60q-9 77 -34 89q3 8 13 8q25 0 51 -35q101 207 320 575q-147 -16 -324 -46q17 -15 29 -36t4 -26q-20 4 -43 5.5t-43 2t-49 -2t-47 -4t-52 -7.5t-49 -8.5t-52 -10.5t-48.5 -10t-51.5 -11t-47 -11q-11 11 -25 38t-7 35z" />
<glyph unicode="r" horiz-adv-x="710" d="M-172 28q8 26 50 101q99 182 238 378q-37 22 -40 37q5 0 12 3.5t17.5 10t19.5 13t23.5 17.5t23.5 18t26.5 20.5t25.5 20.5q9 0 38.5 -31.5t29.5 -45.5q-178 -219 -242 -354q226 251 505 471q16 26 51.5 65t41.5 39q11 5 45 -24.5t34 -38.5q-13 -18 -58.5 -79.5 t-70.5 -98.5t-50.5 -94t-28.5 -103v-14q0 -74 50 -74q28 0 61 15.5t55 31.5l22 16q4 0 4 -4q0 -16 -54 -57.5t-89 -41.5q-52 1 -98 49q-44 46 -44 91q0 71 66 213q-39 -35 -115.5 -102t-125.5 -111t-110.5 -104.5t-109.5 -120t-83 -118.5q-19 -32 -32 -75q-22 3 -54 35.5 t-34 45.5z" />
<glyph unicode="s" horiz-adv-x="584" d="M-272 -57q0 41 73.5 70.5t178.5 47.5q130 23 229 32q-52 71 -101 171t-49 186q0 112 100.5 188t219.5 76q39 0 76.5 -18t60.5 -46q64 75 131 127.5t117 58.5q28 3 41 -11t13 -29q0 -3 -5 -3q-1 0 -4.5 5.5t-12.5 9.5t-23 1q-55 -12 -125.5 -95t-118.5 -179t-48 -151 q-15 1 -49.5 31.5t-34.5 45.5q0 21 34 76q24 66 24 104q0 25 -35 25q-87 0 -161.5 -65t-74.5 -155q0 -79 43 -177t91 -148q0 -23 -10.5 -51.5t-30.5 -30.5q-23 -3 -110.5 -11t-142.5 -15.5t-124.5 -19t-105 -28.5t-35.5 -37q0 -2 1.5 -5t1.5 -5q0 -4 -8 -4q-26 0 -26 29z " />
<glyph unicode="t" horiz-adv-x="490" d="M-388 1017q539 77 948 104q86 104 128 166q11 0 33 -27t24 -39q-22 -35 -70 -94q144 8 289 8q44 0 87 -1q438 -11 438 -116q-1 -35 -63 -70q-61 -34 -84 -34h-1q-2 0 -2 2q0 1 26.5 18t53 39t26.5 36q0 33 -90 55.5t-247 26.5q-64 2 -127 2q-177 0 -344 -13 q-32 -39 -60 -77q-13 -17 -62.5 -82.5t-62 -82.5t-53 -71.5t-57 -77t-50.5 -70t-56 -80.5t-52.5 -77.5t-59.5 -90.5q-144 -224 -144 -310q0 -25 22 -25q50 0 183.5 91t229 169.5t154.5 131.5q2 2 6 2q5 0 5 -11q0 -9 -2 -11q-80 -92 -303.5 -271.5t-279.5 -179.5 q-33 0 -79 35t-46 84q0 92 174 353q111 165 237 326q-28 28 -22 43q51 24 258 272q-177 -17 -519 -66q28 -36 28 -54q-15 7 -60 9h-10q-61 0 -151 -11q-97 -12 -147 -25q-12 5 -31.5 45.5t-14.5 48.5z" />
<glyph unicode="u" horiz-adv-x="901" d="M-94 196q34 57 69 103.5t85.5 109.5t59.5 75q-13 3 -26 13.5t-11 18.5q14 -2 34.5 8.5t47.5 33t45 38.5t46.5 44t30.5 30q12 6 51 -22.5t39 -41.5q-77 -74 -112 -112q-121 -131 -216 -271q-25 -38 -42.5 -87t-3.5 -61q94 47 227 153.5t290.5 250t170.5 154.5q3 3 24 22 t35.5 32t33.5 25.5t29 12.5q12 -1 37 -21.5t25 -30.5q-75 -91 -165 -238.5t-144 -260.5q-44 -92 -44 -117q0 -6 2 -8q36 0 157 98q77 63 160 145t101 104q5 8 14 8q12 0 12 -14q0 -15 -91 -109t-195 -186q-141 -123 -176 -123q-28 8 -65.5 43.5t-37.5 56.5q0 54 87.5 216 t174.5 262q-51 -40 -160.5 -140t-202.5 -185t-190.5 -157.5t-146.5 -80.5q-19 0 -57 53q-38 52 -37 69q0 28 35 87z" />
<glyph unicode="v" horiz-adv-x="620" d="M-48 88q0 28 44 139q4 10 28.5 70.5t35.5 89t28 78.5t24.5 86t7.5 64q0 25 -11 31q0 13 26 13q10 0 45 -37.5t35 -57.5q0 -79 -116 -371q-2 -6 -13 -33t-17 -41q119 138 280 302t297 275q214 169 276 169q41 0 41 -54q0 -24 -12 -52t-20 -28q-4 0 -4 11q0 3 2 22.5 t1.5 32t-5.5 12.5q-25 0 -104 -52t-148 -107q-181 -145 -512 -525q-110 -122 -136 -173q-11 0 -42 61.5t-31 74.5z" />
<glyph unicode="w" horiz-adv-x="1144" d="M-78 97q0 69 50 163.5t127 188.5q73 90 154 162t133 100q11 0 39 -23t28 -34q-28 -18 -60 -66t-51.5 -88t-17.5 -45q-13 9 -19 73q-58 -59 -115 -132q-63 -79 -105 -167.5t-42 -132.5q0 -7 5 -14t13 -7q42 0 158 87t230 196t160 174q7 4 50 -17t43 -34 q-48 -84 -97.5 -214.5t-49.5 -189.5q0 -23 25 -23q55 0 152 78.5t204 194.5q98 107 156.5 211t58.5 164q0 32 -11.5 46.5t-36.5 14.5t-60.5 -12.5t-61.5 -29.5q-8 0 -8 11q0 2 1 3q70 65 151 65q41 0 64 -28t23 -70q0 -138 -229 -401q-98 -115 -218 -213.5t-199 -98.5 q-47 0 -86.5 37t-39.5 85q0 105 81 267q-78 -95 -172.5 -178.5t-161.5 -124.5q-125 -80 -172 -80q-32 0 -62.5 34.5t-30.5 67.5z" />
<glyph unicode="x" horiz-adv-x="703" d="M-247 91q192 169 464 343q-8 77 -9 89q-31 -24 -56 -24q11 15 45 136q9 11 53.5 41t48.5 23q-1 -14 -1 -30q0 -70 11 -177l151 94q102 62 226 125t167 63q19 0 28 -16.5t7 -41.5q-2 -24 -17.5 -50.5t-23.5 -25.5q-4 0 -2 11q0 3 4 20t4.5 24.5t-3.5 22.5 q-43 0 -161 -60.5t-225 -129.5q-87 -57 -148 -101q15 -111 40 -217q53 -221 129 -399t143 -186q5 -1 9 -1q34 0 70 32q41 36 48 111q0 3 5 4.5t9.5 0.5t4.5 -4v-12q0 -78 -60 -144q-59 -64 -120 -64q-6 0 -12 1q-51 6 -103 69t-92.5 159.5t-72.5 201t-52 207.5 q-26 128 -33 176q-245 -187 -422 -377q-8 -1 -31 41t-23 65z" />
<glyph unicode="y" horiz-adv-x="880" d="M-130 -1014q0 38 65.5 189t163.5 343.5t229.5 413t247.5 374.5q5 7 41 57t60.5 83.5t65 84t75.5 88.5q-52 -37 -172.5 -141t-223.5 -192.5t-217 -161t-178 -72.5q-11 0 -46 50t-35 82q0 59 56.5 163t117 184.5t101.5 123.5q12 12 19 12q8 0 32.5 -23t24.5 -34 q-21 -29 -50 -100q-18 -44 -18 -63q0 -12 7 -15q-17 -4 -48 9q-29 -39 -89 -148t-60 -159q0 -16 12 -16q50 0 155.5 70t211.5 159t242 199.5t217 165.5q4 1 16.5 -14.5t24.5 -37t12 -34.5q-67 -97 -297 -408q-185 -249 -343.5 -538.5t-256.5 -526.5q24 45 59 107 q213 375 341 375q19 0 31 -9h-6q-51 0 -146 -116q-100 -123 -193 -298q-35 -65 -66.5 -135.5t-55.5 -127.5t-30 -70q-14 0 -55.5 46.5t-41.5 60.5z" />
<glyph unicode="z" horiz-adv-x="774" d="M-1007 -922q5 104 115.5 230.5t277 241.5t374.5 221q206 105 466 186q-55 25 -96 36q-56 15 -111 21q-4 7 -5 27.5t2 28.5q55 23 161 97t214.5 163.5t189 185.5t80.5 152q0 20 -29 20q-72 0 -179 -50.5t-198 -118t-157 -135.5q-67 -69 -67 -102q0 -22 59 -26q20 -2 36 -1 q31 0 44 6q10 -3 10 -11q0 -14 -27.5 -20t-46.5 -6q-27 0 -61.5 11t-66 39.5t-31.5 67.5q0 67 111.5 165t265.5 170.5t263 72.5q56 0 109.5 -52t53.5 -99q0 -49 -93.5 -159t-229.5 -224t-250 -177q30 -14 108 -64q221 64 385 86q13 2 35 2q28 -1 43 -8t14 -17q0 -9 -21 -9 q-18 0 -29 -1q-174 -18 -384 -80q188 -130 188 -258v-9q-5 -104 -71 -214.5t-168 -204t-229.5 -178.5t-256 -144t-248.5 -94t-206 -35q-55 0 -103.5 7.5t-95 27t-78.5 48.5q-34 30 -52 77q-16 40 -15 91v16zM-954 -939v-10q0 -73 56 -107q60 -38 164 -37q122 0 277 52 t303 139t275 191.5t207 220.5t85 214v10q0 119 -136 198q-254 -78 -481 -196q-151 -78 -282.5 -164t-236 -174t-166 -176t-65.5 -161z" />
<glyph unicode="{" horiz-adv-x="0" d="M-3163 -603q47 22 438.5 89t934.5 141t912 102q1060 81 1797 81q165 0 353 -9.5t386 -29t327 -59t129 -91.5q0 -42 -47 -79.5t-97.5 -55.5t-79.5 -18q-16 0 -16 8q0 5 38.5 29.5t77 60.5t38.5 68q0 33 -122.5 59t-314 41t-398.5 22.5t-403 7.5q-312 0 -777 -24.5 t-886 -62.5q-842 -76 -1569 -214q43 -23 48 -41q-10 2 -38 2q-117 0 -342.5 -48t-296.5 -90q-13 1 -52.5 46t-39.5 65z" />
<glyph unicode="|" horiz-adv-x="933" d="M31 -670q0 87 57 249q10 29 32 90t27.5 77t20.5 56.5t25.5 66t27 66.5t38.5 94q172 415 418 890q242 473 346 643q38 62 67 103q6 -2 39.5 -35t36.5 -41q-46 -69 -81 -145.5t-41 -113.5q-8 0 -19 9t-17 21q-170 -297 -404.5 -784t-358.5 -831q-1 -3 -13 -36t-14.5 -39.5 t-13.5 -37t-14 -41t-12.5 -38.5t-13.5 -42t-11 -39t-11 -42t-9 -38.5t-8 -41.5q-7 -56 -7 -72q0 -31 11 -47.5t21.5 -21t10.5 -5.5q0 -12 -21 -12q-6 0 -46.5 28t-45.5 36q-17 27 -17 74zM1156 1587h1h1h-2z" />
<glyph unicode="}" horiz-adv-x="0" d="M-3263 -603q66 23 554 100.5t1184 163.5t1168 114q1170 69 2437 69q203 0 442 -12t473.5 -35.5t390 -66t155.5 -94.5q0 -62 -77 -108.5t-136 -46.5q-20 0 -20 8q0 5 24.5 19.5t53.5 31t53.5 43t24.5 51.5q0 44 -256.5 83t-613.5 60t-682 21q-455 0 -1107 -20t-1156 -55 q-568 -39 -1142 -114.5t-1048 -164.5q54 -24 60 -43q-19 3 -50 3q-144 0 -330.5 -37t-282.5 -81q-17 1 -68 46t-51 65z" />
<glyph unicode="~" horiz-adv-x="1457" d="M152 259q58 69 149.5 121t149.5 52q43 0 89.5 -22.5t87 -54t80.5 -63.5t83.5 -54.5t82.5 -22.5q220 0 428 243q-8 1 -20.5 11t-19.5 21.5t-2 14.5q50 20 140 81q8 0 18 -9t11 -18q-33 -60 -103 -133.5t-156 -140t-188 -111.5t-187 -45q-39 0 -85.5 23t-89 56t-83.5 66.5 t-79.5 56.5t-65.5 23q-64 0 -119 -39t-90 -86q-8 0 -19.5 11t-11.5 19z" />
<glyph unicode="&#xa1;" horiz-adv-x="706" d="M-53 -185q0 27 85 184.5t151 260.5q206 327 477 668q-15 1 -30 4.5t-25.5 9.5t-8.5 12q27 11 95.5 68t122.5 111q5 1 33.5 -26.5t27.5 -32.5q-313 -361 -581 -788q-132 -208 -209 -374q16 2 33 1.5t29.5 -3t11.5 -5.5q-40 -9 -134 -148q-5 -1 -36.5 15t-36.5 21 q-5 9 -5 22zM940 1279q-1 17 14 57.5t37 75.5q42 68 86.5 123t62.5 56q23 2 60.5 -31.5t36.5 -52.5q-25 -2 -78 -42t-108 -104q-30 -35 -48 -64t-20.5 -45t4.5 -23q-2 -13 -24 9t-23 41z" />
<glyph unicode="&#xa2;" horiz-adv-x="1100" d="M191 342q0 12 1 18q17 99 97 218t184.5 216.5t224.5 163.5t211 66q20 0 38 -5q62 84 89 116q17 -1 39 -24.5t21 -34.5q-29 -35 -75 -95q44 -41 44 -83q0 -22 -16 -31q-10 -5 -11 4q-7 34 -46 70q-236 -320 -449 -682q137 60 313 178.5t295 231.5q8 8 16 8q9 0 9 -11 t-9 -20q-135 -141 -329 -280t-345 -193q-155 -277 -160 -369q-1 -21 7 -34.5t16.5 -19t8.5 -9.5q0 -9 -13 -7q-15 1 -38.5 26t-29.5 41q-10 22 -7 53q4 88 111 293q-18 -2 -25 -2q-40 0 -74.5 20.5t-55 51t-31.5 63.5t-11 62zM301 286q0 -23 22 -45.5t77 -22.5q18 0 28 2 q97 174 229.5 378.5t250.5 368.5q-64 -9 -148 -63.5t-162.5 -135t-146.5 -169t-109 -173.5t-41 -140z" />
<glyph unicode="&#xa3;" horiz-adv-x="2346" d="M-193 -216q9 8 48.5 20t89.5 24t113.5 25.5t110 22.5t91 17.5t45.5 8.5l53 10q108 176 277.5 394t364.5 427q-180 -29 -214 -37q16 -16 25 -33.5t2 -21.5q-40 13 -176 -3t-182 -39q-11 11 -25 38.5t-7 35.5q239 60 428 92q113 19 210 31q146 151 287.5 276t284 225.5 t275.5 157t240 56.5q56 0 108 -30t81.5 -84.5t18.5 -115.5q-13 -74 -72.5 -156t-116.5 -130t-78 -48q-8 0 -10 1.5t-2 9.5q0 3 19 19t48 43.5t59.5 63t56 85.5t35.5 103q16 89 -19 121.5t-117 32.5q-183 0 -431.5 -168t-519.5 -445q176 15 448 15q46 0 93 -2t110.5 -9 t110.5 -18.5t80.5 -33.5t33.5 -51q0 -32 -40 -68.5t-67 -45.5q-20 -7 -19 4q1 9 15 22q65 62 65 84t-43 38.5t-110.5 23.5t-122 10.5t-104.5 3.5q-244 3 -505 -31q-188 -199 -359 -416t-292 -405q511 73 1041 70q70 0 169.5 -6.5t221 -19.5t204.5 -39.5t83 -62.5 q0 -32 -43 -66t-70 -34q-18 0 -18 18q0 3 19.5 15.5t39 30.5t19.5 35q0 33 -233.5 58t-417.5 25q-237 0 -523 -27t-537 -69q-145 -239 -145 -331q-14 0 -50 31.5t-36 45.5q0 45 41 136q-63 13 -219.5 -20.5t-196.5 -55.5q-18 6 -40 53t-4 63zM7 -234q59 6 145 10 q96 4 129 -3q4 8 34 63q-13 -2 -36 -7t-30 -6q-98 -17 -242 -57z" />
<glyph unicode="&#xa4;" horiz-adv-x="1626" d="M-223 -156q101 132 521 426q-1 4 -1 13q0 89 68 182.5t157 157.5q-31 33 -31 40q0 46 62 106q-63 131 -74 176q0 11 31 35t39 16q13 -66 57 -184q105 71 231 78q90 5 162.5 -32.5t99.5 -98.5q205 101 374.5 157t269.5 56q35 0 67 -15t40 -42q8 -25 -13 -69t-50 -56 q-3 2 1 15.5t9 34t2 36.5q-11 56 -93 56q-63 0 -189 -40q-199 -62 -408 -168q3 -15 3 -30q-4 -92 -70.5 -194.5t-170.5 -190.5q85 -117 115 -151q18 -21 30.5 -35.5t30.5 -33t32.5 -30.5t32 -23.5t32.5 -16t31.5 -3.5t31.5 9q10 5 16 7t9.5 1.5t4 -3.5t-0.5 -7t-3 -10 q-18 -44 -55 -47q-79 -8 -209 145q-60 71 -131 172q-90 -71 -184.5 -112.5t-172.5 -41.5q-42 0 -89 20t-73 59q-178 -137 -316 -257q59 -16 60 -21q-10 0 -23.5 -6t-27 -14.5t-31 -22.5t-30.5 -25.5t-30.5 -28t-26 -25.5t-22 -22.5l-14.5 -14.5q-21 2 -57.5 31.5t-23.5 41.5 zM392 262q0 -6 2 -16q5 -30 29.5 -48.5t62.5 -18.5q65 0 151.5 39.5t171.5 105.5q-68 102 -101 159q-164 -108 -316 -221zM415 349q163 110 268 174l-39 71q-70 -43 -134 -111t-95 -134zM645 714q30 -74 78 -166q130 80 221 129q48 27 107 57q-23 88 -140 88 q-85 0 -153.5 -30.5t-112.5 -77.5zM745 506q24 -46 97 -156q144 122 193 244q19 49 21 102q-152 -86 -311 -190z" />
<glyph unicode="&#xa5;" horiz-adv-x="2374" d="M72 82q33 16 196 121q31 20 29 20q4 0 4 -8q1 -9 -24 -37.5t-53 -50.5q317 75 662 115q6 11 29 50t37 61q-84 27 -142 90.5t-58 162.5q0 94 43.5 224t92 227t117.5 220q-16 -10 -59 -10q-14 0 -14 8q0 6 4 8q54 33 92 82t84 128q10 0 42 -49.5t35 -62.5 q-117 -155 -226 -388.5t-109 -384.5q0 -81 31.5 -136t94.5 -73q10 17 169 269q13 0 38 -26.5t25 -45.5q-27 -42 -70.5 -112t-56.5 -91q122 11 286.5 78t331 166.5t331 226t290.5 253t204 251t78 216.5q0 19 -11 33.5t-26 22t-30.5 12.5t-26.5 7t-11 3q0 6 10 10.5t26 4.5 q53 0 90.5 -28.5t37.5 -73.5q0 -97 -85 -230.5t-221 -269t-312.5 -269.5t-353 -237.5t-348.5 -167.5t-294 -64h-1l-49 -83q359 34 644 34q430 0 430 -109q0 -32 -40 -68t-67 -45q-21 -7 -19 4q2 8 15 21q65 62 65 84t-43.5 38.5t-110 24t-122.5 10.5t-104 3q-356 0 -677 -45 q-79 -134 -109 -191q271 37 517 37q30 0 73 -3t106.5 -11t106 -28.5t42.5 -49.5q0 -16 -17.5 -30t-28.5 -14h-2q-4 3 -4 7q0 2 6 13.5t6 21.5q0 24 -90.5 37t-189.5 13q-277 0 -560 -60q-44 -84 -63 -131q10 1 34 1q40 0 40 -5q-27 -17 -50 -49t-37.5 -65.5t-25 -64.5 t-16.5 -51l-5 -20q-15 0 -54.5 37.5t-39.5 45.5q0 79 98 275q-72 -18 -195 -55q-6 0 -21.5 26t-15.5 38l1 1v2q102 36 270 65q30 57 106 190q-341 -58 -682 -176q-21 -1 -63 28.5t-37 41.5z" />
<glyph unicode="&#xa7;" horiz-adv-x="1640" d="M-332 -409q92 20 288.5 60t310 64t271.5 62.5t284 75.5q101 30 187.5 64t153 79.5t66.5 84.5q0 100 -214 193q-220 -84 -329 -107q-53 -11 -79 -5q-20 5 -41 33t-18 50q9 65 126 157q-120 48 -189.5 96.5t-69.5 110.5q0 59 36.5 112.5t100.5 94t137.5 71.5t160.5 55 q126 35 227 48q-115 73 -114 168q1 65 51.5 127t127 106.5t166.5 80t169 54.5t134 23q105 8 136 -34q51 64 83 80q10 4 18 -8q3 -6 1 -8q-24 -18 -67.5 -108t-69 -179.5t-4.5 -103.5q-9 -9 -53.5 34t-48.5 63q0 35 95 169q1 3 1 10q0 27 -36.5 37t-84.5 6q-60 -5 -146.5 -31 t-171 -65t-144 -94t-59.5 -108q0 -13 5.5 -28t13.5 -27.5t22.5 -27.5t26 -26.5t31.5 -26t32 -23t33.5 -22t30 -19t28 -17t21.5 -12.5q190 -112 235 -145q90 -67 99 -129q1 -9 1 -19q0 -36 -26.5 -75.5t-72.5 -74t-94 -65t-104.5 -58t-90.5 -42.5t-65 -27l-40 -17 q201 -100 201 -204q0 -192 -698 -362q-25 -6 -107 -26t-165.5 -40.5t-157.5 -37.5q26 -4 39 -8q8 -2 15 -9.5t9.5 -14.5t0.5 -8q-71 15 -158.5 -0.5t-153 -43t-132.5 -54.5t-95 -30q-38 8 -60.5 37.5t-15.5 63.5zM523 651q0 -12 7.5 -24.5t23.5 -26t34.5 -25.5t49 -27 t56.5 -27t67 -29.5t72 -30t80 -32t82 -33.5q58 -24 96 -41q29 11 91 37q348 148 348 245q0 62 -79.5 135.5t-185.5 123.5q-86 40 -113 53h-1q-72 0 -173.5 -19t-205.5 -53.5t-176.5 -94.5t-72.5 -131zM601 268q4 -19 34 -24t66.5 0.5t75.5 16.5q116 30 165 43 q-30 11 -81 28.5t-67 23.5l-94 36q-103 -102 -99 -124z" />
<glyph unicode="&#xa8;" horiz-adv-x="526" d="M177 896q7 21 52 106.5t77 129.5q24 8 61 -24t29 -45q-39 -39 -102.5 -121.5t-63.5 -114.5q-20 -2 -37.5 24t-15.5 45zM404 886q7 21 52.5 106t76.5 129q16 5 40 -9t39.5 -32.5t10.5 -26.5q-42 -43 -104 -123t-62 -112q-20 -2 -37.5 23.5t-15.5 44.5z" />
<glyph unicode="&#xa9;" horiz-adv-x="1751" d="M230 521q0 90 42 190t106.5 186.5t147.5 171t158.5 146.5t146.5 109q54 35 73 35q7 -6 18.5 -49t7.5 -57q-22 -3 -75 -38t-121.5 -91.5t-142 -135t-134.5 -162t-100.5 -180t-39.5 -182.5q0 -149 202 -149q142 0 341 73q233 84 452.5 240t355.5 335q156 208 156 362 q0 94 -57 137t-178 43q-111 0 -196.5 -20t-205.5 -85q-12 2 -12 23q0 4 1 5q77 59 216 106t255 47q125 0 196 -52t71 -153q0 -170 -193 -427q-144 -192 -364 -352t-460 -251q-217 -85 -375 -85q-131 0 -211.5 75.5t-80.5 184.5zM705 747q16 90 123.5 205t240.5 196t222 84 q30 38 40 45q14 3 46 -21t38 -35q-37 -23 -97 -105t-75 -117q-3 -1 -13.5 19t-18 45t-4.5 35q-2 2 17 26t37 42q-11 -6 -22 -11q-72 -34 -172 -118.5t-177.5 -183t-77.5 -157.5q0 -16 9.5 -29.5t35.5 -13.5q73 0 248.5 99.5t288.5 204.5q5 7 13 7q6 0 6 -9q0 -7 -6 -14 q-123 -125 -298 -236.5t-273 -111.5q-43 0 -74.5 29.5t-44 63.5t-12.5 61z" />
<glyph unicode="&#xad;" horiz-adv-x="1313" d="M185 336q0 18 238.5 34t346.5 16q325 0 325 -68q0 -17 -19.5 -39.5t-32.5 -22.5q-5 0 -5 4q0 2 3 15.5t3 25.5q0 41 -214 41q-129 0 -327 -19q18 -18 18 -33q0 -3 -1 -5q-11 3 -37 3q-111 0 -264 -41q-13 4 -23.5 36.5t-10.5 52.5z" />
<glyph unicode="&#xae;" horiz-adv-x="1694" d="M142 521q0 94 47.5 201.5t121.5 201t162 177.5t171 142.5t146 85.5q8 -7 28 -35t23 -40q145 53 326 53q38 0 82 -6.5t88 -20t72.5 -38.5t28.5 -57q0 -18 -30 -44t-76 -52t-89.5 -47.5t-82.5 -37.5l-59 -24q31 -128 152 -334q202 149 329 316q154 205 154 363 q0 94 -57 137t-178 43q-111 0 -196.5 -20t-205.5 -85q-13 3 -13 23q0 4 1 5q77 59 216 106t255 47q125 0 196 -52t71 -153q0 -172 -192 -427q-142 -188 -355 -344q83 -130 136 -130q20 0 32 17.5t13 39.5q0 18 -1 29q0 8 3 8q8 -1 15.5 -21t7.5 -35q0 -47 -33 -86t-60 -39 q-83 0 -189 163q-190 -128 -393 -205q-217 -85 -376 -85q-131 0 -211 75.5t-80 184.5zM229 464q0 -149 201 -149q148 0 344 72q204 73 402 205q-110 181 -165 354q-74 -25 -129 -39q-57 -88 -91 -157q54 0 54 -7q-21 -11 -45.5 -45t-39 -62t-12.5 -28q-10 0 -51 35t-40 40 q3 51 93 198q-30 -4 -44 -4q-30 0 -61.5 11.5t-31.5 31.5q0 5 5 5q1 0 7 -3.5t18.5 -7.5t29.5 -4q35 0 102 12q85 132 225 321q-236 -25 -422 -179q-92 -87 -166 -178.5t-128.5 -206.5t-54.5 -215zM915 958q70 22 115 39l63 39q0 -2 0.5 -7t0.5 -8l35 14q68 28 115.5 63 t47.5 55q0 47 -73 70.5t-159 23.5q-14 0 -36 -2l-23 -2q18 0 46 -20t28 -32q-80 -111 -160 -233z" />
<glyph unicode="&#xb4;" horiz-adv-x="991" d="M319 838q206 66 404 185.5t276 229.5q16 0 46.5 -32.5t27.5 -46.5q-74 -63 -159.5 -117t-191 -101.5t-183.5 -78.5t-207 -78q-18 18 -13 39z" />
<glyph unicode="&#xb5;" horiz-adv-x="874" d="M-769 -1099q1 22 10.5 52.5t29.5 77.5l20 47q89 220 237 500.5t320 547.5q96 148 259 352q-19 40 -14 57q29 15 181 129q18 12 50.5 -14t26.5 -44q-17 -21 -82 -81q-140 -146 -245 -302q-25 -38 -42.5 -87t-3.5 -61q94 47 207.5 137t280.5 242t199 179q2 2 24 22 t36.5 32.5t33.5 25t29 12.5q12 -1 37 -21.5t25 -30.5q-75 -91 -165 -238.5t-144 -260.5t-42 -125q35 0 156 98q77 64 161 145.5t101 103.5q5 8 14 8q12 0 12 -14q0 -15 -91.5 -109t-195.5 -186q-141 -123 -175 -123q-28 8 -65.5 43.5t-37.5 56.5q0 54 87.5 216t174.5 262 q-15 -11 -95 -81q-36 -32 -122.5 -111.5t-143 -129.5t-128.5 -109.5t-125 -92.5t-87 -39q-14 0 -44 41q-156 -235 -304.5 -516t-231.5 -511q14 3 32 3.5t30 -1.5t11 -5q-39 -13 -118 -156q-5 -1 -38 12.5t-39 18.5q-7 13 -6 28z" />
<glyph unicode="&#xb6;" horiz-adv-x="2487" d="M207 460q11 92 102.5 212.5t226.5 237t299.5 231.5t320 201t288 139.5t203.5 53.5q51 0 108 -40t69 -83q128 175 185 232q21 0 60.5 -38t39.5 -54q-36 -12 -88.5 -76t-88 -134t-27.5 -99q1 -5 18 -29l-2 -2h-12.5t-18 10t-18.5 28q-11 25 -8 54q-26 -36 -57 -83 q-293 -443 -468 -748q84 25 177 50q149 245 284.5 452t174.5 250q11 3 41.5 -34.5t28.5 -44.5q-34 -25 -145.5 -190.5t-252.5 -395.5q126 36 239.5 71t250 84t233.5 92.5t163 91t66 86.5q0 21 -22.5 31.5t-46 13t-23.5 4.5q0 3 4.5 5.5t10 3.5t12.5 2q48 5 90 -16t42 -45 q0 -57 -101 -126.5t-272 -138t-337.5 -124.5t-354.5 -111q-187 -309 -298 -523q-172 -331 -226 -460q-12 -29 -15.5 -38.5t-15.5 -41.5t-16 -49t-8.5 -41t-1 -38.5t12.5 -22.5q1 -3 -4.5 -5t-13.5 -2q-18 0 -50 37t-31 59q1 46 66 202q-32 -13 -39 -13q-27 0 -63 43.5 t-36 66.5q0 144 228 563q34 64 81 148q-143 -35 -228.5 -54.5t-218 -40t-232.5 -20.5q-134 0 -215.5 52t-69.5 154zM963 -351q0 -26 4 -41q10 3 19.5 8t16 9.5t15.5 13.5l12 12t11.5 13.5t9.5 11.5q76 167 156 316q88 167 263 455q-50 -14 -172 -46q-81 -146 -127 -239 q-73 -141 -140.5 -296.5t-67.5 -216.5z" />
<glyph unicode="&#xb8;" horiz-adv-x="447" d="M-378 -430q0 60 47 102q4 4 15.5 7t13.5 1q-39 -39 -39 -90q0 -79 85 -85q65 -5 137 25t125 74t89 88t39 70q5 41 -36 48q-27 5 -74 -12t-80 -35q-10 0 -31.5 19.5t-21.5 26.5q11 36 64.5 102.5t92.5 99.5q8 1 31.5 -8t23.5 -16q-19 -12 -78 -82t-76 -111q135 73 201 47 q33 -13 60 -44t25 -57q-5 -66 -77.5 -144t-175 -130t-185.5 -46q-60 4 -117.5 48.5t-57.5 101.5z" />
<glyph unicode="&#xbf;" horiz-adv-x="1836" d="M14 -120q3 50 37.5 119t64.5 111t58 74q208 239 832 755q-18 0 -52 5.5t-33 13.5q0 3 1 5q46 13 129.5 67.5t116.5 81.5q6 0 44.5 -41.5t39.5 -50.5q-14 -25 -134.5 -121.5t-271 -210.5t-329 -265.5t-286.5 -266.5l-7 -8q-8 -8 -15.5 -16t-19.5 -21.5t-23.5 -27t-25 -31 t-24.5 -34t-22.5 -35t-19.5 -35t-13 -34t-6 -32.5q-6 -102 186 -118q114 -8 262 21.5t292.5 83t286.5 125.5t250 145.5t176 146t71 124.5q1 25 -27 34t-82 11q-26 1 -26 10q0 4 12.5 11t34.5 12t42 4q42 -2 88.5 -45t45.5 -81q-3 -61 -73 -139.5t-181 -155.5t-257 -150 t-295.5 -127t-302.5 -83t-273 -21q-41 3 -86.5 16t-89 35.5t-70.5 59t-25 79.5zM1280 1261q2 17 22.5 55t48.5 69q51 59 104 106.5t71 46.5q22 -1 53.5 -39.5t28.5 -57.5q-25 2 -83.5 -29.5t-123.5 -86.5q-34 -30 -56 -56t-27 -41.5t0 -23.5q-4 -12 -21 12q-18 26 -17 45z " />
<glyph unicode="&#xc0;" d="M20 -326q10 44 97.5 145t175 181.5t102.5 80.5q7 0 11 -4.5t3.5 -8.5t-1.5 -6q-25 -20 -82 -77t-127.5 -146t-96.5 -153q91 16 203.5 67.5t243 137t254.5 177t281 215.5q156 124 478 394q-569 -86 -1075 -204q-15 9 -27.5 55t-9.5 64q194 44 314 81q69 21 181 77 q1 1 2.5 -0.5t1.5 -3.5q0 -14 -44.5 -50.5t-72.5 -53.5l-23 -13q279 51 832 114q516 433 703 577q298 229 377 230q9 0 38.5 -29.5t33.5 -44.5q-115 -221 -277 -662h79q80 -1 157.5 -12.5t149.5 -42t95 -74.5q13 -25 -1 -54t-40 -51q21 57 -9 97q-23 31 -65 50.5t-103 27.5 t-101 10.5t-107 3.5h-72q-117 -319 -198.5 -609t-94.5 -465q80 181 185 289q6 6 9 -8q1 -6 0 -14q-22 -29 -104 -208.5t-109 -292.5q-23 2 -70 30t-49 48q-15 145 76 487.5t241 739.5q-103 -6 -258 -20q-185 -17 -453 -53q-491 -425 -525 -455q-345 -301 -628.5 -497 t-408.5 -196q-39 0 -68 49t-24 80zM1745 754q164 18 347 35q159 14 309 21q151 398 293 677q-94 -1 -949 -733zM2464 1909q1 4 15 13t42 20.5t59 18.5q-7 -8 -2 -35q10 -77 93.5 -159t192 -135t197.5 -60q1 -4 -4 -12.5t-10 -11.5q-71 5 -172 40t-194 84.5t-157 114.5 t-60 122z" />
<glyph unicode="&#xc1;" d="M20 -326q10 44 97.5 145t175 181.5t102.5 80.5q7 0 11 -4.5t3.5 -8.5t-1.5 -6q-25 -20 -82 -77t-127.5 -146t-96.5 -153q91 16 203.5 67.5t243 137t254.5 177t281 215.5q156 124 478 394q-569 -86 -1075 -204q-15 9 -27.5 55t-9.5 64q194 44 314 81q69 21 181 77 q1 1 2.5 -0.5t1.5 -3.5q0 -14 -44.5 -50.5t-72.5 -53.5l-23 -13q279 51 832 114q516 433 703 577q298 229 377 230q9 0 38.5 -29.5t33.5 -44.5q-115 -221 -277 -662h79q80 -1 157.5 -12.5t149.5 -42t95 -74.5q13 -25 -1 -54t-40 -51q21 57 -9 97q-23 31 -65 50.5t-103 27.5 t-101 10.5t-107 3.5h-72q-117 -319 -198.5 -609t-94.5 -465q80 181 185 289q6 6 9 -8q1 -6 0 -14q-22 -29 -104 -208.5t-109 -292.5q-23 2 -70 30t-49 48q-15 145 76 487.5t241 739.5q-103 -6 -258 -20q-185 -17 -453 -53q-491 -425 -525 -455q-345 -301 -628.5 -497 t-408.5 -196q-39 0 -68 49t-24 80zM1745 754q164 18 347 35q159 14 309 21q151 398 293 677q-94 -1 -949 -733zM2302 1607q211 45 420 144.5t297 201.5q16 -2 44 -38t23 -49q-80 -56 -170 -100.5t-201.5 -82t-189 -60t-214.5 -57.5q-16 22 -9 41z" />
<glyph unicode="&#xc2;" d="M20 -326q10 44 97.5 145t175 181.5t102.5 80.5q7 0 11 -4.5t3.5 -8.5t-1.5 -6q-25 -20 -82 -77t-127.5 -146t-96.5 -153q91 16 203.5 67.5t243 137t254.5 177t281 215.5q156 124 478 394q-569 -86 -1075 -204q-15 9 -27.5 55t-9.5 64q194 44 314 81q69 21 181 77 q1 1 2.5 -0.5t1.5 -3.5q0 -14 -44.5 -50.5t-72.5 -53.5l-23 -13q279 51 832 114q516 433 703 577q298 229 377 230q9 0 38.5 -29.5t33.5 -44.5q-115 -221 -277 -662h79q80 -1 157.5 -12.5t149.5 -42t95 -74.5q13 -25 -1 -54t-40 -51q21 57 -9 97q-23 31 -65 50.5t-103 27.5 t-101 10.5t-107 3.5h-72q-117 -319 -198.5 -609t-94.5 -465q80 181 185 289q6 6 9 -8q1 -6 0 -14q-22 -29 -104 -208.5t-109 -292.5q-23 2 -70 30t-49 48q-15 145 76 487.5t241 739.5q-103 -6 -258 -20q-185 -17 -453 -53q-491 -425 -525 -455q-345 -301 -628.5 -497 t-408.5 -196q-39 0 -68 49t-24 80zM1745 754q164 18 347 35q159 14 309 21q151 398 293 677q-94 -1 -949 -733zM2321 1620q-5 58 10 69q95 18 257.5 116.5t214.5 148.5q8 2 33.5 -14.5t27.5 -21.5q-3 -28 -5 -76t9.5 -120t34.5 -120q12 -26 20 -40.5t30 -33.5t50 -21 q15 -1 57 13q1 -2 1 -5q-1 -18 -28.5 -29.5t-50.5 -9.5q-41 2 -74.5 38t-55.5 85q-26 60 -41 130.5t-13 103.5q-72 -60 -214.5 -150.5t-239.5 -119.5q-18 -1 -23 57z" />
<glyph unicode="&#xc3;" d="M20 -326q10 44 97.5 145t175 181.5t102.5 80.5q7 0 11 -4.5t3.5 -8.5t-1.5 -6q-25 -20 -82 -77t-127.5 -146t-96.5 -153q91 16 203.5 67.5t243 137t254.5 177t281 215.5q156 124 478 394q-569 -86 -1075 -204q-15 9 -27.5 55t-9.5 64q194 44 314 81q69 21 181 77 q1 1 2.5 -0.5t1.5 -3.5q0 -14 -44.5 -50.5t-72.5 -53.5l-23 -13q279 51 832 114q516 433 703 577q298 229 377 230q9 0 38.5 -29.5t33.5 -44.5q-115 -221 -277 -662h79q80 -1 157.5 -12.5t149.5 -42t95 -74.5q13 -25 -1 -54t-40 -51q21 57 -9 97q-23 31 -65 50.5t-103 27.5 t-101 10.5t-107 3.5h-72q-117 -319 -198.5 -609t-94.5 -465q80 181 185 289q6 6 9 -8q1 -6 0 -14q-22 -29 -104 -208.5t-109 -292.5q-23 2 -70 30t-49 48q-15 145 76 487.5t241 739.5q-103 -6 -258 -20q-185 -17 -453 -53q-491 -425 -525 -455q-345 -301 -628.5 -497 t-408.5 -196q-39 0 -68 49t-24 80zM1745 754q164 18 347 35q159 14 309 21q151 398 293 677q-94 -1 -949 -733zM2345 1692q0 21 41.5 64.5t101.5 80.5t103 37q42 0 89.5 -32.5t84 -71.5t81.5 -71.5t83 -32.5q85 0 183 71.5t164 165.5q36 50 47 69t18 19q10 0 10 -18 q0 -22 -46 -84q-88 -123 -210.5 -214t-229.5 -91q-37 0 -85.5 33.5t-87 74t-80.5 74t-68 33.5q-33 0 -67 -18.5t-56 -41t-40.5 -41t-25.5 -18.5q-10 0 -10 12z" />
<glyph unicode="&#xc4;" d="M20 -326q10 44 97.5 145t175 181.5t102.5 80.5q7 0 11 -4.5t3.5 -8.5t-1.5 -6q-25 -20 -82 -77t-127.5 -146t-96.5 -153q91 16 203.5 67.5t243 137t254.5 177t281 215.5q156 124 478 394q-569 -86 -1075 -204q-15 9 -27.5 55t-9.5 64q194 44 314 81q69 21 181 77 q1 1 2.5 -0.5t1.5 -3.5q0 -14 -44.5 -50.5t-72.5 -53.5l-23 -13q279 51 832 114q516 433 703 577q298 229 377 230q9 0 38.5 -29.5t33.5 -44.5q-115 -221 -277 -662h79q80 -1 157.5 -12.5t149.5 -42t95 -74.5q13 -25 -1 -54t-40 -51q21 57 -9 97q-23 31 -65 50.5t-103 27.5 t-101 10.5t-107 3.5h-72q-117 -319 -198.5 -609t-94.5 -465q80 181 185 289q6 6 9 -8q1 -6 0 -14q-22 -29 -104 -208.5t-109 -292.5q-23 2 -70 30t-49 48q-15 145 76 487.5t241 739.5q-103 -6 -258 -20q-185 -17 -453 -53q-491 -425 -525 -455q-345 -301 -628.5 -497 t-408.5 -196q-39 0 -68 49t-24 80zM1745 754q164 18 347 35q159 14 309 21q151 398 293 677q-94 -1 -949 -733zM2597 1682q7 21 52 106.5t77 129.5q24 8 61 -24.5t29 -45.5q-40 -40 -103 -121.5t-63 -113.5q-20 -2 -37.5 24t-15.5 45zM2824 1672q7 21 52.5 106t76.5 129 q16 5 40 -9t39.5 -33t10.5 -27q-42 -43 -104 -123t-62 -112q-20 -2 -37.5 24t-15.5 45z" />
<glyph unicode="&#xc5;" d="M20 -326q10 44 97.5 145t175 181.5t102.5 80.5q7 0 11 -4.5t3.5 -8.5t-1.5 -6q-25 -20 -82 -77t-127.5 -146t-96.5 -153q91 16 203.5 67.5t243 137t254.5 177t281 215.5q156 124 478 394q-569 -86 -1075 -204q-15 9 -27.5 55t-9.5 64q194 44 314 81q69 21 181 77 q1 1 2.5 -0.5t1.5 -3.5q0 -14 -44.5 -50.5t-72.5 -53.5l-23 -13q279 51 832 114q162 136 215 180t190.5 158t200 162.5t156.5 120t153.5 109.5t103.5 58q-22 16 -36 38t-14 42q0 47 56 99q-14 11 -14 18q6 28 50.5 67t100.5 67.5t92 28.5q58 0 99.5 -38t41.5 -77 q0 -69 -91.5 -150.5t-181.5 -108.5q27 -29 30 -41q-115 -221 -277 -662h79q80 -1 157.5 -12.5t149.5 -42t95 -74.5q13 -25 -1 -54t-40 -51q21 57 -9 97q-23 31 -65 50.5t-103 27.5t-101 10.5t-107 3.5h-72q-117 -319 -198.5 -609t-94.5 -465q80 181 185 289q6 6 9 -8 q1 -6 0 -14q-22 -29 -104 -208.5t-109 -292.5q-23 2 -70 30t-49 48q-15 145 76 487.5t241 739.5q-103 -6 -258 -20q-185 -17 -453 -53q-491 -425 -525 -455q-345 -301 -628.5 -497t-408.5 -196q-39 0 -68 49t-24 80zM1745 754q164 18 347 35q159 14 309 21q151 398 293 677 q-94 -1 -949 -733zM2699 1573q0 -8 5.5 -14.5t16.5 -6.5q41 0 104 33t115 88.5t52 108.5q0 43 -40 43q-42 0 -101 -28t-100 -68q36 -30 36 -36q-88 -65 -88 -120z" />
<glyph unicode="&#xc6;" horiz-adv-x="4018" d="M2 -321q19 66 117.5 192.5t281.5 281.5q25 -1 13 -19q-88 -74 -192 -213t-143 -235q173 31 413 184t568 413q153 121 397 326q-110 -14 -989 -131q-21 3 -36 47.5t-11 66.5q368 83 466 143q22 15 30 15q3 0 3 -4q0 -14 -44.5 -50.5t-71.5 -53.5q-25 -14 -77 -40 q229 24 640 62q58 5 176 17q526 442 699 578q367 290 456 291q8 0 39 -33.5t33 -40.5q-5 -9 -43 -88q104 3 444.5 43.5t715.5 79t583 38.5q263 0 388 -42t125 -148q0 -45 -34.5 -96t-82 -87.5t-94 -61t-72.5 -24.5q-4 0 -4 4q0 2 22.5 18.5t55 42.5t65 56.5t56 67t24.5 68.5 v10q0 26 -7 44.5t-34 39t-74.5 32.5t-134.5 20.5t-208 8.5q-227 0 -534.5 -37.5t-544.5 -82.5t-427 -82.5t-211 -37.5q-6 0 -17 29.5t-17 58.5q-110 -241 -230 -570q208 20 409 36q135 141 210 214q-10 -4 -12 -4q-16 7 -26.5 19.5t-10.5 19.5q52 1 147.5 91.5t133.5 147.5 q12 3 61.5 -38t55.5 -63q-163 -117 -411 -376q318 21 589 21q306 0 448.5 -37.5t142.5 -125.5q0 -41 -41.5 -71t-72.5 -30q0 6 16.5 18.5t32.5 31.5t16 43q0 126 -580 126q-228 0 -600 -28q-199 -214 -382.5 -445.5t-303.5 -425.5t-120 -273q0 -20 25 -39.5t59 -19.5 q37 0 230 43t420.5 95t513 95t485.5 43q430 0 430 -136q0 -65 -60.5 -135.5t-88.5 -70.5q-9 0 -9 7t22 29.5t44 53.5t22 59q0 60 -74.5 88.5t-229.5 37.5q-84 4 -127 4q-206 0 -441 -31t-428.5 -75t-359.5 -88t-279.5 -75t-142.5 -31q-36 0 -91.5 66t-55.5 111q0 15 4 30 q23 176 101.5 449t189.5 573q-305 -32 -772 -91q-244 -210 -443 -385q-344 -300 -628.5 -496.5t-409.5 -196.5q-41 0 -66 53t-20 81zM1649 692q122 13 360.5 38.5t351.5 37.5q159 422 310 719q-99 -1 -1022 -795zM2246 44q234 335 593 719q-193 -17 -379 -36 q-143 -399 -214 -683z" />
<glyph unicode="&#xc7;" horiz-adv-x="2434" d="M33 -224q0 271 353 663q191 212 422.5 406t481.5 350q219 137 478 236.5t439 99.5q105 0 175.5 -59.5t77.5 -155.5q39 47 88 98q88 90 180.5 143.5t166.5 53.5q25 0 46 -14.5t21 -27.5q0 -7 -8 -7q-2 0 -5.5 4t-14 8.5t-29.5 4.5q-87 0 -187.5 -85.5t-182 -211 t-145.5 -262t-91 -245.5l-97 77q14 71 68 176.5t131 211.5q14 39 14 69q-1 75 -47 114.5t-111 39.5q-180 0 -440 -111t-493 -262q-244 -158 -468.5 -351t-388.5 -389q-36 -43 -79.5 -104t-99.5 -150.5t-93 -185.5t-37 -168q0 -206 284 -206q130 0 324 40q43 53 71 77 q6 1 42.5 -15t47.5 -25q343 89 742 248t644 291q12 6 22 2.5t9 -11.5q0 -8 -14 -17q-234 -145 -662.5 -318t-801.5 -263q-60 -69 -124.5 -159t-74.5 -122q135 73 201 47q33 -13 60 -44t25 -57q-5 -66 -77.5 -144t-175.5 -130t-186 -46q-60 4 -117.5 48.5t-57.5 101.5 q0 58 48 101q4 4 15 7.5t13 1.5q-38 -38 -38 -90q0 -79 84 -85q65 -5 137 25t125 74t89 88t39 70q3 21 -4 32.5t-31 15.5q-27 5 -74 -12t-80 -35q-10 0 -50 29.5t-40 36.5q17 52 143 214q-181 -33 -296 -33q-98 0 -186 37t-144 106t-56 153z" />
<glyph unicode="&#xc8;" horiz-adv-x="2243" d="M142 643q19 5 107 26t146 36t128.5 36t103.5 37q-14 -36 -38 -80q306 57 486 83q115 123 243 249q-10 -4 -12 -4q-16 7 -26.5 19.5t-10.5 19.5q52 1 147.5 91.5t133.5 147.5q13 4 65 -37t52 -64q-178 -128 -435 -401q253 30 445 30q89 0 168 -6.5t151 -21.5t114 -43.5 t42 -67.5q0 -41 -43 -84q5 22 5 47q0 31 -23 54t-67 37t-89 23t-109.5 12.5t-105.5 4.5t-98 1q-163 0 -436 -35q-306 -332 -545.5 -668.5t-239.5 -453.5q0 -20 25 -39.5t59 -19.5q37 0 230 43t420.5 95t513 95t485.5 43q430 0 430 -136q0 -65 -60.5 -135.5t-88.5 -70.5 q-9 0 -9 7t22 29.5t44 53.5t22 59q0 60 -75.5 89.5t-228.5 36.5q-84 4 -127 4q-206 0 -441 -31t-428.5 -75t-359.5 -88t-279.5 -75t-142.5 -31q-36 0 -91.5 66t-55.5 111q0 97 213.5 401t548.5 666q-205 -34 -432 -81q-95 -19 -135 -28t-114.5 -30t-131.5 -46q-9 1 -42 43 t-30 56zM925 1439q0 9 4 9q3 0 11.5 -0.5t13.5 -0.5q113 0 613.5 42t741.5 54q-104 37 -211 102.5t-182 148.5t-63 148q1 3 15.5 10.5t43.5 16.5t61 12q-5 -5 -5 -35q1 -57 42.5 -122.5t103.5 -120.5t136 -98t139 -59q122 5 205 5q280 0 447.5 -42.5t167.5 -130.5 q0 -49 -73.5 -112t-120.5 -63q-4 0 -4 5q0 1 33.5 28t66.5 65.5t33 67.5q0 20 -15.5 38.5t-56 36.5t-103 31t-164.5 21t-232 8q-286 0 -666 -46t-650.5 -91.5t-291.5 -45.5q-8 0 -24 45t-16 73z" />
<glyph unicode="&#xc9;" horiz-adv-x="2243" d="M142 643q19 5 107 26t146 36t128.5 36t103.5 37q-14 -36 -38 -80q306 57 486 83q115 123 243 249q-10 -4 -12 -4q-16 7 -26.5 19.5t-10.5 19.5q52 1 147.5 91.5t133.5 147.5q13 4 65 -37t52 -64q-178 -128 -435 -401q253 30 445 30q89 0 168 -6.5t151 -21.5t114 -43.5 t42 -67.5q0 -41 -43 -84q5 22 5 47q0 31 -23 54t-67 37t-89 23t-109.5 12.5t-105.5 4.5t-98 1q-163 0 -436 -35q-306 -332 -545.5 -668.5t-239.5 -453.5q0 -20 25 -39.5t59 -19.5q37 0 230 43t420.5 95t513 95t485.5 43q430 0 430 -136q0 -65 -60.5 -135.5t-88.5 -70.5 q-9 0 -9 7t22 29.5t44 53.5t22 59q0 60 -75.5 89.5t-228.5 36.5q-84 4 -127 4q-206 0 -441 -31t-428.5 -75t-359.5 -88t-279.5 -75t-142.5 -31q-36 0 -91.5 66t-55.5 111q0 97 213.5 401t548.5 666q-205 -34 -432 -81q-95 -19 -135 -28t-114.5 -30t-131.5 -46q-9 1 -42 43 t-30 56zM925 1439q0 9 4 9q3 0 11.5 -0.5t13.5 -0.5q104 0 732.5 52t907.5 52q280 0 447.5 -42.5t167.5 -130.5q0 -49 -73.5 -112t-120.5 -63q-4 0 -4 5q0 1 33.5 28t66.5 65.5t33 67.5q0 20 -15.5 38.5t-56 36.5t-103 31t-164.5 21t-232 8q-286 0 -666 -46t-650.5 -91.5 t-291.5 -45.5q-8 0 -24 45t-16 73zM1923 1569q206 66 404 185.5t276 229.5q16 0 47 -33t28 -46q-74 -63 -160 -117t-190.5 -101.5t-183.5 -79t-207 -78.5q-19 19 -14 40z" />
<glyph unicode="&#xca;" horiz-adv-x="2243" d="M142 643q19 5 107 26t146 36t128.5 36t103.5 37q-14 -36 -38 -80q306 57 486 83q115 123 243 249q-10 -4 -12 -4q-16 7 -26.5 19.5t-10.5 19.5q52 1 147.5 91.5t133.5 147.5q13 4 65 -37t52 -64q-178 -128 -435 -401q253 30 445 30q89 0 168 -6.5t151 -21.5t114 -43.5 t42 -67.5q0 -41 -43 -84q5 22 5 47q0 31 -23 54t-67 37t-89 23t-109.5 12.5t-105.5 4.5t-98 1q-163 0 -436 -35q-306 -332 -545.5 -668.5t-239.5 -453.5q0 -20 25 -39.5t59 -19.5q37 0 230 43t420.5 95t513 95t485.5 43q430 0 430 -136q0 -65 -60.5 -135.5t-88.5 -70.5 q-9 0 -9 7t22 29.5t44 53.5t22 59q0 60 -75.5 89.5t-228.5 36.5q-84 4 -127 4q-206 0 -441 -31t-428.5 -75t-359.5 -88t-279.5 -75t-142.5 -31q-36 0 -91.5 66t-55.5 111q0 97 213.5 401t548.5 666q-205 -34 -432 -81q-95 -19 -135 -28t-114.5 -30t-131.5 -46q-9 1 -42 43 t-30 56zM925 1439q0 9 4 9q3 0 11.5 -0.5t13.5 -0.5q113 0 623.5 42.5t757.5 54.5q-49 27 -88 102q-29 58 -47.5 127t-18.5 103q-68 -64 -206 -162.5t-233 -132.5q-12 -1 -20.5 28t-8 57.5t8.5 39.5q94 23 250.5 130.5t205.5 160.5q7 3 33.5 -12t29.5 -21q-7 -42 6.5 -143 t50.5 -169q14 -26 22.5 -40t31.5 -31.5t51 -17.5q17 0 56 15q2 -2 2 -4q0 -15 -18 -26q80 3 151 3q280 0 447.5 -42.5t167.5 -130.5q0 -49 -73.5 -112t-120.5 -63q-4 0 -4 5q0 1 33.5 28t66.5 65.5t33 67.5q0 20 -15.5 38.5t-56 36.5t-103 31t-164.5 21t-232 8 q-286 0 -666 -46t-650.5 -91.5t-291.5 -45.5q-8 0 -24 45t-16 73z" />
<glyph unicode="&#xcb;" horiz-adv-x="2243" d="M142 643q19 5 107 26t146 36t128.5 36t103.5 37q-14 -36 -38 -80q306 57 486 83q115 123 243 249q-10 -4 -12 -4q-16 7 -26.5 19.5t-10.5 19.5q52 1 147.5 91.5t133.5 147.5q13 4 65 -37t52 -64q-178 -128 -435 -401q253 30 445 30q89 0 168 -6.5t151 -21.5t114 -43.5 t42 -67.5q0 -41 -43 -84q5 22 5 47q0 31 -23 54t-67 37t-89 23t-109.5 12.5t-105.5 4.5t-98 1q-163 0 -436 -35q-306 -332 -545.5 -668.5t-239.5 -453.5q0 -20 25 -39.5t59 -19.5q37 0 230 43t420.5 95t513 95t485.5 43q430 0 430 -136q0 -65 -60.5 -135.5t-88.5 -70.5 q-9 0 -9 7t22 29.5t44 53.5t22 59q0 60 -75.5 89.5t-228.5 36.5q-84 4 -127 4q-206 0 -441 -31t-428.5 -75t-359.5 -88t-279.5 -75t-142.5 -31q-36 0 -91.5 66t-55.5 111q0 97 213.5 401t548.5 666q-205 -34 -432 -81q-95 -19 -135 -28t-114.5 -30t-131.5 -46q-9 1 -42 43 t-30 56zM925 1439q0 9 4 9q3 0 11.5 -0.5t13.5 -0.5q104 0 732.5 52t907.5 52q280 0 447.5 -42.5t167.5 -130.5q0 -49 -73.5 -112t-120.5 -63q-4 0 -4 5q0 1 33.5 28t66.5 65.5t33 67.5q0 20 -15.5 38.5t-56 36.5t-103 31t-164.5 21t-232 8q-286 0 -666 -46t-650.5 -91.5 t-291.5 -45.5q-8 0 -24 45t-16 73zM1988 1692q6 20 52 105.5t78 130.5q24 8 61 -24.5t29 -45.5q-40 -40 -103.5 -121.5t-63.5 -113.5q-20 -2 -37.5 24t-15.5 45zM2215 1682q7 20 52.5 105.5t77.5 129.5q16 5 40 -9t39 -33t10 -27q-42 -43 -104 -123t-62 -112 q-20 -2 -37.5 24t-15.5 45z" />
<glyph unicode="&#xcc;" horiz-adv-x="2226" d="M-120 -387q0 11 1 15q473 162 557 229q3 3 8 3q10 0 10 -12q0 -6 -7.5 -17t-22.5 -26t-27 -26.5t-32.5 -29.5t-27.5 -25q372 77 779.5 132.5t735.5 55.5q141 0 272.5 -13t245.5 -38.5t182.5 -71t68.5 -103.5q0 -49 -88.5 -124t-121.5 -75q-10 0 -10 11q0 2 33.5 25.5 t67 58t33.5 62.5q0 94 -198 156.5t-530 62.5q-162 0 -368.5 -18.5t-456 -56.5t-532.5 -108.5t-541 -162.5q-14 5 -22.5 37t-8.5 59zM936 1345q199 59 527 98t656 54q43 44 49 52q16 0 48 -43l4 -6q28 1 78 2t56 1q-104 37 -210.5 102.5t-181 148t-62.5 147.5q1 3 15.5 11 t43.5 17t61 12q-6 -6 -6 -36q1 -77 72.5 -165t170.5 -152t187 -84q312 -4 518 -38q26 -5 55.5 -12.5t67 -22t61.5 -36.5t24 -48q0 -40 -59.5 -89t-127 -80t-99.5 -31q-14 0 -14 11q0 3 37 22t81.5 42.5t81.5 57.5t37 63q0 35 -77 60t-199 36.5t-231.5 16.5t-213.5 5 q-43 0 -141 -4q3 -8 4 -18q-35 -12 -85 -71.5t-86.5 -127.5t-36.5 -103q0 -17 19 -40q0 -3 -8 -3t-18.5 6t-22 27t-11.5 52q0 9 1 14q-148 -182 -293 -397q-141 -209 -263.5 -432t-122.5 -305q0 -11 5 -21t10.5 -16t5.5 -7q-2 -6 -13 -6q-24 0 -61.5 44t-37.5 69 q0 150 355 686q266 403 487 640q-324 -24 -639 -77q44 -3 63 -17q3 -3 3 -10q0 -14 -7 -14q-5 0 -20 2.5t-25 2.5q-91 0 -259 -38t-216 -65q-14 14 -25.5 52.5t-11.5 60.5z" />
<glyph unicode="&#xcd;" horiz-adv-x="2226" d="M-120 -387q0 11 1 15q473 162 557 229q3 3 8 3q10 0 10 -12q0 -6 -7.5 -17t-22.5 -26t-27 -26.5t-32.5 -29.5t-27.5 -25q372 77 779.5 132.5t735.5 55.5q141 0 272.5 -13t245.5 -38.5t182.5 -71t68.5 -103.5q0 -49 -88.5 -124t-121.5 -75q-10 0 -10 11q0 2 33.5 25.5 t67 58t33.5 62.5q0 94 -198 156.5t-530 62.5q-162 0 -368.5 -18.5t-456 -56.5t-532.5 -108.5t-541 -162.5q-14 5 -22.5 37t-8.5 59zM936 1345q199 59 527 98t656 54q43 44 49 52q16 0 48 -43l4 -6q144 4 193 4q314 0 549 -38q26 -5 55.5 -12.5t67 -22t61.5 -36.5t24 -48 q0 -40 -59.5 -89t-127 -80t-99.5 -31q-14 0 -14 11q0 3 37 22t81.5 42.5t81.5 57.5t37 63q0 35 -77 60t-199 36.5t-231.5 16.5t-213.5 5q-43 0 -141 -4q3 -8 4 -18q-35 -12 -85 -71.5t-86.5 -127.5t-36.5 -103q0 -17 19 -40q0 -3 -8 -3t-18.5 6t-22 27t-11.5 52q0 9 1 14 q-148 -182 -293 -397q-141 -209 -263.5 -432t-122.5 -305q0 -11 5 -21t10.5 -16t5.5 -7q-2 -6 -13 -6q-24 0 -61.5 44t-37.5 69q0 150 355 686q266 403 487 640q-324 -24 -639 -77q44 -3 63 -17q3 -3 3 -10q0 -14 -7 -14q-5 0 -20 2.5t-25 2.5q-91 0 -259 -38t-216 -65 q-14 14 -25.5 52.5t-11.5 60.5zM1891 1569q206 66 404 185.5t276 229.5q16 0 46.5 -32.5t27.5 -46.5q-74 -63 -160 -117t-190.5 -101.5t-183.5 -79t-207 -78.5q-18 18 -13 40z" />
<glyph unicode="&#xce;" horiz-adv-x="2226" d="M-120 -387q0 11 1 15q473 162 557 229q3 3 8 3q10 0 10 -12q0 -6 -7.5 -17t-22.5 -26t-27 -26.5t-32.5 -29.5t-27.5 -25q372 77 779.5 132.5t735.5 55.5q141 0 272.5 -13t245.5 -38.5t182.5 -71t68.5 -103.5q0 -49 -88.5 -124t-121.5 -75q-10 0 -10 11q0 2 33.5 25.5 t67 58t33.5 62.5q0 94 -198 156.5t-530 62.5q-162 0 -368.5 -18.5t-456 -56.5t-532.5 -108.5t-541 -162.5q-14 5 -22.5 37t-8.5 59zM936 1345q199 59 527 98t656 54q43 44 49 52q16 0 48 -43l4 -6q144 4 193 4q314 0 549 -38q26 -5 55.5 -12.5t67 -22t61.5 -36.5t24 -48 q0 -40 -59.5 -89t-127 -80t-99.5 -31q-14 0 -14 11q0 3 37 22t81.5 42.5t81.5 57.5t37 63q0 35 -77 60t-199 36.5t-231.5 16.5t-213.5 5q-43 0 -141 -4q3 -8 4 -18q-35 -12 -85 -71.5t-86.5 -127.5t-36.5 -103q0 -17 19 -40q0 -3 -8 -3t-18.5 6t-22 27t-11.5 52q0 9 1 14 q-148 -182 -293 -397q-141 -209 -263.5 -432t-122.5 -305q0 -11 5 -21t10.5 -16t5.5 -7q-2 -6 -13 -6q-24 0 -61.5 44t-37.5 69q0 150 355 686q266 403 487 640q-324 -24 -639 -77q44 -3 63 -17q3 -3 3 -10q0 -14 -7 -14q-5 0 -20 2.5t-25 2.5q-91 0 -259 -38t-216 -65 q-14 14 -25.5 52.5t-11.5 60.5zM1819.5 1657.5q0.5 28.5 8.5 39.5q94 23 250.5 130.5t205.5 160.5q7 3 33.5 -12t29.5 -21q-7 -42 6.5 -143t50.5 -169q11 -21 16.5 -29.5t19 -26t30.5 -25.5t38 -8q18 0 57 15q2 -2 2 -4q0 -18 -27 -31t-50 -13q-41 0 -77 34t-60 82 q-29 58 -48 127.5t-19 102.5q-68 -64 -206 -162.5t-233 -132.5q-12 -1 -20 28t-7.5 57.5z" />
<glyph unicode="&#xcf;" horiz-adv-x="2226" d="M-120 -387q0 11 1 15q473 162 557 229q3 3 8 3q10 0 10 -12q0 -6 -7.5 -17t-22.5 -26t-27 -26.5t-32.5 -29.5t-27.5 -25q372 77 779.5 132.5t735.5 55.5q141 0 272.5 -13t245.5 -38.5t182.5 -71t68.5 -103.5q0 -49 -88.5 -124t-121.5 -75q-10 0 -10 11q0 2 33.5 25.5 t67 58t33.5 62.5q0 94 -198 156.5t-530 62.5q-162 0 -368.5 -18.5t-456 -56.5t-532.5 -108.5t-541 -162.5q-14 5 -22.5 37t-8.5 59zM936 1345q199 59 527 98t656 54q43 44 49 52q16 0 48 -43l4 -6q144 4 193 4q314 0 549 -38q26 -5 55.5 -12.5t67 -22t61.5 -36.5t24 -48 q0 -40 -59.5 -89t-127 -80t-99.5 -31q-14 0 -14 11q0 3 37 22t81.5 42.5t81.5 57.5t37 63q0 35 -77 60t-199 36.5t-231.5 16.5t-213.5 5q-43 0 -141 -4q3 -8 4 -18q-35 -12 -85 -71.5t-86.5 -127.5t-36.5 -103q0 -17 19 -40q0 -3 -8 -3t-18.5 6t-22 27t-11.5 52q0 9 1 14 q-148 -182 -293 -397q-141 -209 -263.5 -432t-122.5 -305q0 -11 5 -21t10.5 -16t5.5 -7q-2 -6 -13 -6q-24 0 -61.5 44t-37.5 69q0 150 355 686q266 403 487 640q-324 -24 -639 -77q44 -3 63 -17q3 -3 3 -10q0 -14 -7 -14q-5 0 -20 2.5t-25 2.5q-91 0 -259 -38t-216 -65 q-14 14 -25.5 52.5t-11.5 60.5zM2067 1692q7 21 52 106.5t77 129.5q24 8 61 -24.5t29 -45.5q-40 -40 -103 -121.5t-63 -113.5q-20 -2 -37.5 24t-15.5 45zM2294 1682q7 21 52.5 106t76.5 129q16 5 40 -9t39 -33t10 -27q-41 -42 -103 -122.5t-62 -112.5q-20 -2 -37.5 24 t-15.5 45z" />
<glyph unicode="&#xd1;" horiz-adv-x="2611" d="M104 -389q0 33 17.5 77.5t55.5 103.5t56.5 86t61.5 85q3 3 6 3q12 0 14 -9q0 -1 -0.5 -1t-0.5 -1q-70 -115 -107 -202t-37 -118q0 -18 31 -18q56 0 182 83t286.5 219.5t348.5 322t364 380.5t338.5 406t266.5 388l3 11q-151 -3 -364.5 -25.5t-432.5 -60.5t-371.5 -98.5 t-152.5 -128.5q0 -30 42.5 -60t85.5 -48t43 -20q-1 -4 -9 -7l-13 2q-13 2 -33.5 7t-45.5 11.5t-49.5 17.5t-45 24t-33.5 31.5t-13 39.5q0 68 103 129t263.5 103t351 73t369.5 44.5t316 11.5q3 13 24 86q2 1 5 1q19 0 59.5 -33.5t46.5 -48.5l-6 -13l11 -3l29 -44 q-5 1 -24.5 3.5t-31.5 3.5q-75 -198 -124 -615t-49 -755q0 -96 5 -184q84 151 235 380t329 467q129 173 270.5 343t284.5 325t264.5 251t184.5 96q37 0 57 -29.5t20 -69.5q0 -54 -26 -131.5t-45 -77.5q-2 0 -5 5q0 3 2 9q26 66 26 121q0 96 -52 96q-57 0 -174 -99.5 t-257.5 -258t-274.5 -325t-254 -329.5q-83 -113 -164 -228.5t-177.5 -261.5t-155.5 -261.5t-59 -166.5q0 -19 13 -31q-51 0 -98.5 39.5t-54.5 67.5q-14 62 -14 220q0 245 34 588t99 656q-158 -243 -501 -653q-244 -291 -487 -542t-448 -416.5t-299 -174.5h-9q-24 0 -65 53 t-41 78zM2197 1656q0 21 41.5 65t102 81t103.5 37q34 0 71.5 -21.5t69.5 -52l64 -61t66.5 -52t65.5 -21.5q85 0 183.5 71.5t164.5 165.5q30 42 46 69q10 18 18 18q11 0 11 -17q0 -21 -47 -84q-88 -123 -210.5 -214t-229.5 -91q-31 0 -68 22t-70.5 53.5t-66 63.5t-63 54 t-52.5 22q-33 0 -67 -18.5t-56 -41t-40.5 -41t-25.5 -18.5q-11 0 -11 11z" />
<glyph unicode="&#xd2;" horiz-adv-x="2832" d="M65 225q0 90 48 194.5t116.5 193t158 178.5t158 148t130.5 104q343 255 787 419t837 164q180 0 320.5 -41t226.5 -113t130 -164t44 -200q0 -118 -45.5 -245t-125 -244t-176.5 -228t-210.5 -211.5t-215 -179t-202.5 -145.5q-97 -64 -218.5 -130t-265 -130.5t-294 -105 t-268.5 -40.5q-142 0 -250 87.5t-108 212.5q0 137 75.5 300.5t199.5 316t271.5 289t301.5 240.5q-90 -10 -121 8q-12 7 -11 22q1 10 10 6q46 -25 358 99q64 27 81 33q9 -1 26 -43.5t17 -56.5q0 -3 -2 -3q-87 -36 -187.5 -94.5t-206.5 -137.5t-208 -170t-193 -196.5 t-159.5 -212.5t-108.5 -222.5t-40 -221.5q0 -84 66 -142.5t206 -58.5t322 59.5t338 140t320 183.5q126 79 257.5 183t259.5 231.5t228 257.5t161.5 269t61.5 257q0 294 -294 405q-119 45 -301 56q-25 2 -75 2q-180 0 -391.5 -48.5t-413 -129.5t-388.5 -184t-338 -216 q-70 -52 -144.5 -119t-155.5 -154t-143.5 -173.5t-103.5 -181t-41 -172.5q0 -98 92.5 -179.5t197.5 -81.5q25 0 25 -11t-22 -11q-92 0 -184.5 43t-156 122.5t-63.5 172.5zM2216 1935q-1 3 12 13.5t40 24.5t58 24q-4 -6 1 -35q17 -77 107.5 -150.5t203.5 -116t202 -40.5 q2 -5 -1.5 -13.5t-8.5 -12.5q-72 -1 -175.5 24t-201 65.5t-167 99.5t-70.5 117z" />
<glyph unicode="&#xd3;" horiz-adv-x="2832" d="M65 225q0 90 48 194.5t116.5 193t158 178.5t158 148t130.5 104q343 255 787 419t837 164h2q187 65 353 162.5t238 190.5q16 -1 45.5 -35.5t25.5 -47.5q-200 -155 -549 -275q151 -12 269 -57.5t190.5 -115t109.5 -155.5t37 -185q0 -118 -45.5 -245t-125 -244t-176.5 -228 t-210.5 -211.5t-215 -179t-202.5 -145.5q-97 -64 -218.5 -130t-265 -130.5t-294 -105t-268.5 -40.5q-142 0 -250 87.5t-108 212.5q0 137 75.5 300.5t199.5 316t271.5 289t301.5 240.5q-90 -10 -121 8q-12 7 -11 22q1 10 10 6q46 -25 358 99q64 27 81 33q9 -1 26 -43.5 t17 -56.5q0 -3 -2 -3q-87 -36 -187.5 -94.5t-206.5 -137.5t-208 -170t-193 -196.5t-159.5 -212.5t-108.5 -222.5t-40 -221.5q0 -84 66 -142.5t206 -58.5t322 59.5t338 140t320 183.5q126 79 257.5 183t259.5 231.5t228 257.5t161.5 269t61.5 257q0 294 -294 405 q-119 45 -301 56q-25 2 -75 2q-180 0 -391.5 -48.5t-413 -129.5t-388.5 -184t-338 -216q-70 -52 -144.5 -119t-155.5 -154t-143.5 -173.5t-103.5 -181t-41 -172.5q0 -98 92.5 -179.5t197.5 -81.5q25 0 25 -11t-22 -11q-92 0 -184.5 43t-156 122.5t-63.5 172.5z" />
<glyph unicode="&#xd4;" horiz-adv-x="2832" d="M65 225q0 90 48 194.5t116.5 193t158 178.5t158 148t130.5 104q343 255 787 419t837 164q180 0 320.5 -41t226.5 -113t130 -164t44 -200q0 -118 -45.5 -245t-125 -244t-176.5 -228t-210.5 -211.5t-215 -179t-202.5 -145.5q-97 -64 -218.5 -130t-265 -130.5t-294 -105 t-268.5 -40.5q-142 0 -250 87.5t-108 212.5q0 137 75.5 300.5t199.5 316t271.5 289t301.5 240.5q-90 -10 -121 8q-12 7 -11 22q1 10 10 6q46 -25 358 99q64 27 81 33q9 -1 26 -43.5t17 -56.5q0 -3 -2 -3q-87 -36 -187.5 -94.5t-206.5 -137.5t-208 -170t-193 -196.5 t-159.5 -212.5t-108.5 -222.5t-40 -221.5q0 -84 66 -142.5t206 -58.5t322 59.5t338 140t320 183.5q126 79 257.5 183t259.5 231.5t228 257.5t161.5 269t61.5 257q0 294 -294 405q-119 45 -301 56q-25 2 -75 2q-180 0 -391.5 -48.5t-413 -129.5t-388.5 -184t-338 -216 q-70 -52 -144.5 -119t-155.5 -154t-143.5 -173.5t-103.5 -181t-41 -172.5q0 -98 92.5 -179.5t197.5 -81.5q25 0 25 -11t-22 -11q-92 0 -184.5 43t-156 122.5t-63.5 172.5zM2089.5 1727q-0.5 28 6.5 38q83 20 221.5 107.5t176.5 128.5q7 2 30 -11t25 -17q-1 -15 1 -50.5 t11.5 -86t25 -95.5t44 -76.5t65.5 -31.5q17 0 48 12q2 -2 2 -3q0 -16 -27 -30.5t-46 -14.5q-36 0 -67 29.5t-52 70.5q-25 51 -41 110.5t-16 88.5q-60 -56 -179 -140.5t-201 -114.5q-10 -1 -18.5 28.5t-9 57.5z" />
<glyph unicode="&#xd5;" horiz-adv-x="2832" d="M65 225q0 90 48 194.5t116.5 193t158 178.5t158 148t130.5 104q343 255 787 419t837 164q180 0 320.5 -41t226.5 -113t130 -164t44 -200q0 -118 -45.5 -245t-125 -244t-176.5 -228t-210.5 -211.5t-215 -179t-202.5 -145.5q-97 -64 -218.5 -130t-265 -130.5t-294 -105 t-268.5 -40.5q-142 0 -250 87.5t-108 212.5q0 137 75.5 300.5t199.5 316t271.5 289t301.5 240.5q-90 -10 -121 8q-12 7 -11 22q1 10 10 6q46 -25 358 99q64 27 81 33q9 -1 26 -43.5t17 -56.5q0 -3 -2 -3q-87 -36 -187.5 -94.5t-206.5 -137.5t-208 -170t-193 -196.5 t-159.5 -212.5t-108.5 -222.5t-40 -221.5q0 -84 66 -142.5t206 -58.5t322 59.5t338 140t320 183.5q126 79 257.5 183t259.5 231.5t228 257.5t161.5 269t61.5 257q0 294 -294 405q-119 45 -301 56q-25 2 -75 2q-180 0 -391.5 -48.5t-413 -129.5t-388.5 -184t-338 -216 q-70 -52 -144.5 -119t-155.5 -154t-143.5 -173.5t-103.5 -181t-41 -172.5q0 -98 92.5 -179.5t197.5 -81.5q25 0 25 -11t-22 -11q-92 0 -184.5 43t-156 122.5t-63.5 172.5zM2016 1763q0 21 41.5 65t102 81t103.5 37q34 0 71.5 -21.5t69.5 -52l64 -61t66.5 -52t65.5 -21.5 q81 0 162 52t123 105q24 30 47 69q10 18 18 18q11 0 11 -17q0 -21 -47 -84q-66 -89 -169.5 -157t-208.5 -68q-37 0 -85.5 33.5t-86.5 73.5t-80 73.5t-68 33.5q-33 0 -67 -18.5t-56 -41t-40.5 -41t-25.5 -18.5q-11 0 -11 12z" />
<glyph unicode="&#xd6;" horiz-adv-x="2832" d="M65 225q0 90 48 194.5t116.5 193t158 178.5t158 148t130.5 104q343 255 787 419t837 164q180 0 320.5 -41t226.5 -113t130 -164t44 -200q0 -118 -45.5 -245t-125 -244t-176.5 -228t-210.5 -211.5t-215 -179t-202.5 -145.5q-97 -64 -218.5 -130t-265 -130.5t-294 -105 t-268.5 -40.5q-142 0 -250 87.5t-108 212.5q0 137 75.5 300.5t199.5 316t271.5 289t301.5 240.5q-90 -10 -121 8q-12 7 -11 22q1 10 10 6q46 -25 358 99q64 27 81 33q9 -1 26 -43.5t17 -56.5q0 -3 -2 -3q-87 -36 -187.5 -94.5t-206.5 -137.5t-208 -170t-193 -196.5 t-159.5 -212.5t-108.5 -222.5t-40 -221.5q0 -84 66 -142.5t206 -58.5t322 59.5t338 140t320 183.5q126 79 257.5 183t259.5 231.5t228 257.5t161.5 269t61.5 257q0 294 -294 405q-119 45 -301 56q-25 2 -75 2q-180 0 -391.5 -48.5t-413 -129.5t-388.5 -184t-338 -216 q-70 -52 -144.5 -119t-155.5 -154t-143.5 -173.5t-103.5 -181t-41 -172.5q0 -98 92.5 -179.5t197.5 -81.5q25 0 25 -11t-22 -11q-92 0 -184.5 43t-156 122.5t-63.5 172.5zM2438 1731q7 21 52 106.5t77 129.5q24 8 61 -24.5t29 -45.5q-40 -40 -103 -121.5t-63 -113.5 q-20 -2 -37.5 24t-15.5 45zM2665 1721q7 21 52.5 106t76.5 129q16 5 40 -9t39.5 -33t10.5 -27q-42 -43 -104 -123t-62 -112q-20 -2 -37.5 24t-15.5 45z" />
<glyph unicode="&#xd8;" horiz-adv-x="2832" d="M65 225q0 90 48 194.5t116.5 193t158 178.5t158 148t130.5 104q343 255 787 419t837 164q187 0 339 -47q119 136 183 204q28 -1 54 -14.5t24 -23.5q-83 -84 -184 -195q151 -67 228 -183t77 -259q0 -118 -45.5 -245t-125 -244t-176.5 -228t-210.5 -211.5t-215 -179 t-202.5 -145.5q-157 -103 -366.5 -206.5t-404.5 -156.5q-54 -61 -122 -174t-120 -221q-7 -1 -24.5 14.5t-37.5 37t-22 23.5q28 93 134 282q-47 -5 -83 -5q-142 0 -250 87.5t-108 212.5q0 137 75.5 300.5t199.5 316t271.5 289t301.5 240.5q-90 -10 -121 8q-12 7 -11 22 q1 10 10 6q46 -25 358 99q64 27 81 33q9 -1 26 -43.5t17 -56.5q0 -3 -2 -3q-87 -36 -187.5 -94.5t-206.5 -137.5t-208 -170t-193 -196.5t-159.5 -212.5t-108.5 -222.5t-40 -221.5q0 -84 66 -142.5t206 -58.5q45 0 99 8q167 287 433 670q182 265 475 643t561 691 q-97 24 -215 30q-25 2 -75 2q-180 0 -391.5 -48.5t-413 -129.5t-388.5 -184t-338 -216q-70 -52 -144.5 -119t-155.5 -154t-143.5 -173.5t-103.5 -181t-41 -172.5q0 -98 92.5 -179.5t197.5 -81.5q25 0 25 -11t-22 -11q-92 0 -184.5 43t-156 122.5t-63.5 172.5zM1244 -444 q41 3 70 -1q300 91 683 332q126 79 257.5 183t259.5 231.5t228 257.5t161.5 269t61.5 257q0 299 -301 408q-260 -292 -536 -647.5t-503 -684.5q-235 -343 -381 -605z" />
<glyph unicode="&#xd9;" horiz-adv-x="2288" d="M118 -89q0 249 324 762q180 282 371 501q-50 -21 -92 -21q-40 0 -71 47q-9 13 -6 12q1 0 9.5 -3t20 -4.5t34.5 1.5q105 18 286 164q51 51 79 51q9 -2 45 -35.5t39 -41.5q-90 -43 -279.5 -269t-331.5 -447q-315 -488 -315 -751q0 -54 32 -81.5t88 -27.5q103 0 319.5 111 t374.5 227q507 371 931 747q537 480 625 605q100 138 114 138q7 3 45.5 -30t37.5 -47q-50 -46 -142.5 -183t-302.5 -478q-273 -443 -405 -750q-174 -400 -174 -591q0 -43 14.5 -83t42.5 -40q22 0 82 35.5t88 71.5q7 9 14 4q12 -8 -14 -41q-36 -46 -85.5 -78t-82.5 -32 q-49 0 -108.5 59t-59.5 104q0 25 2 50.5t3.5 46t7.5 47t9 42.5t12 45.5t12.5 41.5t15.5 45t15.5 43t18 47.5t17.5 46.5q33 89 72 177.5t89 187t86.5 169t101.5 183t96.5 165.5t107.5 180t100 168q-202 -214 -423 -402q-512 -437 -925 -737q-111 -81 -232.5 -155t-271 -137 t-247.5 -63q-72 0 -143 69t-71 134zM1572 1837q1 3 15.5 10.5t43.5 16.5t61 12q-5 -5 -5 -35q1 -78 75 -168.5t176 -154.5t189 -81q1 -4 -4 -12t-11 -10q-70 13 -166.5 58.5t-184 104.5t-143.5 130.5t-46 128.5z" />
<glyph unicode="&#xda;" horiz-adv-x="2288" d="M118 -89q0 249 324 762q180 282 371 501q-50 -21 -92 -21q-40 0 -71 47q-9 13 -6 12q1 0 9.5 -3t20 -4.5t34.5 1.5q105 18 286 164q51 51 79 51q9 -2 45 -35.5t39 -41.5q-90 -43 -279.5 -269t-331.5 -447q-315 -488 -315 -751q0 -54 32 -81.5t88 -27.5q103 0 319.5 111 t374.5 227q507 371 931 747q537 480 625 605q100 138 114 138q7 3 45.5 -30t37.5 -47q-50 -46 -142.5 -183t-302.5 -478q-273 -443 -405 -750q-174 -400 -174 -591q0 -43 14.5 -83t42.5 -40q22 0 82 35.5t88 71.5q7 9 14 4q12 -8 -14 -41q-36 -46 -85.5 -78t-82.5 -32 q-49 0 -108.5 59t-59.5 104q0 25 2 50.5t3.5 46t7.5 47t9 42.5t12 45.5t12.5 41.5t15.5 45t15.5 43t18 47.5t17.5 46.5q33 89 72 177.5t89 187t86.5 169t101.5 183t96.5 165.5t107.5 180t100 168q-202 -214 -423 -402q-512 -437 -925 -737q-111 -81 -232.5 -155t-271 -137 t-247.5 -63q-72 0 -143 69t-71 134zM1529 1491q206 66 404 185.5t276 229.5q16 0 47 -33t28 -46q-74 -63 -159.5 -117t-191 -101.5t-183.5 -78.5t-207 -78q-19 19 -14 39z" />
<glyph unicode="&#xdb;" horiz-adv-x="2288" d="M118 -89q0 249 324 762q180 282 371 501q-50 -21 -92 -21q-40 0 -71 47q-9 13 -6 12q1 0 9.5 -3t20 -4.5t34.5 1.5q105 18 286 164q51 51 79 51q9 -2 45 -35.5t39 -41.5q-90 -43 -279.5 -269t-331.5 -447q-315 -488 -315 -751q0 -54 32 -81.5t88 -27.5q103 0 319.5 111 t374.5 227q507 371 931 747q537 480 625 605q100 138 114 138q7 3 45.5 -30t37.5 -47q-50 -46 -142.5 -183t-302.5 -478q-273 -443 -405 -750q-174 -400 -174 -591q0 -43 14.5 -83t42.5 -40q22 0 82 35.5t88 71.5q7 9 14 4q12 -8 -14 -41q-36 -46 -85.5 -78t-82.5 -32 q-49 0 -108.5 59t-59.5 104q0 25 2 50.5t3.5 46t7.5 47t9 42.5t12 45.5t12.5 41.5t15.5 45t15.5 43t18 47.5t17.5 46.5q33 89 72 177.5t89 187t86.5 169t101.5 183t96.5 165.5t107.5 180t100 168q-202 -214 -423 -402q-512 -437 -925 -737q-111 -81 -232.5 -155t-271 -137 t-247.5 -63q-72 0 -143 69t-71 134zM1452.5 1534.5q0.5 28.5 8.5 39.5q94 23 250.5 130t205.5 160q7 3 33.5 -12t29.5 -20q-7 -42 6.5 -143t50.5 -169q11 -21 16 -29.5t19 -26.5t31 -26t38 -8q18 0 57 15q2 -2 2 -4q0 -18 -27 -30.5t-50 -12.5q-41 0 -77 33.5t-60 81.5 q-29 58 -48 127.5t-19 102.5q-68 -64 -206 -162.5t-233 -132.5q-12 -1 -20 28.5t-7.5 58z" />
<glyph unicode="&#xdc;" horiz-adv-x="2288" d="M118 -89q0 249 324 762q180 282 371 501q-50 -21 -92 -21q-40 0 -71 47q-9 13 -6 12q1 0 9.5 -3t20 -4.5t34.5 1.5q105 18 286 164q51 51 79 51q9 -2 45 -35.5t39 -41.5q-90 -43 -279.5 -269t-331.5 -447q-315 -488 -315 -751q0 -54 32 -81.5t88 -27.5q103 0 319.5 111 t374.5 227q507 371 931 747q537 480 625 605q100 138 114 138q7 3 45.5 -30t37.5 -47q-50 -46 -142.5 -183t-302.5 -478q-273 -443 -405 -750q-174 -400 -174 -591q0 -43 14.5 -83t42.5 -40q22 0 82 35.5t88 71.5q7 9 14 4q12 -8 -14 -41q-36 -46 -85.5 -78t-82.5 -32 q-49 0 -108.5 59t-59.5 104q0 25 2 50.5t3.5 46t7.5 47t9 42.5t12 45.5t12.5 41.5t15.5 45t15.5 43t18 47.5t17.5 46.5q33 89 72 177.5t89 187t86.5 169t101.5 183t96.5 165.5t107.5 180t100 168q-202 -214 -423 -402q-512 -437 -925 -737q-111 -81 -232.5 -155t-271 -137 t-247.5 -63q-72 0 -143 69t-71 134zM1590 1513q6 20 52 105.5t78 130.5q24 8 61 -24.5t29 -45.5q-40 -40 -103.5 -121.5t-63.5 -113.5q-20 -2 -37.5 24t-15.5 45zM1817 1503q7 21 52.5 106t76.5 129q16 5 40 -9t39.5 -32.5t10.5 -26.5q-41 -42 -103.5 -123t-62.5 -113 q-20 -2 -37.5 24t-15.5 45z" />
<glyph unicode="&#xdd;" horiz-adv-x="1803" d="M123 920q2 6 26 23q27 17 83.5 74t117.5 128q15 26 64 102t81.5 132t46.5 93q16 -5 51 -47t45 -68q-67 -84 -143 -167q-256 -379 -261 -626q-1 -86 47.5 -131t123.5 -45q41 0 89 9t89 19t100 35t94 39.5t102 50.5t93.5 50.5t98 57t86 51.5t85.5 53q317 196 695 488 q260 201 417 359q12 4 44.5 -19t32.5 -36q-28 -23 -60.5 -58.5t-89 -101t-63.5 -73.5q-189 -216 -422 -516.5t-412 -568.5q-327 -491 -516 -927q211 303 338 344q28 9 46.5 -5t18.5 -29q-1 -1 -1 -2v-2q-22 17 -39 11q-57 -19 -133 -102t-142.5 -186.5t-119.5 -204 t-74 -163.5q-14 -5 -64.5 40t-49.5 53q2 71 204.5 465.5t447.5 759.5q175 260 372 518.5t366 454.5q-495 -380 -763 -547q-99 -62 -200.5 -119t-230 -119.5t-249 -100.5t-207.5 -38q-99 0 -180 77t-79 186q3 146 118 372q-38 -25 -73 -36q-53 -16 -51 -7zM1039 1479 q206 66 404 185.5t276 229.5q16 0 46.5 -32.5t27.5 -46.5q-74 -63 -160 -117t-190.5 -101.5t-183.5 -79t-207 -78.5q-18 18 -13 40z" />
<glyph unicode="&#xdf;" horiz-adv-x="1454" d="M-663 -607q0 42 1232 452q229 76 403 168.5t174 150.5q0 56 -58.5 118.5t-144.5 114t-178.5 94.5t-167.5 67t-105 24q-2 3 7.5 29.5t14.5 31.5q44 13 121.5 58t167.5 112.5t170.5 142t134 156.5t53.5 146q0 26 -21.5 40.5t-47.5 14.5q-91 0 -201.5 -63.5t-217 -167.5 t-213 -234.5t-196 -268t-159.5 -265t-110 -227.5q18 31 30 49.5t32 39.5t36 21q4 0 7.5 -1t5.5 -2l2 -1q-26 -17 -80.5 -129t-66.5 -182q-11 0 -61 29.5t-50 42.5q0 72 59.5 205.5t155.5 289.5t226 318.5t264 294.5t275.5 216.5t254.5 84.5q74 0 134.5 -48.5t60.5 -106.5 q0 -62 -46.5 -131.5t-114 -127t-155.5 -117.5t-158 -99t-136 -74.5t-76 -41.5q26 -1 105 -28.5t179.5 -74t195.5 -100t160 -114.5t65 -109q0 -42 -63 -93.5t-171 -103t-223 -97.5t-246 -90q-396 -134 -838 -299q8 1 18 2t17 2t10 1q14 0 78 -39l7 -4q-141 0 -277 -56.5 t-179 -104.5q-33 0 -64 33.5t-31 50.5z" />
<glyph unicode="&#xe0;" horiz-adv-x="891" d="M-169 65q0 64 76 172t179.5 206t218.5 170.5t186 72.5q29 0 69.5 -27t60.5 -59q134 102 150 108q7 0 53 -58q-43 -54 -120 -171t-136 -228q-32 -61 -50 -114.5t-18 -72.5t15 -19q43 0 148.5 84t186 163.5t99.5 103.5q5 8 14 8q5 0 9 -4.5t4 -9.5q0 -16 -102.5 -121.5 t-229.5 -210.5t-180 -115h-3q-26 0 -57 39t-31 66q0 48 73 185q81 151 145 241q-29 -4 -37 -1q-516 -490 -656 -490q-23 0 -45 35t-22 47zM-45 65q37 0 221 142.5t335 292.5q31 34 31 85q0 39 -33 39t-123.5 -68t-185 -157.5t-169 -186.5t-76.5 -147zM371 1171 q1 3 15.5 10.5t44 16.5t61.5 12q-6 -6 -6 -35q1 -78 75 -168.5t176.5 -154.5t189.5 -81q1 -4 -4.5 -12t-11.5 -10q-70 13 -166.5 58.5t-184 104.5t-143.5 130.5t-46 128.5z" />
<glyph unicode="&#xe1;" horiz-adv-x="891" d="M-169 65q0 64 76 172t179.5 206t218.5 170.5t186 72.5q29 0 69.5 -27t60.5 -59q134 102 150 108q7 0 53 -58q-43 -54 -120 -171t-136 -228q-32 -61 -50 -114.5t-18 -72.5t15 -19q43 0 148.5 84t186 163.5t99.5 103.5q5 8 14 8q5 0 9 -4.5t4 -9.5q0 -16 -102.5 -121.5 t-229.5 -210.5t-180 -115h-3q-26 0 -57 39t-31 66q0 48 73 185q81 151 145 241q-29 -4 -37 -1q-516 -490 -656 -490q-23 0 -45 35t-22 47zM-45 65q37 0 221 142.5t335 292.5q31 34 31 85q0 39 -33 39t-123.5 -68t-185 -157.5t-169 -186.5t-76.5 -147zM287 838 q206 66 404 185.5t276 229.5q16 0 46.5 -32.5t27.5 -46.5q-74 -63 -159.5 -117t-191 -101.5t-183.5 -78.5t-207 -78q-18 18 -13 39z" />
<glyph unicode="&#xe2;" horiz-adv-x="891" d="M-169 65q0 64 76 172t179.5 206t218.5 170.5t186 72.5q29 0 69.5 -27t60.5 -59q134 102 150 108q7 0 53 -58q-43 -54 -120 -171t-136 -228q-32 -61 -50 -114.5t-18 -72.5t15 -19q43 0 148.5 84t186 163.5t99.5 103.5q5 8 14 8q5 0 9 -4.5t4 -9.5q0 -16 -102.5 -121.5 t-229.5 -210.5t-180 -115h-3q-26 0 -57 39t-31 66q0 48 73 185q81 151 145 241q-29 -4 -37 -1q-516 -490 -656 -490q-23 0 -45 35t-22 47zM-45 65q37 0 221 142.5t335 292.5q31 34 31 85q0 39 -33 39t-123.5 -68t-185 -157.5t-169 -186.5t-76.5 -147zM254.5 900.5 q0.5 28.5 8.5 39.5q94 23 250.5 130.5t205.5 160.5q7 3 33.5 -12t29.5 -21q-7 -42 6.5 -143t50.5 -169q14 -26 22.5 -40t31.5 -31.5t51 -17.5q17 0 56 15q2 -2 2 -4q0 -18 -27 -31t-50 -13q-41 0 -77 34t-60 82q-29 58 -47.5 127t-18.5 103q-68 -64 -206 -162.5t-233 -132.5 q-12 -1 -20.5 28t-8 57.5z" />
<glyph unicode="&#xe3;" horiz-adv-x="891" d="M-169 65q0 64 76 172t179.5 206t218.5 170.5t186 72.5q29 0 69.5 -27t60.5 -59q134 102 150 108q7 0 53 -58q-43 -54 -120 -171t-136 -228q-32 -61 -50 -114.5t-18 -72.5t15 -19q43 0 148.5 84t186 163.5t99.5 103.5q5 8 14 8q5 0 9 -4.5t4 -9.5q0 -16 -102.5 -121.5 t-229.5 -210.5t-180 -115h-3q-26 0 -57 39t-31 66q0 48 73 185q81 151 145 241q-29 -4 -37 -1q-516 -490 -656 -490q-23 0 -45 35t-22 47zM-45 65q37 0 221 142.5t335 292.5q31 34 31 85q0 39 -33 39t-123.5 -68t-185 -157.5t-169 -186.5t-76.5 -147zM262 926 q0 21 41.5 64.5t102 80.5t103.5 37q34 0 71.5 -21.5t69.5 -52l64 -61t66.5 -52t65.5 -21.5q85 0 183.5 71.5t164.5 165.5q30 42 46 69q11 19 18 19q11 0 11 -17q0 -22 -47 -85q-88 -123 -210.5 -214t-229.5 -91q-31 0 -68 22t-70.5 54t-66 63.5t-63 53.5t-52.5 22 q-33 0 -67 -18.5t-56 -41t-40.5 -41t-25.5 -18.5q-11 0 -11 12z" />
<glyph unicode="&#xe4;" horiz-adv-x="891" d="M-169 65q0 64 76 172t179.5 206t218.5 170.5t186 72.5q29 0 69.5 -27t60.5 -59q134 102 150 108q7 0 53 -58q-43 -54 -120 -171t-136 -228q-32 -61 -50 -114.5t-18 -72.5t15 -19q43 0 148.5 84t186 163.5t99.5 103.5q5 8 14 8q5 0 9 -4.5t4 -9.5q0 -16 -102.5 -121.5 t-229.5 -210.5t-180 -115h-3q-26 0 -57 39t-31 66q0 48 73 185q81 151 145 241q-29 -4 -37 -1q-516 -490 -656 -490q-23 0 -45 35t-22 47zM-45 65q37 0 221 142.5t335 292.5q31 34 31 85q0 39 -33 39t-123.5 -68t-185 -157.5t-169 -186.5t-76.5 -147zM473 896q6 20 52 105.5 t78 130.5q24 8 61 -24t29 -45q-39 -39 -102.5 -121.5t-63.5 -114.5q-20 -2 -38 24t-16 45zM700 886q7 20 52.5 105.5t77.5 129.5q16 5 40 -9t39 -32.5t10 -26.5q-41 -42 -103 -122.5t-62 -112.5q-20 -2 -38 23.5t-16 44.5z" />
<glyph unicode="&#xe5;" horiz-adv-x="891" d="M-169 65q0 64 76 172t179.5 206t218.5 170.5t186 72.5q29 0 69.5 -27t60.5 -59q134 102 150 108q7 0 53 -58q-43 -54 -120 -171t-136 -228q-32 -61 -50 -114.5t-18 -72.5t15 -19q43 0 148.5 84t186 163.5t99.5 103.5q5 8 14 8q5 0 9 -4.5t4 -9.5q0 -16 -102.5 -121.5 t-229.5 -210.5t-180 -115h-3q-26 0 -57 39t-31 66q0 48 73 185q81 151 145 241q-29 -4 -37 -1q-516 -490 -656 -490q-23 0 -45 35t-22 47zM-45 65q37 0 221 142.5t335 292.5q31 34 31 85q0 39 -33 39t-123.5 -68t-185 -157.5t-169 -186.5t-76.5 -147zM478 845q0 48 56 100 q-15 12 -15 18q6 28 50.5 67t101 67.5t92.5 28.5q58 0 99.5 -38t41.5 -77q0 -53 -58.5 -117.5t-134.5 -107t-128 -42.5q-33 0 -69 34t-36 67zM567 808q0 -22 21 -22q40 0 103.5 33t115.5 89t52 109q0 43 -39 43q-42 0 -101.5 -28t-100.5 -68q37 -31 37 -36q-88 -65 -88 -120 z" />
<glyph unicode="&#xe6;" horiz-adv-x="1184" d="M-169 65q0 64 76 172t179.5 206t218.5 170.5t186 72.5q29 0 69.5 -27t60.5 -59q134 102 150 108q6 0 29.5 -26.5t23.5 -31.5q-16 -19 -67 -90l18 13q31 23 69.5 47.5t102 53t105.5 28.5q11 0 29 -4q21 -7 50.5 -33t29.5 -47q0 -28 -19 -57.5t-53.5 -57.5t-61.5 -46.5 t-64 -40.5q-211 -128 -352 -159q-79 -104 -79 -186q0 -22 9.5 -31t34.5 -9q83 0 226.5 74.5t267 166t192.5 161.5q11 13 30 13q6 0 6 -5q0 -9 -14 -26q-106 -128 -345 -284.5t-364 -168.5q-66 -6 -122 47t-43 124q4 19 11 39.5t13.5 35.5t19.5 38.5t19 34t22.5 37.5t21.5 34 q45 73 129 199q-9 -5 -22 -15t-32.5 -27.5t-30 -27t-34.5 -32.5t-26 -25q-474 -441 -603 -441q-23 0 -45 35t-22 47zM-45 65q37 0 221 142.5t335 292.5q31 34 31 85q0 39 -33 39t-123.5 -68t-185 -157.5t-169 -186.5t-76.5 -147zM662 314q145 52 287 146q73 48 115.5 99 t42.5 81q-14 0 -74 -29q-91 -46 -203 -134t-168 -163z" />
<glyph unicode="&#xe7;" horiz-adv-x="689" d="M-381 -430q0 59 48 102q4 4 15 7t13 1q-38 -38 -38 -90q0 -79 84 -85q65 -5 137 25t125 74t89 88t39 70q3 21 -4 32.5t-31 15.5q-27 5 -74 -12t-80 -35q-10 0 -31.5 19.5t-21.5 26.5q18 57 112 160q-46 15 -79 55t-33 80q0 8 1 12q16 106 132 249.5t263.5 247 t246.5 103.5q61 0 102 -43q63 71 126 117t109 46q23 0 33.5 -13.5t10.5 -26.5q0 -3 -4 -3q-1 0 -4 4.5t-9 8.5t-15 4q-45 0 -105.5 -56.5t-116.5 -140.5q-1 -52 -40 -133t-56 -87q-12 0 -39.5 27t-27.5 40q0 20 29 68t75 105q-5 25 -37 25q-48 0 -141 -66t-183 -155 t-158 -189t-68 -160q0 -25 16.5 -38t43.5 -13h7q83 0 227 73t268.5 163.5t192.5 159.5q11 13 29 13q7 0 7 -5q0 -8 -15 -26q-109 -129 -342 -277t-369 -172q-36 -37 -76.5 -88.5t-54.5 -83.5q135 73 200 47q34 -13 61 -44t25 -57q-5 -66 -77.5 -144t-175.5 -130t-186 -46 q-60 4 -117.5 48.5t-57.5 101.5z" />
<glyph unicode="&#xe8;" horiz-adv-x="640" d="M-134 133q20 108 124.5 223.5t240.5 216.5q31 23 69.5 47.5t102 53t105.5 28.5q11 0 29 -4q21 -7 50.5 -33t29.5 -47q0 -28 -19 -57.5t-53.5 -57.5t-61.5 -46.5t-64 -40.5q-211 -128 -352 -159q-78 -103 -78 -186q0 -22 9.5 -31t33.5 -9q83 0 226.5 74.5t267 166 t192.5 161.5q11 13 30 13q6 0 6 -5q0 -9 -14 -26q-106 -128 -345 -284.5t-364 -168.5q-66 -6 -122 47t-43 124zM118 314q145 52 287 146q73 48 115.5 99t42.5 81q-14 0 -74 -29q-91 -46 -203 -134t-168 -163zM317 1171q1 3 15.5 10.5t43.5 16.5t61 12q-5 -5 -5 -35 q1 -78 75 -168.5t176 -154.5t189 -81q1 -4 -4 -12t-11 -10q-70 13 -166.5 58.5t-184 104.5t-143.5 130.5t-46 128.5z" />
<glyph unicode="&#xe9;" horiz-adv-x="640" d="M-134 133q20 108 124.5 223.5t240.5 216.5q31 23 69.5 47.5t102 53t105.5 28.5q11 0 29 -4q21 -7 50.5 -33t29.5 -47q0 -28 -19 -57.5t-53.5 -57.5t-61.5 -46.5t-64 -40.5q-211 -128 -352 -159q-78 -103 -78 -186q0 -22 9.5 -31t33.5 -9q83 0 226.5 74.5t267 166 t192.5 161.5q11 13 30 13q6 0 6 -5q0 -9 -14 -26q-106 -128 -345 -284.5t-364 -168.5q-66 -6 -122 47t-43 124zM118 314q145 52 287 146q73 48 115.5 99t42.5 81q-14 0 -74 -29q-91 -46 -203 -134t-168 -163zM220 838q206 66 403.5 185.5t275.5 229.5q16 0 47 -33t28 -46 q-74 -63 -159.5 -117t-191 -101.5t-183.5 -78.5t-207 -78q-18 18 -13 39z" />
<glyph unicode="&#xea;" horiz-adv-x="640" d="M-134 133q20 108 124.5 223.5t240.5 216.5q31 23 69.5 47.5t102 53t105.5 28.5q11 0 29 -4q21 -7 50.5 -33t29.5 -47q0 -28 -19 -57.5t-53.5 -57.5t-61.5 -46.5t-64 -40.5q-211 -128 -352 -159q-78 -103 -78 -186q0 -22 9.5 -31t33.5 -9q83 0 226.5 74.5t267 166 t192.5 161.5q11 13 30 13q6 0 6 -5q0 -9 -14 -26q-106 -128 -345 -284.5t-364 -168.5q-66 -6 -122 47t-43 124zM118 314q145 52 287 146q73 48 115.5 99t42.5 81q-14 0 -74 -29q-91 -46 -203 -134t-168 -163zM170.5 900.5q0.5 28.5 8.5 39.5q94 23 251 130.5t206 160.5 q7 3 33.5 -12t29.5 -21q-7 -42 6 -143t50 -169q14 -26 22.5 -40t31.5 -31.5t51 -17.5q18 0 57 15q1 -1 1 -4q0 -18 -27 -31t-50 -13q-41 0 -76 34t-60 82q-29 58 -48 127.5t-19 102.5q-68 -64 -206 -162.5t-233 -132.5q-12 -1 -20.5 28t-8 57.5z" />
<glyph unicode="&#xeb;" horiz-adv-x="640" d="M-134 133q20 108 124.5 223.5t240.5 216.5q31 23 69.5 47.5t102 53t105.5 28.5q11 0 29 -4q21 -7 50.5 -33t29.5 -47q0 -28 -19 -57.5t-53.5 -57.5t-61.5 -46.5t-64 -40.5q-211 -128 -352 -159q-78 -103 -78 -186q0 -22 9.5 -31t33.5 -9q83 0 226.5 74.5t267 166 t192.5 161.5q11 13 30 13q6 0 6 -5q0 -9 -14 -26q-106 -128 -345 -284.5t-364 -168.5q-66 -6 -122 47t-43 124zM118 314q145 52 287 146q73 48 115.5 99t42.5 81q-14 0 -74 -29q-91 -46 -203 -134t-168 -163zM397 896q6 20 52 105.5t78 130.5q24 8 61 -24t29 -45 q-39 -39 -102.5 -121.5t-63.5 -114.5q-20 -2 -38 24t-16 45zM624 886q7 20 52.5 105.5t77.5 129.5q16 5 40 -9t39 -32.5t10 -26.5q-42 -43 -104 -123t-62 -112q-20 -2 -37.5 23.5t-15.5 44.5z" />
<glyph unicode="&#xec;" horiz-adv-x="426" d="M-129 75q0 37 46 119t90 144t122 166q121 160 166 190q12 -2 41 -25t29 -32q0 -1 -27.5 -39t-47.5 -74.5t-20 -58.5q-11 -4 -32 8q-79 -95 -170 -233t-91 -179q0 -17 16 -17q47 0 216 129.5t260 219.5q17 17 29.5 7.5t-5.5 -26.5q-260 -250 -396 -344q-99 -69 -147 -69 q-6 0 -24 14t-36.5 42t-18.5 58zM201 1171q1 3 15.5 10.5t43.5 16.5t61 12q-6 -6 -6 -35q1 -78 75 -168.5t176.5 -154.5t189.5 -81q1 -4 -4 -12t-11 -10q-70 13 -166.5 58.5t-184 104.5t-143.5 130.5t-46 128.5z" />
<glyph unicode="&#xed;" horiz-adv-x="426" d="M-129 75q0 37 46 119t90 144t122 166q121 160 166 190q12 -2 41 -25t29 -32q0 -1 -27.5 -39t-47.5 -74.5t-20 -58.5q-11 -4 -32 8q-79 -95 -170 -233t-91 -179q0 -17 16 -17q47 0 216 129.5t260 219.5q17 17 29.5 7.5t-5.5 -26.5q-260 -250 -396 -344q-99 -69 -147 -69 q-6 0 -24 14t-36.5 42t-18.5 58zM116 838q206 66 403.5 185.5t275.5 229.5q16 0 47 -33t28 -46q-74 -63 -159.5 -117t-191 -101.5t-183.5 -78.5t-207 -78q-18 18 -13 39z" />
<glyph unicode="&#xee;" horiz-adv-x="426" d="M-129 75q0 37 46 119t90 144t122 166q121 160 166 190q12 -2 41 -25t29 -32q0 -1 -27.5 -39t-47.5 -74.5t-20 -58.5q-11 -4 -32 8q-79 -95 -170 -233t-91 -179q0 -17 16 -17q47 0 216 129.5t260 219.5q17 17 29.5 7.5t-5.5 -26.5q-260 -250 -396 -344q-99 -69 -147 -69 q-6 0 -24 14t-36.5 42t-18.5 58zM73.5 900.5q0.5 28.5 8.5 39.5q94 23 250.5 130.5t205.5 160.5q7 3 33.5 -12t29.5 -21q-7 -42 6.5 -143t50.5 -169q14 -26 22.5 -40t31.5 -31.5t51 -17.5q17 0 56 15q2 -2 2 -4q0 -18 -27 -31t-50 -13q-41 0 -77 34t-60 82q-29 58 -47.5 127 t-18.5 103q-68 -64 -206 -162.5t-233 -132.5q-12 -1 -20.5 28t-8 57.5z" />
<glyph unicode="&#xef;" horiz-adv-x="426" d="M-129 75q0 37 46 119t90 144t122 166q121 160 166 190q12 -2 41 -25t29 -32q0 -1 -27.5 -39t-47.5 -74.5t-20 -58.5q-11 -4 -32 8q-79 -95 -170 -233t-91 -179q0 -17 16 -17q47 0 216 129.5t260 219.5q17 17 29.5 7.5t-5.5 -26.5q-260 -250 -396 -344q-99 -69 -147 -69 q-6 0 -24 14t-36.5 42t-18.5 58zM274 896q6 20 52 105.5t78 130.5q24 8 61 -24t29 -45q-39 -39 -102.5 -121.5t-63.5 -114.5q-20 -2 -38 24t-16 45zM501 886q7 20 52.5 105.5t77.5 129.5q16 5 40 -9t39 -32.5t10 -26.5q-41 -42 -103 -122.5t-62 -112.5q-20 -2 -38 23.5 t-16 44.5z" />
<glyph unicode="&#xf1;" horiz-adv-x="879" d="M-152 61q-6 29 82 163q30 44 149.5 212t171.5 253q-8 -2 -16.5 -2.5t-16 0.5t-14 2.5t-9.5 3.5t-3 4q33 7 126 113q10 9 50.5 -21t40.5 -43q0 -25 -180 -276q-10 -14 -66.5 -91.5t-77.5 -108t-58 -86.5t-61 -99q156 149 398 350.5t296 201.5q8 -2 37 -31t26 -34 q-26 -50 -76.5 -141t-77.5 -148q-43 -89 -64 -159.5t2 -84.5q19 0 99 58q83 62 188.5 166.5t127.5 132.5q5 8 14 8q12 0 12 -14q0 -17 -112.5 -134.5t-217.5 -205.5q-91 -76 -128 -80q-28 -3 -75.5 35.5t-47.5 74.5q0 59 78.5 220t133.5 242q-337 -251 -568 -489 q-27 -29 -87 -82q-11 -8 -40.5 30t-35.5 60zM165 926q0 21 41.5 64.5t101.5 80.5t103 37q42 0 89.5 -32.5t84 -71.5t81.5 -71.5t83 -32.5q85 0 183 71.5t164 165.5q36 50 47 69t18 19q10 0 10 -17q0 -23 -46 -85q-88 -123 -210.5 -214t-229.5 -91q-31 0 -68 22t-70.5 54 t-66 63.5t-63 53.5t-52.5 22q-33 0 -67 -18.5t-56 -41t-41 -41t-26 -18.5q-10 0 -10 12z" />
<glyph unicode="&#xf2;" horiz-adv-x="736" d="M-109 102q0 64 73 166t148 178q53 55 156 132q5 25 48.5 67t64.5 42q113 0 186 -22q128 27 230 31q77 2 131.5 -22.5t54.5 -73.5q0 -28 -22.5 -56t-42.5 -29q-5 0 -5 3l7 13q8 13 16 30.5t8 29.5q0 35 -44.5 51t-119.5 13q-63 -3 -146 -20q61 -39 61 -103 q0 -60 -70.5 -157.5t-170.5 -187t-221.5 -155t-212.5 -65.5q-32 0 -80.5 46t-48.5 89zM0 66q0 -32 41 -32q62 0 119 24t137 74q137 87 240.5 215t103.5 185q0 28 -21.5 51.5t-55.5 36.5q-72 -18 -121 -33q-100 -67 -237 -204q-93 -93 -149.5 -182.5t-56.5 -134.5zM347 1171 q1 3 15.5 10.5t43.5 16.5t61 12q-6 -6 -6 -35q1 -78 75 -168.5t176.5 -154.5t189.5 -81q1 -4 -4.5 -12t-11.5 -10q-70 13 -166.5 58.5t-183.5 104.5t-143 130.5t-46 128.5z" />
<glyph unicode="&#xf3;" horiz-adv-x="736" d="M-109 102q0 64 73 166t148 178q53 55 156 132q5 25 48.5 67t64.5 42q113 0 186 -22q128 27 230 31q77 2 131.5 -22.5t54.5 -73.5q0 -28 -22.5 -56t-42.5 -29q-5 0 -5 3l7 13q8 13 16 30.5t8 29.5q0 35 -44.5 51t-119.5 13q-63 -3 -146 -20q61 -39 61 -103 q0 -60 -70.5 -157.5t-170.5 -187t-221.5 -155t-212.5 -65.5q-32 0 -80.5 46t-48.5 89zM0 66q0 -32 41 -32q62 0 119 24t137 74q137 87 240.5 215t103.5 185q0 28 -21.5 51.5t-55.5 36.5q-72 -18 -121 -33q-100 -67 -237 -204q-93 -93 -149.5 -182.5t-56.5 -134.5zM288 838 q206 66 403.5 185.5t275.5 229.5q16 0 47 -33t28 -46q-74 -63 -159.5 -117t-191 -101.5t-183.5 -78.5t-207 -78q-18 18 -13 39z" />
<glyph unicode="&#xf4;" horiz-adv-x="736" d="M-109 102q0 64 73 166t148 178q53 55 156 132q5 25 48.5 67t64.5 42q113 0 186 -22q128 27 230 31q77 2 131.5 -22.5t54.5 -73.5q0 -28 -22.5 -56t-42.5 -29q-5 0 -5 3l7 13q8 13 16 30.5t8 29.5q0 35 -44.5 51t-119.5 13q-63 -3 -146 -20q61 -39 61 -103 q0 -60 -70.5 -157.5t-170.5 -187t-221.5 -155t-212.5 -65.5q-32 0 -80.5 46t-48.5 89zM0 66q0 -32 41 -32q62 0 119 24t137 74q137 87 240.5 215t103.5 185q0 28 -21.5 51.5t-55.5 36.5q-72 -18 -121 -33q-100 -67 -237 -204q-93 -93 -149.5 -182.5t-56.5 -134.5z M256.5 900.5q0.5 28.5 8.5 39.5q94 23 251 130.5t206 160.5q7 3 33.5 -12t29.5 -21q-7 -42 6 -143t50 -169q14 -26 22.5 -40t31.5 -31.5t51 -17.5q18 0 57 15q1 -1 1 -4q0 -18 -27 -31t-50 -13q-41 0 -76 34t-60 82q-29 58 -48 127.5t-19 102.5q-68 -64 -206 -162.5 t-233 -132.5q-12 -1 -20.5 28t-8 57.5z" />
<glyph unicode="&#xf5;" horiz-adv-x="736" d="M-109 102q0 64 73 166t148 178q53 55 156 132q5 25 48.5 67t64.5 42q113 0 186 -22q128 27 230 31q77 2 131.5 -22.5t54.5 -73.5q0 -28 -22.5 -56t-42.5 -29q-5 0 -5 3l7 13q8 13 16 30.5t8 29.5q0 35 -44.5 51t-119.5 13q-63 -3 -146 -20q61 -39 61 -103 q0 -60 -70.5 -157.5t-170.5 -187t-221.5 -155t-212.5 -65.5q-32 0 -80.5 46t-48.5 89zM0 66q0 -32 41 -32q62 0 119 24t137 74q137 87 240.5 215t103.5 185q0 28 -21.5 51.5t-55.5 36.5q-72 -18 -121 -33q-100 -67 -237 -204q-93 -93 -149.5 -182.5t-56.5 -134.5zM195 926 q0 21 41.5 64.5t102 80.5t103.5 37q34 0 71.5 -21.5t69.5 -52l64 -61t66.5 -52t65.5 -21.5q85 0 183 71.5t164 165.5q36 50 47 69t18 19q11 0 11 -17q0 -22 -47 -85q-88 -123 -210.5 -214t-229.5 -91q-31 0 -68 22t-70.5 54t-66 63.5t-63 53.5t-52.5 22q-33 0 -67 -18.5 t-56 -41t-40.5 -41t-25.5 -18.5q-11 0 -11 12z" />
<glyph unicode="&#xf6;" horiz-adv-x="736" d="M-109 102q0 64 73 166t148 178q53 55 156 132q5 25 48.5 67t64.5 42q113 0 186 -22q128 27 230 31q77 2 131.5 -22.5t54.5 -73.5q0 -28 -22.5 -56t-42.5 -29q-5 0 -5 3l7 13q8 13 16 30.5t8 29.5q0 35 -44.5 51t-119.5 13q-63 -3 -146 -20q61 -39 61 -103 q0 -60 -70.5 -157.5t-170.5 -187t-221.5 -155t-212.5 -65.5q-32 0 -80.5 46t-48.5 89zM0 66q0 -32 41 -32q62 0 119 24t137 74q137 87 240.5 215t103.5 185q0 28 -21.5 51.5t-55.5 36.5q-72 -18 -121 -33q-100 -67 -237 -204q-93 -93 -149.5 -182.5t-56.5 -134.5zM461 896 q6 20 52 105.5t78 130.5q24 8 61 -24t29 -45q-40 -40 -103.5 -122t-63.5 -114q-20 -2 -37.5 24t-15.5 45zM688 886q7 20 52.5 105.5t77.5 129.5q16 5 40 -9t39 -32.5t10 -26.5q-42 -43 -104 -123t-62 -112q-20 -2 -37.5 23.5t-15.5 44.5z" />
<glyph unicode="&#xf7;" horiz-adv-x="1392" d="M164.5 292q-0.5 22 2.5 46t7 27q43 16 196 35.5t287 19.5q69 0 139 -4t175 -16t180.5 -43t95.5 -78q15 -33 -10 -72q-18 -26 -21 11v5q-1 29 -19 51t-50 36t-62.5 21.5t-71.5 14.5q-134 22 -342 17q-119 -2 -257 -26.5t-244 -66.5q-5 0 -5.5 22zM388 -2q29 37 68.5 108.5 t55.5 108.5q12 14 58.5 -10.5t47.5 -52.5q-37 -55 -80.5 -111.5t-58.5 -68.5q-16 -10 -51 -2t-40 28zM677 529q29 38 68 108.5t55 107.5q11 14 58.5 -10.5t48.5 -51.5q-108 -155 -139 -180q-16 -10 -51 -2t-40 28z" />
<glyph unicode="&#xf8;" horiz-adv-x="736" d="M-229 -730q42 183 332 710q-54 -13 -83 -13q-32 0 -80.5 46t-48.5 89q0 64 73 166t148 178q53 55 156 132q5 25 48.5 67t64.5 42q80 0 143 -12q211 327 381 552q17 1 44 -15.5t26 -24.5q-163 -202 -368 -514q105 19 190 23q77 2 131.5 -22.5t54.5 -73.5q0 -28 -22.5 -56 t-42.5 -29q-5 0 -5 3l7 13q8 13 16 30.5t8 29.5q0 35 -44.5 51t-119.5 13q-63 -3 -146 -20q61 -39 61 -103q0 -63 -72 -162.5t-186.5 -197t-227.5 -152.5l-14 -26q-135 -242 -227 -453q43 8 61 -1q4 -1 3 -4q-33 -10 -88.5 -118t-95.5 -216q-7 -1 -35 25.5t-42 42.5zM0 66 q0 -32 41 -32q47 0 103 18q126 225 329 544l-30 -9q-100 -67 -237 -204q-93 -93 -149.5 -182.5t-56.5 -134.5zM260 108l37 24q137 87 240.5 215t103.5 185q0 26 -19.5 49.5t-50.5 36.5q-158 -243 -311 -510z" />
<glyph unicode="&#xf9;" horiz-adv-x="901" d="M-129 110q1 29 34.5 86t69 103.5t86 109.5t59.5 75q-13 3 -26 13.5t-11 18.5q14 -2 34.5 8.5t47.5 33t45 38.5t46.5 44t30.5 30q12 6 51 -22.5t39 -41.5q-77 -74 -112 -112q-121 -131 -216 -271q-25 -38 -42.5 -87t-3.5 -61q94 47 227 153.5t290.5 250t170.5 154.5 q3 3 24 22t35.5 32t33.5 25.5t29 12.5q12 -1 37 -21.5t25 -30.5q-75 -91 -165 -238.5t-144 -260.5t-42 -125q36 0 157 98q77 63 160 145t101 104q5 8 14 8q12 0 12 -14q0 -15 -91 -109t-195 -186q-141 -123 -176 -123q-28 8 -65.5 43.5t-37.5 56.5q0 54 87.5 216t174.5 262 q-51 -40 -160.5 -140t-202.5 -185t-190.5 -157.5t-146.5 -80.5q-18 0 -56.5 53t-37.5 70zM315 1171q1 3 15.5 10.5t43.5 16.5t61 12q-6 -6 -6 -35q1 -78 75 -168.5t176.5 -154.5t189.5 -81q1 -4 -4.5 -12t-11.5 -10q-70 13 -166.5 58.5t-183.5 104.5t-143 130.5t-46 128.5z " />
<glyph unicode="&#xfa;" horiz-adv-x="901" d="M-129 110q1 29 34.5 86t69 103.5t86 109.5t59.5 75q-13 3 -26 13.5t-11 18.5q14 -2 34.5 8.5t47.5 33t45 38.5t46.5 44t30.5 30q12 6 51 -22.5t39 -41.5q-77 -74 -112 -112q-121 -131 -216 -271q-25 -38 -42.5 -87t-3.5 -61q94 47 227 153.5t290.5 250t170.5 154.5 q3 3 24 22t35.5 32t33.5 25.5t29 12.5q12 -1 37 -21.5t25 -30.5q-75 -91 -165 -238.5t-144 -260.5t-42 -125q36 0 157 98q77 63 160 145t101 104q5 8 14 8q12 0 12 -14q0 -15 -91 -109t-195 -186q-141 -123 -176 -123q-28 8 -65.5 43.5t-37.5 56.5q0 54 87.5 216t174.5 262 q-51 -40 -160.5 -140t-202.5 -185t-190.5 -157.5t-146.5 -80.5q-18 0 -56.5 53t-37.5 70zM268 822q206 66 404 185.5t276 229.5q16 0 46.5 -32.5t27.5 -46.5q-74 -63 -160 -117t-190.5 -101.5t-183.5 -79t-207 -78.5q-18 18 -13 40z" />
<glyph unicode="&#xfb;" horiz-adv-x="901" d="M-129 110q1 29 34.5 86t69 103.5t86 109.5t59.5 75q-13 3 -26 13.5t-11 18.5q14 -2 34.5 8.5t47.5 33t45 38.5t46.5 44t30.5 30q12 6 51 -22.5t39 -41.5q-77 -74 -112 -112q-121 -131 -216 -271q-25 -38 -42.5 -87t-3.5 -61q94 47 227 153.5t290.5 250t170.5 154.5 q3 3 24 22t35.5 32t33.5 25.5t29 12.5q12 -1 37 -21.5t25 -30.5q-75 -91 -165 -238.5t-144 -260.5t-42 -125q36 0 157 98q77 63 160 145t101 104q5 8 14 8q12 0 12 -14q0 -15 -91 -109t-195 -186q-141 -123 -176 -123q-28 8 -65.5 43.5t-37.5 56.5q0 54 87.5 216t174.5 262 q-51 -40 -160.5 -140t-202.5 -185t-190.5 -157.5t-146.5 -80.5q-18 0 -56.5 53t-37.5 70zM244.5 900.5q0.5 28.5 8.5 39.5q94 23 250.5 130.5t205.5 160.5q7 3 34 -12t30 -21q-7 -42 6 -143t50 -169q14 -26 22.5 -40t31.5 -31.5t51 -17.5q17 0 56 15q2 -2 2 -4 q0 -18 -27 -31t-50 -13q-41 0 -77 34t-60 82q-29 58 -47.5 127t-18.5 103q-68 -64 -206 -162.5t-233 -132.5q-12 -1 -20.5 28t-8 57.5z" />
<glyph unicode="&#xfc;" horiz-adv-x="901" d="M-129 110q1 29 34.5 86t69 103.5t86 109.5t59.5 75q-13 3 -26 13.5t-11 18.5q14 -2 34.5 8.5t47.5 33t45 38.5t46.5 44t30.5 30q12 6 51 -22.5t39 -41.5q-77 -74 -112 -112q-121 -131 -216 -271q-25 -38 -42.5 -87t-3.5 -61q94 47 227 153.5t290.5 250t170.5 154.5 q3 3 24 22t35.5 32t33.5 25.5t29 12.5q12 -1 37 -21.5t25 -30.5q-75 -91 -165 -238.5t-144 -260.5t-42 -125q36 0 157 98q77 63 160 145t101 104q5 8 14 8q12 0 12 -14q0 -15 -91 -109t-195 -186q-141 -123 -176 -123q-28 8 -65.5 43.5t-37.5 56.5q0 54 87.5 216t174.5 262 q-51 -40 -160.5 -140t-202.5 -185t-190.5 -157.5t-146.5 -80.5q-18 0 -56.5 53t-37.5 70zM456 896q6 20 52 105.5t78 130.5q24 8 61 -24t29 -45q-39 -39 -102.5 -121.5t-63.5 -114.5q-20 -2 -38 24t-16 45zM683 886q7 20 52.5 105.5t77.5 129.5q16 5 40 -9t39 -32.5 t10 -26.5q-42 -43 -104 -123t-62 -112q-20 -2 -37.5 23.5t-15.5 44.5z" />
<glyph unicode="&#xfd;" horiz-adv-x="880" d="M-130 -1014q0 38 65.5 189t163.5 343.5t229.5 413t247.5 374.5q5 7 41 57t60.5 83.5t65 84t75.5 88.5q-52 -37 -172.5 -141t-223.5 -192.5t-217 -161t-178 -72.5q-11 0 -46 50t-35 82q0 59 56.5 163t117 184.5t101.5 123.5q12 12 19 12q8 0 32.5 -23t24.5 -34 q-21 -29 -50 -100t-11 -78q-17 -4 -48 9q-29 -39 -89 -148t-60 -159q0 -16 12 -16q50 0 155.5 70t211.5 159t242 199.5t217 165.5q4 1 16.5 -14.5t24.5 -37t12 -34.5q-67 -97 -297 -408q-185 -249 -343.5 -538.5t-256.5 -526.5q24 45 59 107q213 375 341 375q19 0 31 -9 q-51 8 -151.5 -115.5t-193.5 -298.5q-35 -65 -66.5 -135.5t-55.5 -127.5t-30 -70q-14 0 -55.5 46.5t-41.5 60.5zM258 782q206 66 404 185.5t276 229.5q16 0 47 -33t28 -47q-74 -63 -159.5 -117t-191.5 -101.5t-183.5 -78.5t-207.5 -78q-18 18 -13 40z" />
<glyph unicode="&#xff;" horiz-adv-x="880" d="M-130 -1014q0 38 65.5 189t163.5 343.5t229.5 413t247.5 374.5q5 7 41 57t60.5 83.5t65 84t75.5 88.5q-52 -37 -172.5 -141t-223.5 -192.5t-217 -161t-178 -72.5q-11 0 -46 50t-35 82q0 59 56.5 163t117 184.5t101.5 123.5q12 12 19 12q8 0 32.5 -23t24.5 -34 q-21 -29 -50 -100t-11 -78q-17 -4 -48 9q-29 -39 -89 -148t-60 -159q0 -16 12 -16q50 0 155.5 70t211.5 159t242 199.5t217 165.5q4 1 16.5 -14.5t24.5 -37t12 -34.5q-67 -97 -297 -408q-185 -249 -343.5 -538.5t-256.5 -526.5q24 45 59 107q213 375 341 375q19 0 31 -9 q-51 8 -151.5 -115.5t-193.5 -298.5q-35 -65 -66.5 -135.5t-55.5 -127.5t-30 -70q-14 0 -55.5 46.5t-41.5 60.5zM406 876q6 20 52 105.5t78 130.5q24 8 61 -24.5t29 -45.5q-40 -40 -103 -121.5t-63 -113.5q-20 -2 -38 24t-16 45zM633 866q7 20 52.5 105.5t77.5 129.5 q16 5 40 -9t39 -33t10 -27q-42 -43 -104 -123t-62 -112q-20 -2 -37.5 24t-15.5 45z" />
<glyph unicode="&#x152;" horiz-adv-x="3917" d="M41 225q0 90 48 194.5t116.5 193t158 178.5t158 148t130.5 104q343 255 787.5 419t837.5 164q370 0 564 -169q100 7 416.5 34t573 43.5t436.5 16.5q280 0 447.5 -42.5t167.5 -130.5q0 -49 -73 -112t-120 -63q-4 0 -4 5q0 1 33.5 28t66.5 65.5t33 67.5q0 20 -15.5 38.5 t-56 36.5t-103 31t-164.5 21t-232 8q-466 0 -1325 -141q75 -110 75 -255v-24q57 33 129 106.5t98 113.5q13 4 65 -37t52 -64q-165 -118 -398 -362l-15 -37q237 28 423 28q89 0 168 -6.5t151 -21.5t114 -43.5t42 -67.5q0 -40 -44 -84q6 27 6 47q0 31 -23 54t-67 37t-89 23 t-109.5 12.5t-105.5 4.5t-98 1q-152 0 -389 -29q-90 -184 -253 -364.5t-361 -340.5q-219 -314 -219 -423q0 -20 25.5 -39.5t59.5 -19.5q37 0 230 43t420.5 95t513 95t485.5 43q430 0 430 -136q0 -65 -60.5 -135.5t-88.5 -70.5q-9 0 -9 7t22 29.5t43.5 53.5t21.5 59 q0 60 -75.5 89.5t-228.5 36.5q-84 4 -127 4q-206 0 -441 -31t-428.5 -75t-359 -88t-279 -75t-142.5 -31q-36 0 -92 66t-56 111q0 54 76 187q-98 -64 -219 -129t-263.5 -128.5t-290.5 -103t-265 -39.5q-142 0 -250 87.5t-108 212.5q0 137 75.5 300.5t199.5 316t271.5 289 t301.5 240.5q-90 -10 -121 8q-12 7 -11 22q1 10 10 6q46 -25 358 99q64 27 81 33q9 -1 26 -43.5t17 -56.5q0 -3 -2 -3q-87 -36 -187.5 -94.5t-206.5 -137.5t-208 -170t-193 -196.5t-159.5 -212.5t-108.5 -222.5t-40 -221.5q0 -84 66 -142.5t206 -58.5t322 59.5t338 140 t320 183.5q70 45 108 72q220 338 620 770q-210 -34 -433 -81q-95 -19 -135 -28t-114.5 -30t-131.5 -46q-9 1 -42 43t-30 56q19 5 107 26t146 36t128.5 36t103.5 37q-17 -43 -37 -80q310 58 485 83q57 61 178 184q15 68 15 120q0 160 -89 267q-195 -31 -213 -31q-8 0 -24 45 t-16 73q0 9 4 9q3 0 11.5 -0.5t13.5 -0.5q44 0 105 3q-141 80 -387 96q-25 2 -74 2q-180 0 -391.5 -48.5t-413 -129.5t-388.5 -184t-338 -216q-70 -52 -144.5 -119t-155.5 -154t-144 -173.5t-104 -181t-41 -172.5q0 -98 92.5 -179.5t197.5 -81.5q25 0 25 -11t-22 -11 q-92 0 -184.5 43t-156 122.5t-63.5 172.5zM2433 246q251 237 382 458q-192 -210 -382 -458z" />
<glyph unicode="&#x153;" horiz-adv-x="1163" d="M-130 88q1 53 32.5 115.5t83 122.5t108 113t117.5 100q1 1 10 12.5t18 22t20.5 23.5t22 22.5t18.5 13.5q42 21 119 30.5t115 2.5q58 -11 98 -47t38 -80q-2 -21 -8 -38q28 23 92 72q31 23 69.5 47.5t102 53t105.5 28.5q11 0 29 -4q21 -7 50.5 -33t29.5 -47 q0 -28 -19 -57.5t-53.5 -57.5t-61.5 -46.5t-64 -40.5q-211 -128 -352 -159q-79 -104 -79 -186q0 -22 9.5 -31t34.5 -9q83 0 226.5 74.5t267 166t192.5 161.5q11 13 30 13q6 0 6 -5q0 -8 -15 -26q-106 -128 -344.5 -284.5t-363.5 -168.5q-66 -6 -122.5 47t-43.5 124 q3 17 17 56q-113 -98 -226 -162t-191 -66q-31 -1 -75 43t-43 84zM-29 53q-3 -30 37 -28q100 2 253 101q130 84 242.5 221t114.5 191q1 49 -56 76q-84 -5 -225 -110t-251.5 -239t-114.5 -212zM641 314q142 51 286 146q73 48 115.5 99t42.5 81q-13 0 -73 -29 q-91 -46 -203 -134t-168 -163z" />
<glyph unicode="&#x178;" horiz-adv-x="1803" d="M123 920q2 6 26 23q27 17 83.5 74t117.5 128q15 26 64 102t81.5 132t46.5 93q16 -5 51 -47t45 -68q-67 -84 -143 -167q-256 -379 -261 -626q-1 -86 47.5 -131t123.5 -45q41 0 89 9t89 19t100 35t94 39.5t102 50.5t93.5 50.5t98 57t86 51.5t85.5 53q317 196 695 488 q260 201 417 359q12 4 44.5 -19t32.5 -36q-28 -23 -60.5 -58.5t-89 -101t-63.5 -73.5q-189 -216 -422 -516.5t-412 -568.5q-327 -491 -516 -927q211 303 338 344q28 9 46.5 -5t18.5 -29q-1 -1 -1 -2v-2q-22 17 -39 11q-57 -19 -133 -102t-142.5 -186.5t-119.5 -204 t-74 -163.5q-14 -5 -64.5 40t-49.5 53q2 71 204.5 465.5t447.5 759.5q175 260 372 518.5t366 454.5q-495 -380 -763 -547q-99 -62 -200.5 -119t-230 -119.5t-249 -100.5t-207.5 -38q-99 0 -180 77t-79 186q3 146 118 372q-38 -25 -73 -36q-53 -16 -51 -7zM1195 1537 q6 20 52 105.5t78 130.5q24 8 61 -24.5t29 -45.5q-40 -40 -103.5 -121.5t-63.5 -113.5q-20 -2 -37.5 24t-15.5 45zM1422 1527q7 20 52.5 105.5t77.5 129.5q16 5 40 -9t39 -33t10 -27q-42 -43 -104 -123t-62 -112q-20 -2 -37.5 24t-15.5 45z" />
<glyph unicode="&#x2c6;" horiz-adv-x="1010" d="M259.5 900.5q0.5 28.5 8.5 39.5q94 23 250.5 130.5t205.5 160.5q7 3 33.5 -12t29.5 -21q-7 -42 6.5 -143t50.5 -169q14 -26 22.5 -40t31.5 -31.5t51 -17.5q17 0 56 15q2 -2 2 -4q0 -18 -27 -31t-50 -13q-41 0 -77 34t-60 82q-29 58 -47.5 127t-18.5 103 q-68 -64 -206 -162.5t-233 -132.5q-12 -1 -20.5 28t-8 57.5z" />
<glyph unicode="&#x2dc;" horiz-adv-x="974" d="M119 926q0 21 41.5 64.5t101.5 80.5t103 37q42 0 89.5 -32.5t84 -71.5t81.5 -71.5t83 -32.5q85 0 183 71.5t164 165.5q36 50 47 69t18 19q11 0 11 -17q0 -22 -47 -85q-88 -123 -210.5 -214t-229.5 -91q-31 0 -68 22t-70.5 54t-66 63.5t-63 53.5t-52.5 22q-33 0 -67 -18.5 t-56 -41t-41 -41t-26 -18.5q-10 0 -10 12z" />
<glyph unicode="&#x2000;" horiz-adv-x="1000" />
<glyph unicode="&#x2001;" horiz-adv-x="2001" />
<glyph unicode="&#x2002;" horiz-adv-x="1000" />
<glyph unicode="&#x2003;" horiz-adv-x="2001" />
<glyph unicode="&#x2004;" horiz-adv-x="667" />
<glyph unicode="&#x2005;" horiz-adv-x="500" />
<glyph unicode="&#x2006;" horiz-adv-x="333" />
<glyph unicode="&#x2007;" horiz-adv-x="333" />
<glyph unicode="&#x2008;" horiz-adv-x="250" />
<glyph unicode="&#x2009;" horiz-adv-x="400" />
<glyph unicode="&#x200a;" horiz-adv-x="111" />
<glyph unicode="&#x2010;" horiz-adv-x="1313" d="M185 336q0 18 238.5 34t346.5 16q325 0 325 -68q0 -17 -19.5 -39.5t-32.5 -22.5q-5 0 -5 4q0 2 3 15.5t3 25.5q0 41 -214 41q-129 0 -327 -19q18 -18 18 -33q0 -3 -1 -5q-11 3 -37 3q-111 0 -264 -41q-13 4 -23.5 36.5t-10.5 52.5z" />
<glyph unicode="&#x2011;" horiz-adv-x="1313" d="M185 336q0 18 238.5 34t346.5 16q325 0 325 -68q0 -17 -19.5 -39.5t-32.5 -22.5q-5 0 -5 4q0 2 3 15.5t3 25.5q0 41 -214 41q-129 0 -327 -19q18 -18 18 -33q0 -3 -1 -5q-11 3 -37 3q-111 0 -264 -41q-13 4 -23.5 36.5t-10.5 52.5z" />
<glyph unicode="&#x2012;" horiz-adv-x="1313" d="M185 336q0 18 238.5 34t346.5 16q325 0 325 -68q0 -17 -19.5 -39.5t-32.5 -22.5q-5 0 -5 4q0 2 3 15.5t3 25.5q0 41 -214 41q-129 0 -327 -19q18 -18 18 -33q0 -3 -1 -5q-11 3 -37 3q-111 0 -264 -41q-13 4 -23.5 36.5t-10.5 52.5z" />
<glyph unicode="&#x2013;" horiz-adv-x="1427" d="M185 336q0 18 268.5 34t389.5 16q366 0 366 -68q0 -17 -22 -39.5t-37 -22.5q-5 0 -5 4q0 2 3.5 15.5t3.5 25.5q0 41 -241 41q-145 0 -368 -19q20 -18 20 -33q0 -3 -1 -5q-12 3 -42 3q-125 0 -297 -41q-14 4 -26 36.5t-12 52.5z" />
<glyph unicode="&#x2014;" horiz-adv-x="2451" d="M185 336q0 18 537 34t780 16q731 0 731 -68q0 -17 -44 -39.5t-73 -22.5q-11 0 -11 4q0 2 6.5 15.5t6.5 25.5q0 41 -481 41q-291 0 -736 -19q40 -18 40 -33q0 -3 -2 -5q-25 3 -83 3q-250 0 -594 -41q-30 4 -53.5 36.5t-23.5 52.5z" />
<glyph unicode="&#x202f;" horiz-adv-x="400" />
<glyph unicode="&#x205f;" horiz-adv-x="500" />
<glyph unicode="&#x20ac;" horiz-adv-x="3041" d="M30 206q65 14 147 50.5t146 76.5q12 0 1 -64q265 50 357 64q55 8 239 34q116 157 306 334q-158 -20 -238 -36q17 -10 26.5 -16.5t6.5 -7.5q-59 -8 -159 -34.5t-131 -42.5q-15 1 -45.5 37.5t-27.5 48.5q61 33 234.5 62t395.5 46q326 289 697 500t555 211q65 0 118 -57.5 t53 -123.5q0 -44 -24 -87t-49.5 -66t-36.5 -23q-8 0 -8 14q0 8 16.5 28t33 56.5t16.5 85.5q0 88 -74 88q-182 0 -506 -178.5t-627 -437.5q149 7 251 7q470 0 470 -78q0 -18 -30.5 -43.5t-55.5 -25.5q-11 0 -11 3q0 1 26 20.5t26 34.5t-48.5 25.5t-118.5 15t-119 6.5t-78 2 q-161 0 -370 -17q-191 -172 -318 -332q423 47 811 47q90 0 252.5 -16t162.5 -48q0 -8 -7 -18t-14 -9q-2 0 -6 4q-36 46 -432 46q-340 0 -808 -61q-170 -233 -170 -406q0 -83 49.5 -125.5t170.5 -42.5q195 0 451.5 63t484.5 151q248 95 503.5 221.5t432.5 255.5q10 8 16 -2 q4 -13 -8 -23q-171 -134 -415 -265.5t-504 -227.5q-313 -115 -552.5 -175.5t-451.5 -60.5q-73 0 -131.5 22.5t-94 59.5t-54.5 81.5t-19 90.5q0 155 138 362q-136 -19 -190 -28q-126 -19 -338.5 -70t-281.5 -79v1q-9 1 -25 31.5t-16 40.5z" />
<glyph unicode="&#x2122;" horiz-adv-x="1613" d="M197 1418q0 18 3 21q108 59 619 118q46 58 72 81q3 0 27.5 -12.5t47.5 -26t22 -15.5l-13 -10q252 19 412 19l17 1h33t43.5 -0.5t50.5 -2.5t51.5 -5t49 -9t40 -13.5t28.5 -19t10 -25.5q0 -27 -37 -56.5t-63 -29.5q0 5 24 33t24 45q0 46 -275 46q-176 0 -316 -12 q-121 -13 -139 -15q-90 -95 -213 -287.5t-229 -404.5q-2 -2 -8 -2q-19 0 -46.5 20t-27.5 34q45 103 162 294t218 327q-224 -35 -446 -93q21 -3 35 -13t14 -19q-3 0 -177 -29q-6 0 -9.5 20t-3.5 41zM702 994q0 39 130 234.5t221 304.5q1 0 1 0.5t1 0.5q11 0 41.5 -22 t30.5 -31v-1q-32 -31 -116.5 -155.5t-160.5 -252.5q68 51 158.5 136.5t163.5 171.5q11 0 46.5 -25.5t38.5 -37.5q-17 -26 -36 -98.5t-19 -98.5q45 32 162 137.5t181 167.5h2q13 0 48 -26t35 -34v-1q-128 -220 -198 -368t-70 -238q0 -29 22 -29q37 0 129 92q6 6 9 6q4 0 4 -5 t-6 -14q-32 -50 -85 -100t-81 -50q-31 0 -61 40.5t-30 60.5q0 84 82.5 265t171.5 321q-37 -44 -190 -180.5t-186 -154.5q-6 -1 -37.5 19.5t-31.5 33.5q0 20 28.5 108t48.5 136q-62 -71 -197 -207t-182 -172q-12 3 -40 30t-28 36z" />
<glyph unicode="&#x25fc;" horiz-adv-x="774" d="M0 0v774h774v-774h-774z" />
</font>
</defs>
</svg>
